<svg version="1.1" viewBox="0.0 0.0 907.8005249343832 429.5721784776903" fill="none" stroke="none" stroke-linecap="square" stroke-miterlimit="10" xmlns:xlink="http://www.w3.org/1999/xlink" xmlns="http://www.w3.org/2000/svg"><clipPath id="p.0"><path d="m0 0l907.80054 0l0 429.57217l-907.80054 0l0 -429.57217z" clip-rule="nonzero"/></clipPath><g clip-path="url(#p.0)"><path fill="#000000" fill-opacity="0.0" d="m0 0l907.80054 0l0 429.57217l-907.80054 0z" fill-rule="evenodd"/><g filter="url(#shadowFilter-p.1)"><use xlink:href="#p.1" transform="matrix(1.0 0.0 0.0 1.0 0.0 2.0)"/></g><defs><filter id="shadowFilter-p.1" filterUnits="userSpaceOnUse"><feGaussianBlur in="SourceAlpha" stdDeviation="2.0" result="blur"/><feComponentTransfer in="blur" color-interpolation-filters="sRGB"><feFuncR type="linear" slope="0" intercept="0.0"/><feFuncG type="linear" slope="0" intercept="0.0"/><feFuncB type="linear" slope="0" intercept="0.0"/><feFuncA type="linear" slope="0.5" intercept="0"/></feComponentTransfer></filter></defs><g id="p.1"><path fill="#cfe2f3" d="m74.75722 207.8246l400.4641 0l0 43.109787l-400.4641 0z" fill-rule="evenodd"/><path fill="#a5b4c2" d="m475.22134 207.8246l110.21304 -110.21305l0 43.10978l-110.21304 110.21306z" fill-rule="evenodd"/><path fill="#d8e7f5" d="m74.75722 207.8246l110.21306 -110.21305l400.4641 0l-110.21304 110.21305z" fill-rule="evenodd"/><path fill="#000000" fill-opacity="0.0" d="m74.75722 207.8246l110.21306 -110.21305l400.4641 0l0 43.10978l-110.21304 110.21306l-400.4641 0zm0 0l400.4641 0l110.21304 -110.21305m-110.21304 110.21305l0 43.109787" fill-rule="evenodd"/><path stroke="#000000" stroke-width="1.0" stroke-linejoin="round" stroke-linecap="butt" d="m74.75722 207.8246l110.21306 -110.21305l400.4641 0l0 43.10978l-110.21304 110.21306l-400.4641 0zm0 0l400.4641 0l110.21304 -110.21305m-110.21304 110.21305l0 43.109787" fill-rule="evenodd"/><path fill="#000000" d="m154.63493 236.29948l-3.6875 -9.671875l1.734375 0l2.078125 5.796875q0.328125 0.9375 0.625 1.9375q0.203125 -0.765625 0.609375 -1.828125l2.140625 -5.90625l1.6875 0l-3.65625 9.671875l-1.53125 0zm12.953125 -1.1875q-0.921875 0.765625 -1.765625 1.09375q-0.828125 0.3125 -1.796875 0.3125q-1.59375 0 -2.453125 -0.78125q-0.859375 -0.78125 -0.859375 -1.984375q0 -0.71875 0.328125 -1.296875q0.328125 -0.59375 0.84375 -0.9375q0.53125 -0.359375 1.1875 -0.546875q0.46875 -0.125 1.453125 -0.25q1.984375 -0.234375 2.921875 -0.5625q0.015625 -0.34375 0.015625 -0.421875q0 -1.0 -0.46875 -1.421875q-0.625 -0.546875 -1.875 -0.546875q-1.15625 0 -1.703125 0.40625q-0.546875 0.40625 -0.8125 1.421875l-1.609375 -0.21875q0.21875 -1.015625 0.71875 -1.640625q0.5 -0.640625 1.453125 -0.984375q0.953125 -0.34375 2.1875 -0.34375q1.25 0 2.015625 0.296875q0.78125 0.28125 1.140625 0.734375q0.375 0.4375 0.515625 1.109375q0.078125 0.421875 0.078125 1.515625l0 2.1875q0 2.28125 0.109375 2.890625q0.109375 0.59375 0.40625 1.15625l-1.703125 0q-0.265625 -0.515625 -0.328125 -1.1875zm-0.140625 -3.671875q-0.890625 0.375 -2.671875 0.625q-1.015625 0.140625 -1.4375 0.328125q-0.421875 0.1875 -0.65625 0.53125q-0.21875 0.34375 -0.21875 0.78125q0 0.65625 0.5 1.09375q0.5 0.4375 1.453125 0.4375q0.9375 0 1.671875 -0.40625q0.75 -0.421875 1.09375 -1.140625q0.265625 -0.5625 0.265625 -1.640625l0 -0.609375zm4.203842 4.859375l0 -9.671875l1.46875 0l0 1.375q1.0625 -1.59375 3.078125 -1.59375q0.875 0 1.609375 0.3125q0.734375 0.3125 1.09375 0.828125q0.375 0.5 0.515625 1.203125q0.09375 0.453125 0.09375 1.59375l0 5.953125l-1.640625 0l0 -5.890625q0 -1.0 -0.203125 -1.484375q-0.1875 -0.5 -0.671875 -0.796875q-0.484375 -0.296875 -1.140625 -0.296875q-1.046875 0 -1.8125 0.671875q-0.75 0.65625 -0.75 2.515625l0 5.28125l-1.640625 0zm10.375717 -11.46875l0 -1.890625l1.640625 0l0 1.890625l-1.640625 0zm0 11.46875l0 -9.671875l1.640625 0l0 9.671875l-1.640625 0zm4.097946 0l0 -13.359375l1.640625 0l0 13.359375l-1.640625 0zm4.144821 0l0 -13.359375l1.640625 0l0 13.359375l-1.640625 0zm10.504196 -1.1875q-0.921875 0.765625 -1.765625 1.09375q-0.828125 0.3125 -1.796875 0.3125q-1.59375 0 -2.453125 -0.78125q-0.859375 -0.78125 -0.859375 -1.984375q0 -0.71875 0.328125 -1.296875q0.328125 -0.59375 0.84375 -0.9375q0.53125 -0.359375 1.1875 -0.546875q0.46875 -0.125 1.453125 -0.25q1.984375 -0.234375 2.921875 -0.5625q0.015625 -0.34375 0.015625 -0.421875q0 -1.0 -0.46875 -1.421875q-0.625 -0.546875 -1.875 -0.546875q-1.15625 0 -1.703125 0.40625q-0.546875 0.40625 -0.8125 1.421875l-1.609375 -0.21875q0.21875 -1.015625 0.71875 -1.640625q0.5 -0.640625 1.453125 -0.984375q0.953125 -0.34375 2.1875 -0.34375q1.25 0 2.015625 0.296875q0.78125 0.28125 1.140625 0.734375q0.375 0.4375 0.515625 1.109375q0.078125 0.421875 0.078125 1.515625l0 2.1875q0 2.28125 0.109375 2.890625q0.109375 0.59375 0.40623474 1.15625l-1.7031097 0q-0.265625 -0.515625 -0.328125 -1.1875zm-0.140625 -3.671875q-0.890625 0.375 -2.671875 0.625q-1.015625 0.140625 -1.4375 0.328125q-0.421875 0.1875 -0.65625 0.53125q-0.21875 0.34375 -0.21875 0.78125q0 0.65625 0.5 1.09375q0.5 0.4375 1.453125 0.4375q0.9375 0 1.671875 -0.40625q0.75 -0.421875 1.09375 -1.140625q0.265625 -0.5625 0.265625 -1.640625l0 -0.609375zm8.777756 0.015625q0 -2.6875 1.484375 -3.96875q1.25 -1.078125 3.046875 -1.078125q2.0 0 3.265625 1.3125q1.265625 1.296875 1.265625 3.609375q0 1.859375 -0.5625 2.9375q-0.5625 1.0625 -1.640625 1.65625q-1.0625 0.59375 -2.328125 0.59375q-2.03125 0 -3.28125 -1.296875q-1.25 -1.3125 -1.25 -3.765625zm1.6875 0q0 1.859375 0.796875 2.796875q0.8125 0.921875 2.046875 0.921875q1.21875 0 2.03125 -0.921875q0.8125 -0.9375 0.8125 -2.84375q0 -1.796875 -0.8125 -2.71875q-0.8125 -0.921875 -2.03125 -0.921875q-1.234375 0 -2.046875 0.921875q-0.796875 0.90625 -0.796875 2.765625zm9.688232 4.84375l0 -8.40625l-1.453125 0l0 -1.265625l1.453125 0l0 -1.03125q0 -0.96875 0.171875 -1.453125q0.234375 -0.640625 0.828125 -1.03125q0.59375 -0.390625 1.671875 -0.390625q0.6875 0 1.53125 0.15625l-0.25 1.4375q-0.5 -0.09375 -0.953125 -0.09375q-0.75 0 -1.0625 0.328125q-0.3125 0.3125 -0.3125 1.1875l0 0.890625l1.890625 0l0 1.265625l-1.890625 0l0 8.40625l-1.625 0zm4.8460693 0l0 -8.40625l-1.453125 0l0 -1.265625l1.453125 0l0 -1.03125q0 -0.96875 0.171875 -1.453125q0.234375 -0.640625 0.828125 -1.03125q0.59375 -0.390625 1.671875 -0.390625q0.6875 0 1.53125 0.15625l-0.25 1.4375q-0.5 -0.09375 -0.953125 -0.09375q-0.75 0 -1.0625 0.328125q-0.3125 0.3125 -0.3125 1.1875l0 0.890625l1.890625 0l0 1.265625l-1.890625 0l0 8.40625l-1.625 0zm9.975983 3.703125l0 -13.375l1.484375 0l0 1.25q0.53125 -0.734375 1.1875 -1.09375q0.671875 -0.375 1.625 -0.375q1.234375 0 2.171875 0.640625q0.953125 0.625 1.4375 1.796875q0.484375 1.15625 0.484375 2.546875q0 1.484375 -0.53125 2.671875q-0.53125 1.1875 -1.546875 1.828125q-1.015625 0.625 -2.140625 0.625q-0.8125 0 -1.46875 -0.34375q-0.65625 -0.34375 -1.0625 -0.875l0 4.703125l-1.640625 0zm1.484375 -8.484375q0 1.859375 0.75 2.765625q0.765625 0.890625 1.828125 0.890625q1.09375 0 1.875 -0.921875q0.78125 -0.9375 0.78125 -2.875q0 -1.84375 -0.765625 -2.765625q-0.75 -0.921875 -1.8125 -0.921875q-1.046875 0 -1.859375 0.984375q-0.796875 0.96875 -0.796875 2.84375zm8.281952 -0.0625q0 -2.6875 1.484375 -3.96875q1.25 -1.078125 3.046875 -1.078125q2.0 0 3.265625 1.3125q1.265625 1.296875 1.265625 3.609375q0 1.859375 -0.5625 2.9375q-0.5625 1.0625 -1.640625 1.65625q-1.0625 0.59375 -2.328125 0.59375q-2.03125 0 -3.28125 -1.296875q-1.25 -1.3125 -1.25 -3.765625zm1.6875 0q0 1.859375 0.796875 2.796875q0.8125 0.921875 2.046875 0.921875q1.21875 0 2.03125 -0.921875q0.8125 -0.9375 0.8125 -2.84375q0 -1.796875 -0.8125 -2.71875q-0.8125 -0.921875 -2.03125 -0.921875q-1.234375 0 -2.046875 0.921875q-0.796875 0.90625 -0.796875 2.765625zm9.250748 4.84375l0 -13.359375l1.640625 0l0 13.359375l-1.640625 0zm4.191681 -11.46875l0 -1.890625l1.640625 0l0 1.890625l-1.640625 0zm0 11.46875l0 -9.671875l1.640625 0l0 9.671875l-1.640625 0zm10.457336 -3.546875l1.609375 0.21875q-0.265625 1.65625 -1.359375 2.609375q-1.078125 0.9375 -2.671875 0.9375q-1.984375 0 -3.1875 -1.296875q-1.203125 -1.296875 -1.203125 -3.71875q0 -1.578125 0.515625 -2.75q0.515625 -1.171875 1.578125 -1.75q1.0625 -0.59375 2.3125 -0.59375q1.578125 0 2.578125 0.796875q1.0 0.796875 1.28125 2.265625l-1.59375 0.234375q-0.234375 -0.96875 -0.8125 -1.453125q-0.578125 -0.5 -1.390625 -0.5q-1.234375 0 -2.015625 0.890625q-0.78125 0.890625 -0.78125 2.8125q0 1.953125 0.75 2.84375q0.75 0.875 1.953125 0.875q0.96875 0 1.609375 -0.59375q0.65625 -0.59375 0.828125 -1.828125zm2.9375 7.265625l-0.1875 -1.53125q0.546875 0.140625 0.9375 0.140625q0.546875 0 0.875 -0.1875q0.328125 -0.171875 0.546875 -0.5q0.15625 -0.25 0.5 -1.21875q0.046875 -0.140625 0.140625 -0.40625l-3.671875 -9.6875l1.765625 0l2.015625 5.59375q0.390625 1.078125 0.703125 2.25q0.28125 -1.125 0.671875 -2.203125l2.078125 -5.640625l1.640625 0l-3.6875 9.828125q-0.59375 1.609375 -0.921875 2.203125q-0.4375 0.8125 -1.0 1.1875q-0.5625 0.375 -1.34375 0.375q-0.484375 0 -1.0625 -0.203125zm18.167664 -5.1875l0.234375 1.453125q-0.6875 0.140625 -1.234375 0.140625q-0.890625 0 -1.390625 -0.28125q-0.484375 -0.28125 -0.6875 -0.734375q-0.203125 -0.46875 -0.203125 -1.9375l0 -5.578125l-1.203125 0l0 -1.265625l1.203125 0l0 -2.390625l1.625 -0.984375l0 3.375l1.65625 0l0 1.265625l-1.65625 0l0 5.671875q0 0.6875 0.078125 0.890625q0.09375 0.203125 0.28125 0.328125q0.203125 0.109375 0.578125 0.109375q0.265625 0 0.71875 -0.0625zm1.5895691 1.46875l0 -9.671875l1.46875 0l0 1.46875q0.5625 -1.03125 1.03125 -1.359375q0.484375 -0.328125 1.0625 -0.328125q0.828125 0 1.6875 0.53125l-0.5625 1.515625q-0.609375 -0.359375 -1.203125 -0.359375q-0.546875 0 -0.96875 0.328125q-0.421875 0.328125 -0.609375 0.890625q-0.28125 0.875 -0.28125 1.921875l0 5.0625l-1.625 0zm12.540802 -1.1875q-0.921875 0.765625 -1.765625 1.09375q-0.828125 0.3125 -1.796875 0.3125q-1.59375 0 -2.453125 -0.78125q-0.859375 -0.78125 -0.859375 -1.984375q0 -0.71875 0.328125 -1.296875q0.328125 -0.59375 0.84375 -0.9375q0.53125 -0.359375 1.1875 -0.546875q0.46875 -0.125 1.453125 -0.25q1.984375 -0.234375 2.921875 -0.5625q0.015625 -0.34375 0.015625 -0.421875q0 -1.0 -0.46875 -1.421875q-0.625 -0.546875 -1.875 -0.546875q-1.15625 0 -1.703125 0.40625q-0.546875 0.40625 -0.8125 1.421875l-1.609375 -0.21875q0.21875 -1.015625 0.71875 -1.640625q0.5 -0.640625 1.453125 -0.984375q0.953125 -0.34375 2.1875 -0.34375q1.25 0 2.015625 0.296875q0.78125 0.28125 1.140625 0.734375q0.375 0.4375 0.515625 1.109375q0.078125 0.421875 0.078125 1.515625l0 2.1875q0 2.28125 0.109375 2.890625q0.109375 0.59375 0.40625 1.15625l-1.703125 0q-0.265625 -0.515625 -0.328125 -1.1875zm-0.140625 -3.671875q-0.890625 0.375 -2.671875 0.625q-1.015625 0.140625 -1.4375 0.328125q-0.421875 0.1875 -0.65625 0.53125q-0.21875 0.34375 -0.21875 0.78125q0 0.65625 0.5 1.09375q0.5 0.4375 1.453125 0.4375q0.9375 0 1.671875 -0.40625q0.75 -0.421875 1.09375 -1.140625q0.265625 -0.5625 0.265625 -1.640625l0 -0.609375zm4.203827 -6.609375l0 -1.890625l1.640625 0l0 1.890625l-1.640625 0zm0 11.46875l0 -9.671875l1.640625 0l0 9.671875l-1.640625 0zm4.1448364 0l0 -9.671875l1.46875 0l0 1.375q1.0625 -1.59375 3.078125 -1.59375q0.875 0 1.609375 0.3125q0.734375 0.3125 1.09375 0.828125q0.375 0.5 0.515625 1.203125q0.09375 0.453125 0.09375 1.59375l0 5.953125l-1.640625 0l0 -5.890625q0 -1.0 -0.203125 -1.484375q-0.1875 -0.5 -0.671875 -0.796875q-0.484375 -0.296875 -1.140625 -0.296875q-1.046875 0 -1.8125 0.671875q-0.75 0.65625 -0.75 2.515625l0 5.28125l-1.640625 0zm10.375702 -11.46875l0 -1.890625l1.640625 0l0 1.890625l-1.640625 0zm0 11.46875l0 -9.671875l1.640625 0l0 9.671875l-1.640625 0zm4.1448364 0l0 -9.671875l1.46875 0l0 1.375q1.0625 -1.59375 3.078125 -1.59375q0.875 0 1.609375 0.3125q0.734375 0.3125 1.09375 0.828125q0.375 0.5 0.515625 1.203125q0.09375 0.453125 0.09375 1.59375l0 5.953125l-1.640625 0l0 -5.890625q0 -1.0 -0.203125 -1.484375q-0.1875 -0.5 -0.671875 -0.796875q-0.484375 -0.296875 -1.140625 -0.296875q-1.046875 0 -1.8125 0.671875q-0.75 0.65625 -0.75 2.515625l0 5.28125l-1.640625 0zm10.063202 0.796875l1.59375 0.234375q0.109375 0.75 0.5625 1.078125q0.609375 0.453125 1.671875 0.453125q1.140625 0 1.75 -0.453125q0.625 -0.453125 0.84375 -1.265625q0.125 -0.5 0.109375 -2.109375q-1.0625 1.265625 -2.671875 1.265625q-2.0 0 -3.09375 -1.4375q-1.09375 -1.4375 -1.09375 -3.453125q0 -1.390625 0.5 -2.5625q0.515625 -1.171875 1.453125 -1.796875q0.953125 -0.640625 2.25 -0.640625q1.703125 0 2.8125 1.375l0 -1.15625l1.515625 0l0 8.359375q0 2.265625 -0.46875 3.203125q-0.453125 0.9375 -1.453125 1.484375q-0.984375 0.546875 -2.453125 0.546875q-1.71875 0 -2.796875 -0.78125q-1.0625 -0.765625 -1.03125 -2.34375zm1.359375 -5.8125q0 1.90625 0.75 2.78125q0.765625 0.875 1.90625 0.875q1.125 0 1.890625 -0.859375q0.765625 -0.875 0.765625 -2.734375q0 -1.78125 -0.796875 -2.671875q-0.78125 -0.90625 -1.890625 -0.90625q-1.09375 0 -1.859375 0.890625q-0.765625 0.875 -0.765625 2.625zm13.855896 2.125l1.625 -0.25q0.125 0.96875 0.75 1.5q0.625 0.515625 1.75 0.515625q1.125 0 1.671875 -0.453125q0.546875 -0.46875 0.546875 -1.09375q0 -0.546875 -0.484375 -0.875q-0.328125 -0.21875 -1.671875 -0.546875q-1.8125 -0.46875 -2.515625 -0.796875q-0.6875 -0.328125 -1.046875 -0.90625q-0.359375 -0.59375 -0.359375 -1.3125q0 -0.640625 0.296875 -1.1875q0.296875 -0.5625 0.8125 -0.921875q0.375 -0.28125 1.03125 -0.46875q0.671875 -0.203125 1.421875 -0.203125q1.140625 0 2.0 0.328125q0.859375 0.328125 1.265625 0.890625q0.421875 0.5625 0.578125 1.5l-1.609375 0.21875q-0.109375 -0.75 -0.640625 -1.171875q-0.515625 -0.421875 -1.46875 -0.421875q-1.140625 0 -1.625 0.375q-0.46875 0.375 -0.46875 0.875q0 0.3125 0.1875 0.578125q0.203125 0.265625 0.640625 0.4375q0.234375 0.09375 1.4375 0.421875q1.75 0.453125 2.4375 0.75q0.6875 0.296875 1.078125 0.859375q0.390625 0.5625 0.390625 1.40625q0 0.828125 -0.484375 1.546875q-0.46875 0.71875 -1.375 1.125q-0.90625 0.390625 -2.046875 0.390625q-1.875 0 -2.875 -0.78125q-0.984375 -0.78125 -1.25 -2.328125zm13.5625 1.421875l0.234375 1.453125q-0.6875 0.140625 -1.234375 0.140625q-0.890625 0 -1.390625 -0.28125q-0.484375 -0.28125 -0.6875 -0.734375q-0.203125 -0.46875 -0.203125 -1.9375l0 -5.578125l-1.203125 0l0 -1.265625l1.203125 0l0 -2.390625l1.625 -0.984375l0 3.375l1.65625 0l0 1.265625l-1.65625 0l0 5.671875q0 0.6875 0.078125 0.890625q0.09375 0.203125 0.28125 0.328125q0.203125 0.109375 0.578125 0.109375q0.265625 0 0.71875 -0.0625zm7.917694 0.28125q-0.921875 0.765625 -1.765625 1.09375q-0.828125 0.3125 -1.796875 0.3125q-1.59375 0 -2.453125 -0.78125q-0.859375 -0.78125 -0.859375 -1.984375q0 -0.71875 0.328125 -1.296875q0.328125 -0.59375 0.84375 -0.9375q0.53125 -0.359375 1.1875 -0.546875q0.46875 -0.125 1.453125 -0.25q1.984375 -0.234375 2.921875 -0.5625q0.015625 -0.34375 0.015625 -0.421875q0 -1.0 -0.46875 -1.421875q-0.625 -0.546875 -1.875 -0.546875q-1.15625 0 -1.703125 0.40625q-0.546875 0.40625 -0.8125 1.421875l-1.609375 -0.21875q0.21875 -1.015625 0.71875 -1.640625q0.5 -0.640625 1.453125 -0.984375q0.953125 -0.34375 2.1875 -0.34375q1.25 0 2.015625 0.296875q0.78125 0.28125 1.140625 0.734375q0.375 0.4375 0.515625 1.109375q0.078125 0.421875 0.078125 1.515625l0 2.1875q0 2.28125 0.109375 2.890625q0.109375 0.59375 0.40625 1.15625l-1.703125 0q-0.265625 -0.515625 -0.328125 -1.1875zm-0.140625 -3.671875q-0.890625 0.375 -2.671875 0.625q-1.015625 0.140625 -1.4375 0.328125q-0.421875 0.1875 -0.65625 0.53125q-0.21875 0.34375 -0.21875 0.78125q0 0.65625 0.5 1.09375q0.5 0.4375 1.453125 0.4375q0.9375 0 1.671875 -0.40625q0.75 -0.421875 1.09375 -1.140625q0.265625 -0.5625 0.265625 -1.640625l0 -0.609375zm3.891327 5.65625l1.59375 0.234375q0.109375 0.75 0.5625 1.078125q0.609375 0.453125 1.671875 0.453125q1.140625 0 1.75 -0.453125q0.625 -0.453125 0.84375 -1.265625q0.125 -0.5 0.109375 -2.109375q-1.0625 1.265625 -2.671875 1.265625q-2.0 0 -3.09375 -1.4375q-1.09375 -1.4375 -1.09375 -3.453125q0 -1.390625 0.5 -2.5625q0.515625 -1.171875 1.453125 -1.796875q0.953125 -0.640625 2.25 -0.640625q1.703125 0 2.8125 1.375l0 -1.15625l1.515625 0l0 8.359375q0 2.265625 -0.46875 3.203125q-0.453125 0.9375 -1.453125 1.484375q-0.984375 0.546875 -2.453125 0.546875q-1.71875 0 -2.796875 -0.78125q-1.0625 -0.765625 -1.03125 -2.34375zm1.359375 -5.8125q0 1.90625 0.75 2.78125q0.765625 0.875 1.90625 0.875q1.125 0 1.890625 -0.859375q0.765625 -0.875 0.765625 -2.734375q0 -1.78125 -0.796875 -2.671875q-0.78125 -0.90625 -1.890625 -0.90625q-1.09375 0 -1.859375 0.890625q-0.765625 0.875 -0.765625 2.625zm15.953857 1.90625l1.6875 0.203125q-0.40625 1.484375 -1.484375 2.3125q-1.078125 0.8125 -2.765625 0.8125q-2.125 0 -3.375 -1.296875q-1.234375 -1.3125 -1.234375 -3.671875q0 -2.453125 1.25 -3.796875q1.265625 -1.34375 3.265625 -1.34375q1.9375 0 3.15625 1.328125q1.234375 1.3125 1.234375 3.703125q0 0.15625 0 0.4375l-7.21875 0q0.09375 1.59375 0.90625 2.453125q0.8125 0.84375 2.015625 0.84375q0.90625 0 1.546875 -0.46875q0.640625 -0.484375 1.015625 -1.515625zm-5.390625 -2.65625l5.40625 0q-0.109375 -1.21875 -0.625 -1.828125q-0.78125 -0.953125 -2.03125 -0.953125q-1.125 0 -1.90625 0.765625q-0.765625 0.75 -0.84375 2.015625z" fill-rule="nonzero"/></g><g filter="url(#shadowFilter-p.2)"><use xlink:href="#p.2" transform="matrix(1.0 0.0 0.0 1.0 0.0 2.0)"/></g><defs><filter id="shadowFilter-p.2" filterUnits="userSpaceOnUse"><feGaussianBlur in="SourceAlpha" stdDeviation="2.0" result="blur"/><feComponentTransfer in="blur" color-interpolation-filters="sRGB"><feFuncR type="linear" slope="0" intercept="0.0"/><feFuncG type="linear" slope="0" intercept="0.0"/><feFuncB type="linear" slope="0" intercept="0.0"/><feFuncA type="linear" slope="0.5" intercept="0"/></feComponentTransfer></filter></defs><g id="p.2"><path fill="#cfe2f3" d="m163.28477 156.3924l0 0c0 -2.162033 6.0670776 -3.9147034 13.551178 -3.9147034c7.4841156 0 13.551193 1.7526703 13.551193 3.9147034l0 15.658783c0 2.162033 -6.0670776 3.9147034 -13.551193 3.9147034c-7.4841003 0 -13.551178 -1.7526703 -13.551178 -3.9147034z" fill-rule="evenodd"/><path fill="#000000" fill-opacity="0.0" d="m190.38715 156.3924l0 0c0 2.1620178 -6.0670776 3.914688 -13.551193 3.914688c-7.4841003 0 -13.551178 -1.7526703 -13.551178 -3.914688" fill-rule="evenodd"/><path fill="#000000" fill-opacity="0.0" d="m163.28477 156.3924l0 0c0 -2.162033 6.0670776 -3.9147034 13.551178 -3.9147034c7.4841156 0 13.551193 1.7526703 13.551193 3.9147034l0 15.658783c0 2.162033 -6.0670776 3.9147034 -13.551193 3.9147034c-7.4841003 0 -13.551178 -1.7526703 -13.551178 -3.9147034z" fill-rule="evenodd"/><path stroke="#000000" stroke-width="1.0" stroke-linejoin="round" stroke-linecap="butt" d="m190.38715 156.3924l0 0c0 2.1620178 -6.0670776 3.914688 -13.551193 3.914688c-7.4841003 0 -13.551178 -1.7526703 -13.551178 -3.914688" fill-rule="evenodd"/><path stroke="#000000" stroke-width="1.0" stroke-linejoin="round" stroke-linecap="butt" d="m163.28477 156.3924l0 0c0 -2.162033 6.0670776 -3.9147034 13.551178 -3.9147034c7.4841156 0 13.551193 1.7526703 13.551193 3.9147034l0 15.658783c0 2.162033 -6.0670776 3.9147034 -13.551193 3.9147034c-7.4841003 0 -13.551178 -1.7526703 -13.551178 -3.9147034z" fill-rule="evenodd"/></g><g filter="url(#shadowFilter-p.3)"><use xlink:href="#p.3" transform="matrix(1.0 0.0 0.0 1.0 0.0 2.0)"/></g><defs><filter id="shadowFilter-p.3" filterUnits="userSpaceOnUse"><feGaussianBlur in="SourceAlpha" stdDeviation="2.0" result="blur"/><feComponentTransfer in="blur" color-interpolation-filters="sRGB"><feFuncR type="linear" slope="0" intercept="0.0"/><feFuncG type="linear" slope="0" intercept="0.0"/><feFuncB type="linear" slope="0" intercept="0.0"/><feFuncA type="linear" slope="0.5" intercept="0"/></feComponentTransfer></filter></defs><g id="p.3"><path fill="#cfe2f3" d="m139.79659 179.88058l0 0c0 -2.162033 6.0670776 -3.9147034 13.551178 -3.9147034c7.4841156 0 13.551193 1.7526703 13.551193 3.9147034l0 15.658783c0 2.162033 -6.0670776 3.9147034 -13.551193 3.9147034c-7.4841003 0 -13.551178 -1.7526703 -13.551178 -3.9147034z" fill-rule="evenodd"/><path fill="#000000" fill-opacity="0.0" d="m166.89896 179.88058l0 0c0 2.1620178 -6.0670776 3.914688 -13.551193 3.914688c-7.4841003 0 -13.551178 -1.7526703 -13.551178 -3.914688" fill-rule="evenodd"/><path fill="#000000" fill-opacity="0.0" d="m139.79659 179.88058l0 0c0 -2.162033 6.0670776 -3.9147034 13.551178 -3.9147034c7.4841156 0 13.551193 1.7526703 13.551193 3.9147034l0 15.658783c0 2.162033 -6.0670776 3.9147034 -13.551193 3.9147034c-7.4841003 0 -13.551178 -1.7526703 -13.551178 -3.9147034z" fill-rule="evenodd"/><path stroke="#000000" stroke-width="1.0" stroke-linejoin="round" stroke-linecap="butt" d="m166.89896 179.88058l0 0c0 2.1620178 -6.0670776 3.914688 -13.551193 3.914688c-7.4841003 0 -13.551178 -1.7526703 -13.551178 -3.914688" fill-rule="evenodd"/><path stroke="#000000" stroke-width="1.0" stroke-linejoin="round" stroke-linecap="butt" d="m139.79659 179.88058l0 0c0 -2.162033 6.0670776 -3.9147034 13.551178 -3.9147034c7.4841156 0 13.551193 1.7526703 13.551193 3.9147034l0 15.658783c0 2.162033 -6.0670776 3.9147034 -13.551193 3.9147034c-7.4841003 0 -13.551178 -1.7526703 -13.551178 -3.9147034z" fill-rule="evenodd"/></g><g filter="url(#shadowFilter-p.4)"><use xlink:href="#p.4" transform="matrix(1.0 0.0 0.0 1.0 0.0 2.0)"/></g><defs><filter id="shadowFilter-p.4" filterUnits="userSpaceOnUse"><feGaussianBlur in="SourceAlpha" stdDeviation="2.0" result="blur"/><feComponentTransfer in="blur" color-interpolation-filters="sRGB"><feFuncR type="linear" slope="0" intercept="0.0"/><feFuncG type="linear" slope="0" intercept="0.0"/><feFuncB type="linear" slope="0" intercept="0.0"/><feFuncA type="linear" slope="0.5" intercept="0"/></feComponentTransfer></filter></defs><g id="p.4"><path fill="#cfe2f3" d="m219.58661 179.88058l0 0c0 -2.162033 6.0670776 -3.9147034 13.551193 -3.9147034c7.4841003 0 13.551178 1.7526703 13.551178 3.9147034l0 15.658783c0 2.162033 -6.0670776 3.9147034 -13.551178 3.9147034c-7.4841156 0 -13.551193 -1.7526703 -13.551193 -3.9147034z" fill-rule="evenodd"/><path fill="#000000" fill-opacity="0.0" d="m246.68898 179.88058l0 0c0 2.1620178 -6.0670776 3.914688 -13.551178 3.914688c-7.4841156 0 -13.551193 -1.7526703 -13.551193 -3.914688" fill-rule="evenodd"/><path fill="#000000" fill-opacity="0.0" d="m219.58661 179.88058l0 0c0 -2.162033 6.0670776 -3.9147034 13.551193 -3.9147034c7.4841003 0 13.551178 1.7526703 13.551178 3.9147034l0 15.658783c0 2.162033 -6.0670776 3.9147034 -13.551178 3.9147034c-7.4841156 0 -13.551193 -1.7526703 -13.551193 -3.9147034z" fill-rule="evenodd"/><path stroke="#000000" stroke-width="1.0" stroke-linejoin="round" stroke-linecap="butt" d="m246.68898 179.88058l0 0c0 2.1620178 -6.0670776 3.914688 -13.551178 3.914688c-7.4841156 0 -13.551193 -1.7526703 -13.551193 -3.914688" fill-rule="evenodd"/><path stroke="#000000" stroke-width="1.0" stroke-linejoin="round" stroke-linecap="butt" d="m219.58661 179.88058l0 0c0 -2.162033 6.0670776 -3.9147034 13.551193 -3.9147034c7.4841003 0 13.551178 1.7526703 13.551178 3.9147034l0 15.658783c0 2.162033 -6.0670776 3.9147034 -13.551178 3.9147034c-7.4841156 0 -13.551193 -1.7526703 -13.551193 -3.9147034z" fill-rule="evenodd"/></g><g filter="url(#shadowFilter-p.5)"><use xlink:href="#p.5" transform="matrix(1.0 0.0 0.0 1.0 0.0 2.0)"/></g><defs><filter id="shadowFilter-p.5" filterUnits="userSpaceOnUse"><feGaussianBlur in="SourceAlpha" stdDeviation="2.0" result="blur"/><feComponentTransfer in="blur" color-interpolation-filters="sRGB"><feFuncR type="linear" slope="0" intercept="0.0"/><feFuncG type="linear" slope="0" intercept="0.0"/><feFuncB type="linear" slope="0" intercept="0.0"/><feFuncA type="linear" slope="0.5" intercept="0"/></feComponentTransfer></filter></defs><g id="p.5"><path fill="#cfe2f3" d="m243.0748 156.3924l0 0c0 -2.162033 6.0670776 -3.9147034 13.551178 -3.9147034c7.484131 0 13.551178 1.7526703 13.551178 3.9147034l0 15.658783c0 2.162033 -6.067047 3.9147034 -13.551178 3.9147034c-7.4841003 0 -13.551178 -1.7526703 -13.551178 -3.9147034z" fill-rule="evenodd"/><path fill="#000000" fill-opacity="0.0" d="m270.17715 156.3924l0 0c0 2.1620178 -6.067047 3.914688 -13.551178 3.914688c-7.4841003 0 -13.551178 -1.7526703 -13.551178 -3.914688" fill-rule="evenodd"/><path fill="#000000" fill-opacity="0.0" d="m243.0748 156.3924l0 0c0 -2.162033 6.0670776 -3.9147034 13.551178 -3.9147034c7.484131 0 13.551178 1.7526703 13.551178 3.9147034l0 15.658783c0 2.162033 -6.067047 3.9147034 -13.551178 3.9147034c-7.4841003 0 -13.551178 -1.7526703 -13.551178 -3.9147034z" fill-rule="evenodd"/><path stroke="#000000" stroke-width="1.0" stroke-linejoin="round" stroke-linecap="butt" d="m270.17715 156.3924l0 0c0 2.1620178 -6.067047 3.914688 -13.551178 3.914688c-7.4841003 0 -13.551178 -1.7526703 -13.551178 -3.914688" fill-rule="evenodd"/><path stroke="#000000" stroke-width="1.0" stroke-linejoin="round" stroke-linecap="butt" d="m243.0748 156.3924l0 0c0 -2.162033 6.0670776 -3.9147034 13.551178 -3.9147034c7.484131 0 13.551178 1.7526703 13.551178 3.9147034l0 15.658783c0 2.162033 -6.067047 3.9147034 -13.551178 3.9147034c-7.4841003 0 -13.551178 -1.7526703 -13.551178 -3.9147034z" fill-rule="evenodd"/></g><g filter="url(#shadowFilter-p.6)"><use xlink:href="#p.6" transform="matrix(1.0 0.0 0.0 1.0 0.0 2.0)"/></g><defs><filter id="shadowFilter-p.6" filterUnits="userSpaceOnUse"><feGaussianBlur in="SourceAlpha" stdDeviation="2.0" result="blur"/><feComponentTransfer in="blur" color-interpolation-filters="sRGB"><feFuncR type="linear" slope="0" intercept="0.0"/><feFuncG type="linear" slope="0" intercept="0.0"/><feFuncB type="linear" slope="0" intercept="0.0"/><feFuncA type="linear" slope="0.5" intercept="0"/></feComponentTransfer></filter></defs><g id="p.6"><path fill="#cfe2f3" d="m363.5735 156.3924l0 0c0 -2.162033 6.0670776 -3.9147034 13.551178 -3.9147034c7.484131 0 13.551178 1.7526703 13.551178 3.9147034l0 15.658783c0 2.162033 -6.067047 3.9147034 -13.551178 3.9147034c-7.4841003 0 -13.551178 -1.7526703 -13.551178 -3.9147034z" fill-rule="evenodd"/><path fill="#000000" fill-opacity="0.0" d="m390.67584 156.3924l0 0c0 2.1620178 -6.067047 3.914688 -13.551178 3.914688c-7.4841003 0 -13.551178 -1.7526703 -13.551178 -3.914688" fill-rule="evenodd"/><path fill="#000000" fill-opacity="0.0" d="m363.5735 156.3924l0 0c0 -2.162033 6.0670776 -3.9147034 13.551178 -3.9147034c7.484131 0 13.551178 1.7526703 13.551178 3.9147034l0 15.658783c0 2.162033 -6.067047 3.9147034 -13.551178 3.9147034c-7.4841003 0 -13.551178 -1.7526703 -13.551178 -3.9147034z" fill-rule="evenodd"/><path stroke="#000000" stroke-width="1.0" stroke-linejoin="round" stroke-linecap="butt" d="m390.67584 156.3924l0 0c0 2.1620178 -6.067047 3.914688 -13.551178 3.914688c-7.4841003 0 -13.551178 -1.7526703 -13.551178 -3.914688" fill-rule="evenodd"/><path stroke="#000000" stroke-width="1.0" stroke-linejoin="round" stroke-linecap="butt" d="m363.5735 156.3924l0 0c0 -2.162033 6.0670776 -3.9147034 13.551178 -3.9147034c7.484131 0 13.551178 1.7526703 13.551178 3.9147034l0 15.658783c0 2.162033 -6.067047 3.9147034 -13.551178 3.9147034c-7.4841003 0 -13.551178 -1.7526703 -13.551178 -3.9147034z" fill-rule="evenodd"/></g><g filter="url(#shadowFilter-p.7)"><use xlink:href="#p.7" transform="matrix(1.0 0.0 0.0 1.0 0.0 2.0)"/></g><defs><filter id="shadowFilter-p.7" filterUnits="userSpaceOnUse"><feGaussianBlur in="SourceAlpha" stdDeviation="2.0" result="blur"/><feComponentTransfer in="blur" color-interpolation-filters="sRGB"><feFuncR type="linear" slope="0" intercept="0.0"/><feFuncG type="linear" slope="0" intercept="0.0"/><feFuncB type="linear" slope="0" intercept="0.0"/><feFuncA type="linear" slope="0.5" intercept="0"/></feComponentTransfer></filter></defs><g id="p.7"><path fill="#cfe2f3" d="m340.0853 179.88058l0 0c0 -2.162033 6.0670776 -3.9147034 13.551178 -3.9147034c7.484131 0 13.551178 1.7526703 13.551178 3.9147034l0 15.658783c0 2.162033 -6.067047 3.9147034 -13.551178 3.9147034c-7.4841003 0 -13.551178 -1.7526703 -13.551178 -3.9147034z" fill-rule="evenodd"/><path fill="#000000" fill-opacity="0.0" d="m367.18765 179.88058l0 0c0 2.1620178 -6.067047 3.914688 -13.551178 3.914688c-7.4841003 0 -13.551178 -1.7526703 -13.551178 -3.914688" fill-rule="evenodd"/><path fill="#000000" fill-opacity="0.0" d="m340.0853 179.88058l0 0c0 -2.162033 6.0670776 -3.9147034 13.551178 -3.9147034c7.484131 0 13.551178 1.7526703 13.551178 3.9147034l0 15.658783c0 2.162033 -6.067047 3.9147034 -13.551178 3.9147034c-7.4841003 0 -13.551178 -1.7526703 -13.551178 -3.9147034z" fill-rule="evenodd"/><path stroke="#000000" stroke-width="1.0" stroke-linejoin="round" stroke-linecap="butt" d="m367.18765 179.88058l0 0c0 2.1620178 -6.067047 3.914688 -13.551178 3.914688c-7.4841003 0 -13.551178 -1.7526703 -13.551178 -3.914688" fill-rule="evenodd"/><path stroke="#000000" stroke-width="1.0" stroke-linejoin="round" stroke-linecap="butt" d="m340.0853 179.88058l0 0c0 -2.162033 6.0670776 -3.9147034 13.551178 -3.9147034c7.484131 0 13.551178 1.7526703 13.551178 3.9147034l0 15.658783c0 2.162033 -6.067047 3.9147034 -13.551178 3.9147034c-7.4841003 0 -13.551178 -1.7526703 -13.551178 -3.9147034z" fill-rule="evenodd"/></g><g filter="url(#shadowFilter-p.8)"><use xlink:href="#p.8" transform="matrix(1.0 0.0 0.0 1.0 0.0 2.0)"/></g><defs><filter id="shadowFilter-p.8" filterUnits="userSpaceOnUse"><feGaussianBlur in="SourceAlpha" stdDeviation="2.0" result="blur"/><feComponentTransfer in="blur" color-interpolation-filters="sRGB"><feFuncR type="linear" slope="0" intercept="0.0"/><feFuncG type="linear" slope="0" intercept="0.0"/><feFuncB type="linear" slope="0" intercept="0.0"/><feFuncA type="linear" slope="0.5" intercept="0"/></feComponentTransfer></filter></defs><g id="p.8"><path fill="#cfe2f3" d="m419.87534 179.88058l0 0c0 -2.162033 6.0670776 -3.9147034 13.551178 -3.9147034c7.4841003 0 13.551178 1.7526703 13.551178 3.9147034l0 15.658783c0 2.162033 -6.0670776 3.9147034 -13.551178 3.9147034c-7.4841003 0 -13.551178 -1.7526703 -13.551178 -3.9147034z" fill-rule="evenodd"/><path fill="#000000" fill-opacity="0.0" d="m446.9777 179.88058l0 0c0 2.1620178 -6.0670776 3.914688 -13.551178 3.914688c-7.4841003 0 -13.551178 -1.7526703 -13.551178 -3.914688" fill-rule="evenodd"/><path fill="#000000" fill-opacity="0.0" d="m419.87534 179.88058l0 0c0 -2.162033 6.0670776 -3.9147034 13.551178 -3.9147034c7.4841003 0 13.551178 1.7526703 13.551178 3.9147034l0 15.658783c0 2.162033 -6.0670776 3.9147034 -13.551178 3.9147034c-7.4841003 0 -13.551178 -1.7526703 -13.551178 -3.9147034z" fill-rule="evenodd"/><path stroke="#000000" stroke-width="1.0" stroke-linejoin="round" stroke-linecap="butt" d="m446.9777 179.88058l0 0c0 2.1620178 -6.0670776 3.914688 -13.551178 3.914688c-7.4841003 0 -13.551178 -1.7526703 -13.551178 -3.914688" fill-rule="evenodd"/><path stroke="#000000" stroke-width="1.0" stroke-linejoin="round" stroke-linecap="butt" d="m419.87534 179.88058l0 0c0 -2.162033 6.0670776 -3.9147034 13.551178 -3.9147034c7.4841003 0 13.551178 1.7526703 13.551178 3.9147034l0 15.658783c0 2.162033 -6.0670776 3.9147034 -13.551178 3.9147034c-7.4841003 0 -13.551178 -1.7526703 -13.551178 -3.9147034z" fill-rule="evenodd"/></g><g filter="url(#shadowFilter-p.9)"><use xlink:href="#p.9" transform="matrix(1.0 0.0 0.0 1.0 0.0 2.0)"/></g><defs><filter id="shadowFilter-p.9" filterUnits="userSpaceOnUse"><feGaussianBlur in="SourceAlpha" stdDeviation="2.0" result="blur"/><feComponentTransfer in="blur" color-interpolation-filters="sRGB"><feFuncR type="linear" slope="0" intercept="0.0"/><feFuncG type="linear" slope="0" intercept="0.0"/><feFuncB type="linear" slope="0" intercept="0.0"/><feFuncA type="linear" slope="0.5" intercept="0"/></feComponentTransfer></filter></defs><g id="p.9"><path fill="#cfe2f3" d="m443.36353 156.3924l0 0c0 -2.162033 6.067047 -3.9147034 13.551178 -3.9147034c7.4841003 0 13.551178 1.7526703 13.551178 3.9147034l0 15.658783c0 2.162033 -6.0670776 3.9147034 -13.551178 3.9147034c-7.484131 0 -13.551178 -1.7526703 -13.551178 -3.9147034z" fill-rule="evenodd"/><path fill="#000000" fill-opacity="0.0" d="m470.46588 156.3924l0 0c0 2.1620178 -6.0670776 3.914688 -13.551178 3.914688c-7.484131 0 -13.551178 -1.7526703 -13.551178 -3.914688" fill-rule="evenodd"/><path fill="#000000" fill-opacity="0.0" d="m443.36353 156.3924l0 0c0 -2.162033 6.067047 -3.9147034 13.551178 -3.9147034c7.4841003 0 13.551178 1.7526703 13.551178 3.9147034l0 15.658783c0 2.162033 -6.0670776 3.9147034 -13.551178 3.9147034c-7.484131 0 -13.551178 -1.7526703 -13.551178 -3.9147034z" fill-rule="evenodd"/><path stroke="#000000" stroke-width="1.0" stroke-linejoin="round" stroke-linecap="butt" d="m470.46588 156.3924l0 0c0 2.1620178 -6.0670776 3.914688 -13.551178 3.914688c-7.484131 0 -13.551178 -1.7526703 -13.551178 -3.914688" fill-rule="evenodd"/><path stroke="#000000" stroke-width="1.0" stroke-linejoin="round" stroke-linecap="butt" d="m443.36353 156.3924l0 0c0 -2.162033 6.067047 -3.9147034 13.551178 -3.9147034c7.4841003 0 13.551178 1.7526703 13.551178 3.9147034l0 15.658783c0 2.162033 -6.0670776 3.9147034 -13.551178 3.9147034c-7.484131 0 -13.551178 -1.7526703 -13.551178 -3.9147034z" fill-rule="evenodd"/></g><g filter="url(#shadowFilter-p.10)"><use xlink:href="#p.10" transform="matrix(1.0 0.0 0.0 1.0 0.0 2.0)"/></g><defs><filter id="shadowFilter-p.10" filterUnits="userSpaceOnUse"><feGaussianBlur in="SourceAlpha" stdDeviation="2.0" result="blur"/><feComponentTransfer in="blur" color-interpolation-filters="sRGB"><feFuncR type="linear" slope="0" intercept="0.0"/><feFuncG type="linear" slope="0" intercept="0.0"/><feFuncB type="linear" slope="0" intercept="0.0"/><feFuncA type="linear" slope="0.5" intercept="0"/></feComponentTransfer></filter></defs><g id="p.10"><path fill="#cfe2f3" d="m418.93832 101.526245l0 0c0 -2.1620255 6.0670776 -3.9146957 13.551178 -3.9146957c7.4841003 0 13.551178 1.7526703 13.551178 3.9146957l0 15.658791c0 2.162033 -6.0670776 3.9147034 -13.551178 3.9147034c-7.4841003 0 -13.551178 -1.7526703 -13.551178 -3.9147034z" fill-rule="evenodd"/><path fill="#000000" fill-opacity="0.0" d="m446.04068 101.526245l0 0c0 2.162033 -6.0670776 3.9147034 -13.551178 3.9147034c-7.4841003 0 -13.551178 -1.7526703 -13.551178 -3.9147034" fill-rule="evenodd"/><path fill="#000000" fill-opacity="0.0" d="m418.93832 101.526245l0 0c0 -2.1620255 6.0670776 -3.9146957 13.551178 -3.9146957c7.4841003 0 13.551178 1.7526703 13.551178 3.9146957l0 15.658791c0 2.162033 -6.0670776 3.9147034 -13.551178 3.9147034c-7.4841003 0 -13.551178 -1.7526703 -13.551178 -3.9147034z" fill-rule="evenodd"/><path stroke="#000000" stroke-width="1.0" stroke-linejoin="round" stroke-linecap="butt" d="m446.04068 101.526245l0 0c0 2.162033 -6.0670776 3.9147034 -13.551178 3.9147034c-7.4841003 0 -13.551178 -1.7526703 -13.551178 -3.9147034" fill-rule="evenodd"/><path stroke="#000000" stroke-width="1.0" stroke-linejoin="round" stroke-linecap="butt" d="m418.93832 101.526245l0 0c0 -2.1620255 6.0670776 -3.9146957 13.551178 -3.9146957c7.4841003 0 13.551178 1.7526703 13.551178 3.9146957l0 15.658791c0 2.162033 -6.0670776 3.9147034 -13.551178 3.9147034c-7.4841003 0 -13.551178 -1.7526703 -13.551178 -3.9147034z" fill-rule="evenodd"/></g><g filter="url(#shadowFilter-p.11)"><use xlink:href="#p.11" transform="matrix(1.0 0.0 0.0 1.0 0.0 2.0)"/></g><defs><filter id="shadowFilter-p.11" filterUnits="userSpaceOnUse"><feGaussianBlur in="SourceAlpha" stdDeviation="2.0" result="blur"/><feComponentTransfer in="blur" color-interpolation-filters="sRGB"><feFuncR type="linear" slope="0" intercept="0.0"/><feFuncG type="linear" slope="0" intercept="0.0"/><feFuncB type="linear" slope="0" intercept="0.0"/><feFuncA type="linear" slope="0.5" intercept="0"/></feComponentTransfer></filter></defs><g id="p.11"><path fill="#cfe2f3" d="m395.45013 125.014435l0 0c0 -2.1620255 6.0670776 -3.9146957 13.551178 -3.9146957c7.4841003 0 13.551178 1.7526703 13.551178 3.9146957l0 15.658798c0 2.1620178 -6.0670776 3.914688 -13.551178 3.914688c-7.4841003 0 -13.551178 -1.7526703 -13.551178 -3.914688z" fill-rule="evenodd"/><path fill="#000000" fill-opacity="0.0" d="m422.5525 125.014435l0 0c0 2.1620255 -6.0670776 3.9147034 -13.551178 3.9147034c-7.4841003 0 -13.551178 -1.7526779 -13.551178 -3.9147034" fill-rule="evenodd"/><path fill="#000000" fill-opacity="0.0" d="m395.45013 125.014435l0 0c0 -2.1620255 6.0670776 -3.9146957 13.551178 -3.9146957c7.4841003 0 13.551178 1.7526703 13.551178 3.9146957l0 15.658798c0 2.1620178 -6.0670776 3.914688 -13.551178 3.914688c-7.4841003 0 -13.551178 -1.7526703 -13.551178 -3.914688z" fill-rule="evenodd"/><path stroke="#000000" stroke-width="1.0" stroke-linejoin="round" stroke-linecap="butt" d="m422.5525 125.014435l0 0c0 2.1620255 -6.0670776 3.9147034 -13.551178 3.9147034c-7.4841003 0 -13.551178 -1.7526779 -13.551178 -3.9147034" fill-rule="evenodd"/><path stroke="#000000" stroke-width="1.0" stroke-linejoin="round" stroke-linecap="butt" d="m395.45013 125.014435l0 0c0 -2.1620255 6.0670776 -3.9146957 13.551178 -3.9146957c7.4841003 0 13.551178 1.7526703 13.551178 3.9146957l0 15.658798c0 2.1620178 -6.0670776 3.914688 -13.551178 3.914688c-7.4841003 0 -13.551178 -1.7526703 -13.551178 -3.914688z" fill-rule="evenodd"/></g><g filter="url(#shadowFilter-p.12)"><use xlink:href="#p.12" transform="matrix(1.0 0.0 0.0 1.0 0.0 2.0)"/></g><defs><filter id="shadowFilter-p.12" filterUnits="userSpaceOnUse"><feGaussianBlur in="SourceAlpha" stdDeviation="2.0" result="blur"/><feComponentTransfer in="blur" color-interpolation-filters="sRGB"><feFuncR type="linear" slope="0" intercept="0.0"/><feFuncG type="linear" slope="0" intercept="0.0"/><feFuncB type="linear" slope="0" intercept="0.0"/><feFuncA type="linear" slope="0.5" intercept="0"/></feComponentTransfer></filter></defs><g id="p.12"><path fill="#cfe2f3" d="m475.24014 125.014435l0 0c0 -2.1620255 6.0670776 -3.9146957 13.5512085 -3.9146957c7.4841003 0 13.551178 1.7526703 13.551178 3.9146957l0 15.658798c0 2.1620178 -6.0670776 3.914688 -13.551178 3.914688c-7.484131 0 -13.5512085 -1.7526703 -13.5512085 -3.914688z" fill-rule="evenodd"/><path fill="#000000" fill-opacity="0.0" d="m502.34253 125.014435l0 0c0 2.1620255 -6.0670776 3.9147034 -13.551178 3.9147034c-7.484131 0 -13.5512085 -1.7526779 -13.5512085 -3.9147034" fill-rule="evenodd"/><path fill="#000000" fill-opacity="0.0" d="m475.24014 125.014435l0 0c0 -2.1620255 6.0670776 -3.9146957 13.5512085 -3.9146957c7.4841003 0 13.551178 1.7526703 13.551178 3.9146957l0 15.658798c0 2.1620178 -6.0670776 3.914688 -13.551178 3.914688c-7.484131 0 -13.5512085 -1.7526703 -13.5512085 -3.914688z" fill-rule="evenodd"/><path stroke="#000000" stroke-width="1.0" stroke-linejoin="round" stroke-linecap="butt" d="m502.34253 125.014435l0 0c0 2.1620255 -6.0670776 3.9147034 -13.551178 3.9147034c-7.484131 0 -13.5512085 -1.7526779 -13.5512085 -3.9147034" fill-rule="evenodd"/><path stroke="#000000" stroke-width="1.0" stroke-linejoin="round" stroke-linecap="butt" d="m475.24014 125.014435l0 0c0 -2.1620255 6.0670776 -3.9146957 13.5512085 -3.9146957c7.4841003 0 13.551178 1.7526703 13.551178 3.9146957l0 15.658798c0 2.1620178 -6.0670776 3.914688 -13.551178 3.914688c-7.484131 0 -13.5512085 -1.7526703 -13.5512085 -3.914688z" fill-rule="evenodd"/></g><g filter="url(#shadowFilter-p.13)"><use xlink:href="#p.13" transform="matrix(1.0 0.0 0.0 1.0 0.0 2.0)"/></g><defs><filter id="shadowFilter-p.13" filterUnits="userSpaceOnUse"><feGaussianBlur in="SourceAlpha" stdDeviation="2.0" result="blur"/><feComponentTransfer in="blur" color-interpolation-filters="sRGB"><feFuncR type="linear" slope="0" intercept="0.0"/><feFuncG type="linear" slope="0" intercept="0.0"/><feFuncB type="linear" slope="0" intercept="0.0"/><feFuncA type="linear" slope="0.5" intercept="0"/></feComponentTransfer></filter></defs><g id="p.13"><path fill="#cfe2f3" d="m498.72833 101.526245l0 0c0 -2.1620255 6.0670776 -3.9146957 13.5512085 -3.9146957c7.48407 0 13.551147 1.7526703 13.551147 3.9146957l0 15.658791c0 2.162033 -6.0670776 3.9147034 -13.551147 3.9147034c-7.484131 0 -13.5512085 -1.7526703 -13.5512085 -3.9147034z" fill-rule="evenodd"/><path fill="#000000" fill-opacity="0.0" d="m525.8307 101.526245l0 0c0 2.162033 -6.0670776 3.9147034 -13.551147 3.9147034c-7.484131 0 -13.5512085 -1.7526703 -13.5512085 -3.9147034" fill-rule="evenodd"/><path fill="#000000" fill-opacity="0.0" d="m498.72833 101.526245l0 0c0 -2.1620255 6.0670776 -3.9146957 13.5512085 -3.9146957c7.48407 0 13.551147 1.7526703 13.551147 3.9146957l0 15.658791c0 2.162033 -6.0670776 3.9147034 -13.551147 3.9147034c-7.484131 0 -13.5512085 -1.7526703 -13.5512085 -3.9147034z" fill-rule="evenodd"/><path stroke="#000000" stroke-width="1.0" stroke-linejoin="round" stroke-linecap="butt" d="m525.8307 101.526245l0 0c0 2.162033 -6.0670776 3.9147034 -13.551147 3.9147034c-7.484131 0 -13.5512085 -1.7526703 -13.5512085 -3.9147034" fill-rule="evenodd"/><path stroke="#000000" stroke-width="1.0" stroke-linejoin="round" stroke-linecap="butt" d="m498.72833 101.526245l0 0c0 -2.1620255 6.0670776 -3.9146957 13.5512085 -3.9146957c7.48407 0 13.551147 1.7526703 13.551147 3.9146957l0 15.658791c0 2.162033 -6.0670776 3.9147034 -13.551147 3.9147034c-7.484131 0 -13.5512085 -1.7526703 -13.5512085 -3.9147034z" fill-rule="evenodd"/></g><g filter="url(#shadowFilter-p.14)"><use xlink:href="#p.14" transform="matrix(1.0 0.0 0.0 1.0 0.0 2.0)"/></g><defs><filter id="shadowFilter-p.14" filterUnits="userSpaceOnUse"><feGaussianBlur in="SourceAlpha" stdDeviation="2.0" result="blur"/><feComponentTransfer in="blur" color-interpolation-filters="sRGB"><feFuncR type="linear" slope="0" intercept="0.0"/><feFuncG type="linear" slope="0" intercept="0.0"/><feFuncB type="linear" slope="0" intercept="0.0"/><feFuncA type="linear" slope="0.5" intercept="0"/></feComponentTransfer></filter></defs><g id="p.14"><path fill="#cfe2f3" d="m219.03543 101.526245l0 0c0 -2.1620255 6.0670776 -3.9146957 13.551178 -3.9146957c7.4841156 0 13.551193 1.7526703 13.551193 3.9146957l0 15.658791c0 2.162033 -6.0670776 3.9147034 -13.551193 3.9147034c-7.4841003 0 -13.551178 -1.7526703 -13.551178 -3.9147034z" fill-rule="evenodd"/><path fill="#000000" fill-opacity="0.0" d="m246.1378 101.526245l0 0c0 2.162033 -6.0670776 3.9147034 -13.551193 3.9147034c-7.4841003 0 -13.551178 -1.7526703 -13.551178 -3.9147034" fill-rule="evenodd"/><path fill="#000000" fill-opacity="0.0" d="m219.03543 101.526245l0 0c0 -2.1620255 6.0670776 -3.9146957 13.551178 -3.9146957c7.4841156 0 13.551193 1.7526703 13.551193 3.9146957l0 15.658791c0 2.162033 -6.0670776 3.9147034 -13.551193 3.9147034c-7.4841003 0 -13.551178 -1.7526703 -13.551178 -3.9147034z" fill-rule="evenodd"/><path stroke="#000000" stroke-width="1.0" stroke-linejoin="round" stroke-linecap="butt" d="m246.1378 101.526245l0 0c0 2.162033 -6.0670776 3.9147034 -13.551193 3.9147034c-7.4841003 0 -13.551178 -1.7526703 -13.551178 -3.9147034" fill-rule="evenodd"/><path stroke="#000000" stroke-width="1.0" stroke-linejoin="round" stroke-linecap="butt" d="m219.03543 101.526245l0 0c0 -2.1620255 6.0670776 -3.9146957 13.551178 -3.9146957c7.4841156 0 13.551193 1.7526703 13.551193 3.9146957l0 15.658791c0 2.162033 -6.0670776 3.9147034 -13.551193 3.9147034c-7.4841003 0 -13.551178 -1.7526703 -13.551178 -3.9147034z" fill-rule="evenodd"/></g><g filter="url(#shadowFilter-p.15)"><use xlink:href="#p.15" transform="matrix(1.0 0.0 0.0 1.0 0.0 2.0)"/></g><defs><filter id="shadowFilter-p.15" filterUnits="userSpaceOnUse"><feGaussianBlur in="SourceAlpha" stdDeviation="2.0" result="blur"/><feComponentTransfer in="blur" color-interpolation-filters="sRGB"><feFuncR type="linear" slope="0" intercept="0.0"/><feFuncG type="linear" slope="0" intercept="0.0"/><feFuncB type="linear" slope="0" intercept="0.0"/><feFuncA type="linear" slope="0.5" intercept="0"/></feComponentTransfer></filter></defs><g id="p.15"><path fill="#cfe2f3" d="m195.54724 125.014435l0 0c0 -2.1620255 6.0670776 -3.9146957 13.551178 -3.9146957c7.4841156 0 13.551193 1.7526703 13.551193 3.9146957l0 15.658798c0 2.1620178 -6.0670776 3.914688 -13.551193 3.914688c-7.4841003 0 -13.551178 -1.7526703 -13.551178 -3.914688z" fill-rule="evenodd"/><path fill="#000000" fill-opacity="0.0" d="m222.64961 125.014435l0 0c0 2.1620255 -6.0670776 3.9147034 -13.551193 3.9147034c-7.4841003 0 -13.551178 -1.7526779 -13.551178 -3.9147034" fill-rule="evenodd"/><path fill="#000000" fill-opacity="0.0" d="m195.54724 125.014435l0 0c0 -2.1620255 6.0670776 -3.9146957 13.551178 -3.9146957c7.4841156 0 13.551193 1.7526703 13.551193 3.9146957l0 15.658798c0 2.1620178 -6.0670776 3.914688 -13.551193 3.914688c-7.4841003 0 -13.551178 -1.7526703 -13.551178 -3.914688z" fill-rule="evenodd"/><path stroke="#000000" stroke-width="1.0" stroke-linejoin="round" stroke-linecap="butt" d="m222.64961 125.014435l0 0c0 2.1620255 -6.0670776 3.9147034 -13.551193 3.9147034c-7.4841003 0 -13.551178 -1.7526779 -13.551178 -3.9147034" fill-rule="evenodd"/><path stroke="#000000" stroke-width="1.0" stroke-linejoin="round" stroke-linecap="butt" d="m195.54724 125.014435l0 0c0 -2.1620255 6.0670776 -3.9146957 13.551178 -3.9146957c7.4841156 0 13.551193 1.7526703 13.551193 3.9146957l0 15.658798c0 2.1620178 -6.0670776 3.914688 -13.551193 3.914688c-7.4841003 0 -13.551178 -1.7526703 -13.551178 -3.914688z" fill-rule="evenodd"/></g><g filter="url(#shadowFilter-p.16)"><use xlink:href="#p.16" transform="matrix(1.0 0.0 0.0 1.0 0.0 2.0)"/></g><defs><filter id="shadowFilter-p.16" filterUnits="userSpaceOnUse"><feGaussianBlur in="SourceAlpha" stdDeviation="2.0" result="blur"/><feComponentTransfer in="blur" color-interpolation-filters="sRGB"><feFuncR type="linear" slope="0" intercept="0.0"/><feFuncG type="linear" slope="0" intercept="0.0"/><feFuncB type="linear" slope="0" intercept="0.0"/><feFuncA type="linear" slope="0.5" intercept="0"/></feComponentTransfer></filter></defs><g id="p.16"><path fill="#cfe2f3" d="m275.33728 125.014435l0 0c0 -2.1620255 6.067047 -3.9146957 13.551178 -3.9146957c7.4841003 0 13.551178 1.7526703 13.551178 3.9146957l0 15.658798c0 2.1620178 -6.0670776 3.914688 -13.551178 3.914688c-7.484131 0 -13.551178 -1.7526703 -13.551178 -3.914688z" fill-rule="evenodd"/><path fill="#000000" fill-opacity="0.0" d="m302.43964 125.014435l0 0c0 2.1620255 -6.0670776 3.9147034 -13.551178 3.9147034c-7.484131 0 -13.551178 -1.7526779 -13.551178 -3.9147034" fill-rule="evenodd"/><path fill="#000000" fill-opacity="0.0" d="m275.33728 125.014435l0 0c0 -2.1620255 6.067047 -3.9146957 13.551178 -3.9146957c7.4841003 0 13.551178 1.7526703 13.551178 3.9146957l0 15.658798c0 2.1620178 -6.0670776 3.914688 -13.551178 3.914688c-7.484131 0 -13.551178 -1.7526703 -13.551178 -3.914688z" fill-rule="evenodd"/><path stroke="#000000" stroke-width="1.0" stroke-linejoin="round" stroke-linecap="butt" d="m302.43964 125.014435l0 0c0 2.1620255 -6.0670776 3.9147034 -13.551178 3.9147034c-7.484131 0 -13.551178 -1.7526779 -13.551178 -3.9147034" fill-rule="evenodd"/><path stroke="#000000" stroke-width="1.0" stroke-linejoin="round" stroke-linecap="butt" d="m275.33728 125.014435l0 0c0 -2.1620255 6.067047 -3.9146957 13.551178 -3.9146957c7.4841003 0 13.551178 1.7526703 13.551178 3.9146957l0 15.658798c0 2.1620178 -6.0670776 3.914688 -13.551178 3.914688c-7.484131 0 -13.551178 -1.7526703 -13.551178 -3.914688z" fill-rule="evenodd"/></g><g filter="url(#shadowFilter-p.17)"><use xlink:href="#p.17" transform="matrix(1.0 0.0 0.0 1.0 0.0 2.0)"/></g><defs><filter id="shadowFilter-p.17" filterUnits="userSpaceOnUse"><feGaussianBlur in="SourceAlpha" stdDeviation="2.0" result="blur"/><feComponentTransfer in="blur" color-interpolation-filters="sRGB"><feFuncR type="linear" slope="0" intercept="0.0"/><feFuncG type="linear" slope="0" intercept="0.0"/><feFuncB type="linear" slope="0" intercept="0.0"/><feFuncA type="linear" slope="0.5" intercept="0"/></feComponentTransfer></filter></defs><g id="p.17"><path fill="#cfe2f3" d="m298.82547 101.526245l0 0c0 -2.1620255 6.067047 -3.9146957 13.551178 -3.9146957c7.4841003 0 13.551178 1.7526703 13.551178 3.9146957l0 15.658791c0 2.162033 -6.0670776 3.9147034 -13.551178 3.9147034c-7.484131 0 -13.551178 -1.7526703 -13.551178 -3.9147034z" fill-rule="evenodd"/><path fill="#000000" fill-opacity="0.0" d="m325.92783 101.526245l0 0c0 2.162033 -6.0670776 3.9147034 -13.551178 3.9147034c-7.484131 0 -13.551178 -1.7526703 -13.551178 -3.9147034" fill-rule="evenodd"/><path fill="#000000" fill-opacity="0.0" d="m298.82547 101.526245l0 0c0 -2.1620255 6.067047 -3.9146957 13.551178 -3.9146957c7.4841003 0 13.551178 1.7526703 13.551178 3.9146957l0 15.658791c0 2.162033 -6.0670776 3.9147034 -13.551178 3.9147034c-7.484131 0 -13.551178 -1.7526703 -13.551178 -3.9147034z" fill-rule="evenodd"/><path stroke="#000000" stroke-width="1.0" stroke-linejoin="round" stroke-linecap="butt" d="m325.92783 101.526245l0 0c0 2.162033 -6.0670776 3.9147034 -13.551178 3.9147034c-7.484131 0 -13.551178 -1.7526703 -13.551178 -3.9147034" fill-rule="evenodd"/><path stroke="#000000" stroke-width="1.0" stroke-linejoin="round" stroke-linecap="butt" d="m298.82547 101.526245l0 0c0 -2.1620255 6.067047 -3.9146957 13.551178 -3.9146957c7.4841003 0 13.551178 1.7526703 13.551178 3.9146957l0 15.658791c0 2.162033 -6.0670776 3.9147034 -13.551178 3.9147034c-7.484131 0 -13.551178 -1.7526703 -13.551178 -3.9147034z" fill-rule="evenodd"/></g><g filter="url(#shadowFilter-p.18)"><use xlink:href="#p.18" transform="matrix(1.0 0.0 0.0 1.0 0.0 2.0)"/></g><defs><filter id="shadowFilter-p.18" filterUnits="userSpaceOnUse"><feGaussianBlur in="SourceAlpha" stdDeviation="2.0" result="blur"/><feComponentTransfer in="blur" color-interpolation-filters="sRGB"><feFuncR type="linear" slope="0" intercept="0.0"/><feFuncG type="linear" slope="0" intercept="0.0"/><feFuncB type="linear" slope="0" intercept="0.0"/><feFuncA type="linear" slope="0.5" intercept="0"/></feComponentTransfer></filter></defs><g id="p.18"><path fill="#d9d2e9" d="m329.5748 109.682l200.54636 0l0 43.349495l-200.54636 0z" fill-rule="evenodd"/><path fill="#ada7ba" d="m530.12115 109.682l55.107178 -55.107197l0 43.3495l-55.107178 55.107193z" fill-rule="evenodd"/><path fill="#e0dbed" d="m329.5748 109.682l55.10721 -55.107197l200.54633 0l-55.107178 55.107197z" fill-rule="evenodd"/><path fill="#000000" fill-opacity="0.0" d="m329.5748 109.682l55.10721 -55.107197l200.54633 0l0 43.3495l-55.107178 55.107193l-200.54636 0zm0 0l200.54636 0l55.107178 -55.107197m-55.107178 55.107197l0 43.349495" fill-rule="evenodd"/><path stroke="#000000" stroke-width="1.0" stroke-linejoin="round" stroke-linecap="butt" d="m329.5748 109.682l55.10721 -55.107197l200.54633 0l0 43.3495l-55.107178 55.107193l-200.54636 0zm0 0l200.54636 0l55.107178 -55.107197m-55.107178 55.107197l0 43.349495" fill-rule="evenodd"/></g><g filter="url(#shadowFilter-p.19)"><use xlink:href="#p.19" transform="matrix(1.0 0.0 0.0 1.0 0.0 2.0)"/></g><defs><filter id="shadowFilter-p.19" filterUnits="userSpaceOnUse"><feGaussianBlur in="SourceAlpha" stdDeviation="2.0" result="blur"/><feComponentTransfer in="blur" color-interpolation-filters="sRGB"><feFuncR type="linear" slope="0" intercept="0.0"/><feFuncG type="linear" slope="0" intercept="0.0"/><feFuncB type="linear" slope="0" intercept="0.0"/><feFuncA type="linear" slope="0.5" intercept="0"/></feComponentTransfer></filter></defs><g id="p.19"><path fill="#d9d2e9" d="m418.10236 58.489502l0 0c0 -2.1620293 6.0670776 -3.9146996 13.551178 -3.9146996c7.484131 0 13.551178 1.7526703 13.551178 3.9146996l0 15.658791c0 2.162033 -6.067047 3.9147034 -13.551178 3.9147034c-7.4841003 0 -13.551178 -1.7526703 -13.551178 -3.9147034z" fill-rule="evenodd"/><path fill="#000000" fill-opacity="0.0" d="m445.2047 58.489502l0 0c0 2.1620293 -6.067047 3.9146957 -13.551178 3.9146957c-7.4841003 0 -13.551178 -1.7526665 -13.551178 -3.9146957" fill-rule="evenodd"/><path fill="#000000" fill-opacity="0.0" d="m418.10236 58.489502l0 0c0 -2.1620293 6.0670776 -3.9146996 13.551178 -3.9146996c7.484131 0 13.551178 1.7526703 13.551178 3.9146996l0 15.658791c0 2.162033 -6.067047 3.9147034 -13.551178 3.9147034c-7.4841003 0 -13.551178 -1.7526703 -13.551178 -3.9147034z" fill-rule="evenodd"/><path stroke="#000000" stroke-width="1.0" stroke-linejoin="round" stroke-linecap="butt" d="m445.2047 58.489502l0 0c0 2.1620293 -6.067047 3.9146957 -13.551178 3.9146957c-7.4841003 0 -13.551178 -1.7526665 -13.551178 -3.9146957" fill-rule="evenodd"/><path stroke="#000000" stroke-width="1.0" stroke-linejoin="round" stroke-linecap="butt" d="m418.10236 58.489502l0 0c0 -2.1620293 6.0670776 -3.9146996 13.551178 -3.9146996c7.484131 0 13.551178 1.7526703 13.551178 3.9146996l0 15.658791c0 2.162033 -6.067047 3.9147034 -13.551178 3.9147034c-7.4841003 0 -13.551178 -1.7526703 -13.551178 -3.9147034z" fill-rule="evenodd"/></g><g filter="url(#shadowFilter-p.20)"><use xlink:href="#p.20" transform="matrix(1.0 0.0 0.0 1.0 0.0 2.0)"/></g><defs><filter id="shadowFilter-p.20" filterUnits="userSpaceOnUse"><feGaussianBlur in="SourceAlpha" stdDeviation="2.0" result="blur"/><feComponentTransfer in="blur" color-interpolation-filters="sRGB"><feFuncR type="linear" slope="0" intercept="0.0"/><feFuncG type="linear" slope="0" intercept="0.0"/><feFuncB type="linear" slope="0" intercept="0.0"/><feFuncA type="linear" slope="0.5" intercept="0"/></feComponentTransfer></filter></defs><g id="p.20"><path fill="#d9d2e9" d="m394.61417 81.97769l0 0c0 -2.162033 6.0670776 -3.9146957 13.551178 -3.9146957c7.484131 0 13.551178 1.7526627 13.551178 3.9146957l0 15.658791c0 2.1620255 -6.067047 3.9146957 -13.551178 3.9146957c-7.4841003 0 -13.551178 -1.7526703 -13.551178 -3.9146957z" fill-rule="evenodd"/><path fill="#000000" fill-opacity="0.0" d="m421.71652 81.97769l0 0c0 2.1620255 -6.067047 3.9146957 -13.551178 3.9146957c-7.4841003 0 -13.551178 -1.7526703 -13.551178 -3.9146957" fill-rule="evenodd"/><path fill="#000000" fill-opacity="0.0" d="m394.61417 81.97769l0 0c0 -2.162033 6.0670776 -3.9146957 13.551178 -3.9146957c7.484131 0 13.551178 1.7526627 13.551178 3.9146957l0 15.658791c0 2.1620255 -6.067047 3.9146957 -13.551178 3.9146957c-7.4841003 0 -13.551178 -1.7526703 -13.551178 -3.9146957z" fill-rule="evenodd"/><path stroke="#000000" stroke-width="1.0" stroke-linejoin="round" stroke-linecap="butt" d="m421.71652 81.97769l0 0c0 2.1620255 -6.067047 3.9146957 -13.551178 3.9146957c-7.4841003 0 -13.551178 -1.7526703 -13.551178 -3.9146957" fill-rule="evenodd"/><path stroke="#000000" stroke-width="1.0" stroke-linejoin="round" stroke-linecap="butt" d="m394.61417 81.97769l0 0c0 -2.162033 6.0670776 -3.9146957 13.551178 -3.9146957c7.484131 0 13.551178 1.7526627 13.551178 3.9146957l0 15.658791c0 2.1620255 -6.067047 3.9146957 -13.551178 3.9146957c-7.4841003 0 -13.551178 -1.7526703 -13.551178 -3.9146957z" fill-rule="evenodd"/></g><g filter="url(#shadowFilter-p.21)"><use xlink:href="#p.21" transform="matrix(1.0 0.0 0.0 1.0 0.0 2.0)"/></g><defs><filter id="shadowFilter-p.21" filterUnits="userSpaceOnUse"><feGaussianBlur in="SourceAlpha" stdDeviation="2.0" result="blur"/><feComponentTransfer in="blur" color-interpolation-filters="sRGB"><feFuncR type="linear" slope="0" intercept="0.0"/><feFuncG type="linear" slope="0" intercept="0.0"/><feFuncB type="linear" slope="0" intercept="0.0"/><feFuncA type="linear" slope="0.5" intercept="0"/></feComponentTransfer></filter></defs><g id="p.21"><path fill="#d9d2e9" d="m474.4042 81.97769l0 0c0 -2.162033 6.0670776 -3.9146957 13.551178 -3.9146957c7.4841003 0 13.551178 1.7526627 13.551178 3.9146957l0 15.658791c0 2.1620255 -6.0670776 3.9146957 -13.551178 3.9146957c-7.4841003 0 -13.551178 -1.7526703 -13.551178 -3.9146957z" fill-rule="evenodd"/><path fill="#000000" fill-opacity="0.0" d="m501.50656 81.97769l0 0c0 2.1620255 -6.0670776 3.9146957 -13.551178 3.9146957c-7.4841003 0 -13.551178 -1.7526703 -13.551178 -3.9146957" fill-rule="evenodd"/><path fill="#000000" fill-opacity="0.0" d="m474.4042 81.97769l0 0c0 -2.162033 6.0670776 -3.9146957 13.551178 -3.9146957c7.4841003 0 13.551178 1.7526627 13.551178 3.9146957l0 15.658791c0 2.1620255 -6.0670776 3.9146957 -13.551178 3.9146957c-7.4841003 0 -13.551178 -1.7526703 -13.551178 -3.9146957z" fill-rule="evenodd"/><path stroke="#000000" stroke-width="1.0" stroke-linejoin="round" stroke-linecap="butt" d="m501.50656 81.97769l0 0c0 2.1620255 -6.0670776 3.9146957 -13.551178 3.9146957c-7.4841003 0 -13.551178 -1.7526703 -13.551178 -3.9146957" fill-rule="evenodd"/><path stroke="#000000" stroke-width="1.0" stroke-linejoin="round" stroke-linecap="butt" d="m474.4042 81.97769l0 0c0 -2.162033 6.0670776 -3.9146957 13.551178 -3.9146957c7.4841003 0 13.551178 1.7526627 13.551178 3.9146957l0 15.658791c0 2.1620255 -6.0670776 3.9146957 -13.551178 3.9146957c-7.4841003 0 -13.551178 -1.7526703 -13.551178 -3.9146957z" fill-rule="evenodd"/></g><g filter="url(#shadowFilter-p.22)"><use xlink:href="#p.22" transform="matrix(1.0 0.0 0.0 1.0 0.0 2.0)"/></g><defs><filter id="shadowFilter-p.22" filterUnits="userSpaceOnUse"><feGaussianBlur in="SourceAlpha" stdDeviation="2.0" result="blur"/><feComponentTransfer in="blur" color-interpolation-filters="sRGB"><feFuncR type="linear" slope="0" intercept="0.0"/><feFuncG type="linear" slope="0" intercept="0.0"/><feFuncB type="linear" slope="0" intercept="0.0"/><feFuncA type="linear" slope="0.5" intercept="0"/></feComponentTransfer></filter></defs><g id="p.22"><path fill="#d9d2e9" d="m497.8924 58.489502l0 0c0 -2.1620293 6.0670776 -3.9146996 13.551178 -3.9146996c7.4841003 0 13.551178 1.7526703 13.551178 3.9146996l0 15.658791c0 2.162033 -6.0670776 3.9147034 -13.551178 3.9147034c-7.4841003 0 -13.551178 -1.7526703 -13.551178 -3.9147034z" fill-rule="evenodd"/><path fill="#000000" fill-opacity="0.0" d="m524.99475 58.489502l0 0c0 2.1620293 -6.0670776 3.9146957 -13.551178 3.9146957c-7.4841003 0 -13.551178 -1.7526665 -13.551178 -3.9146957" fill-rule="evenodd"/><path fill="#000000" fill-opacity="0.0" d="m497.8924 58.489502l0 0c0 -2.1620293 6.0670776 -3.9146996 13.551178 -3.9146996c7.4841003 0 13.551178 1.7526703 13.551178 3.9146996l0 15.658791c0 2.162033 -6.0670776 3.9147034 -13.551178 3.9147034c-7.4841003 0 -13.551178 -1.7526703 -13.551178 -3.9147034z" fill-rule="evenodd"/><path stroke="#000000" stroke-width="1.0" stroke-linejoin="round" stroke-linecap="butt" d="m524.99475 58.489502l0 0c0 2.1620293 -6.0670776 3.9146957 -13.551178 3.9146957c-7.4841003 0 -13.551178 -1.7526665 -13.551178 -3.9146957" fill-rule="evenodd"/><path stroke="#000000" stroke-width="1.0" stroke-linejoin="round" stroke-linecap="butt" d="m497.8924 58.489502l0 0c0 -2.1620293 6.0670776 -3.9146996 13.551178 -3.9146996c7.4841003 0 13.551178 1.7526703 13.551178 3.9146996l0 15.658791c0 2.162033 -6.0670776 3.9147034 -13.551178 3.9147034c-7.4841003 0 -13.551178 -1.7526703 -13.551178 -3.9147034z" fill-rule="evenodd"/></g><path fill="#f4cccc" d="m74.75853 164.33554l200.54634 0l0 43.349503l-200.54634 0z" fill-rule="evenodd"/><path fill="#c3a3a3" d="m275.30487 164.33554l55.10721 -55.107193l0 43.349503l-55.10721 55.107193z" fill-rule="evenodd"/><path fill="#f6d6d6" d="m74.75853 164.33554l55.107193 -55.107193l200.54636 0l-55.10721 55.107193z" fill-rule="evenodd"/><path fill="#000000" fill-opacity="0.0" d="m74.75853 164.33554l55.107193 -55.107193l200.54636 0l0 43.349503l-55.10721 55.107193l-200.54634 0zm0 0l200.54634 0l55.10721 -55.107193m-55.10721 55.107193l0 43.349503" fill-rule="evenodd"/><path stroke="#000000" stroke-width="1.0" stroke-linejoin="round" stroke-linecap="butt" d="m74.75853 164.33554l55.107193 -55.107193l200.54636 0l0 43.349503l-55.10721 55.107193l-200.54634 0zm0 0l200.54634 0l55.10721 -55.107193m-55.10721 55.107193l0 43.349503" fill-rule="evenodd"/><path fill="#000000" d="m84.336655 190.03966l1.625 -0.25q0.125 0.96875 0.75 1.5q0.625 0.515625 1.75 0.515625q1.125 0 1.671875 -0.453125q0.546875 -0.46875 0.546875 -1.09375q0 -0.546875 -0.484375 -0.875q-0.328125 -0.21875 -1.671875 -0.546875q-1.8125 -0.46875 -2.515625 -0.796875q-0.6875 -0.328125 -1.046875 -0.90625q-0.359375 -0.59375 -0.359375 -1.3125q0 -0.640625 0.296875 -1.1875q0.296875 -0.5625 0.8125 -0.921875q0.375 -0.28125 1.03125 -0.46875q0.671875 -0.203125 1.421875 -0.203125q1.140625 0 2.0 0.328125q0.859375 0.328125 1.265625 0.890625q0.421875 0.5625 0.578125 1.5l-1.609375 0.21875q-0.109375 -0.75 -0.640625 -1.171875q-0.515625 -0.421875 -1.46875 -0.421875q-1.140625 0 -1.625 0.375q-0.46875 0.375 -0.46875 0.875q0 0.3125 0.1875 0.578125q0.203125 0.265625 0.640625 0.4375q0.234375 0.09375 1.4375 0.421875q1.75 0.453125 2.4375 0.75q0.6875 0.296875 1.078125 0.859375q0.390625 0.5625 0.390625 1.40625q0 0.828125 -0.484375 1.546875q-0.46875 0.71875 -1.375 1.125q-0.90625 0.390625 -2.046875 0.390625q-1.875 0 -2.875 -0.78125q-0.984375 -0.78125 -1.25 -2.328125zm16.296875 1.703125q-0.921875 0.765625 -1.765625 1.09375q-0.828125 0.3125 -1.796875 0.3125q-1.59375 0 -2.453125 -0.78125q-0.859375 -0.78125 -0.859375 -1.984375q0 -0.71875 0.328125 -1.296875q0.328125 -0.59375 0.84375 -0.9375q0.53125 -0.359375 1.1875 -0.546875q0.46875 -0.125 1.453125 -0.25q1.984375 -0.234375 2.921875 -0.5625q0.015625 -0.34375 0.015625 -0.421875q0 -1.0 -0.46875 -1.421875q-0.625 -0.546875 -1.875 -0.546875q-1.15625 0 -1.703125 0.40625q-0.546875 0.40625 -0.8125 1.421875l-1.609375 -0.21875q0.21875 -1.015625 0.71875 -1.640625q0.5 -0.640625 1.453125 -0.984375q0.953125 -0.34375 2.1875 -0.34375q1.25 0 2.015625 0.296875q0.78125 0.28125 1.140625 0.734375q0.375 0.4375 0.515625 1.109375q0.078125 0.421875 0.078125 1.515625l0 2.1875q0 2.28125 0.109375 2.890625q0.109375 0.59375 0.40625 1.15625l-1.703125 0q-0.265625 -0.515625 -0.328125 -1.1875zm-0.140625 -3.671875q-0.890625 0.375 -2.671875 0.625q-1.015625 0.140625 -1.4375 0.328125q-0.421875 0.1875 -0.65625 0.53125q-0.21875 0.34375 -0.21875 0.78125q0 0.65625 0.5 1.09375q0.5 0.4375 1.453125 0.4375q0.9375 0 1.671875 -0.40625q0.75 -0.421875 1.09375 -1.140625q0.265625 -0.5625 0.265625 -1.640625l0 -0.609375zm10.516342 1.3125l1.609375 0.21875q-0.265625 1.65625 -1.359375 2.609375q-1.078125 0.9375 -2.671875 0.9375q-1.984375 0 -3.1875 -1.296875q-1.203125 -1.296875 -1.203125 -3.71875q0 -1.578125 0.515625 -2.75q0.515625 -1.171875 1.578125 -1.75q1.0625 -0.59375 2.3125 -0.59375q1.578125 0 2.578125 0.796875q1.0 0.796875 1.28125 2.265625l-1.59375 0.234375q-0.234375 -0.96875 -0.8125 -1.453125q-0.578125 -0.5 -1.390625 -0.5q-1.234375 0 -2.015625 0.890625q-0.78125 0.890625 -0.78125 2.8125q0 1.953125 0.75 2.84375q0.75 0.875 1.953125 0.875q0.96875 0 1.609375 -0.59375q0.65625 -0.59375 0.828125 -1.828125z" fill-rule="nonzero"/><path fill="#f4cccc" d="m163.28609 113.14304l0 0c0 -2.1620255 6.0670776 -3.9146957 13.551178 -3.9146957c7.4841156 0 13.551193 1.7526703 13.551193 3.9146957l0 15.658791c0 2.162033 -6.0670776 3.9147034 -13.551193 3.9147034c-7.4841003 0 -13.551178 -1.7526703 -13.551178 -3.9147034z" fill-rule="evenodd"/><path fill="#000000" fill-opacity="0.0" d="m190.38846 113.14304l0 0c0 2.1620255 -6.0670776 3.9146957 -13.551193 3.9146957c-7.4841003 0 -13.551178 -1.7526703 -13.551178 -3.9146957" fill-rule="evenodd"/><path fill="#000000" fill-opacity="0.0" d="m163.28609 113.14304l0 0c0 -2.1620255 6.0670776 -3.9146957 13.551178 -3.9146957c7.4841156 0 13.551193 1.7526703 13.551193 3.9146957l0 15.658791c0 2.162033 -6.0670776 3.9147034 -13.551193 3.9147034c-7.4841003 0 -13.551178 -1.7526703 -13.551178 -3.9147034z" fill-rule="evenodd"/><path stroke="#000000" stroke-width="1.0" stroke-linejoin="round" stroke-linecap="butt" d="m190.38846 113.14304l0 0c0 2.1620255 -6.0670776 3.9146957 -13.551193 3.9146957c-7.4841003 0 -13.551178 -1.7526703 -13.551178 -3.9146957" fill-rule="evenodd"/><path stroke="#000000" stroke-width="1.0" stroke-linejoin="round" stroke-linecap="butt" d="m163.28609 113.14304l0 0c0 -2.1620255 6.0670776 -3.9146957 13.551178 -3.9146957c7.4841156 0 13.551193 1.7526703 13.551193 3.9146957l0 15.658791c0 2.162033 -6.0670776 3.9147034 -13.551193 3.9147034c-7.4841003 0 -13.551178 -1.7526703 -13.551178 -3.9147034z" fill-rule="evenodd"/><path fill="#f4cccc" d="m139.7979 136.63124l0 0c0 -2.162033 6.0670776 -3.9147034 13.551178 -3.9147034c7.4841156 0 13.551193 1.7526703 13.551193 3.9147034l0 15.658783c0 2.162033 -6.0670776 3.9147034 -13.551193 3.9147034c-7.4841003 0 -13.551178 -1.7526703 -13.551178 -3.9147034z" fill-rule="evenodd"/><path fill="#000000" fill-opacity="0.0" d="m166.90027 136.63124l0 0c0 2.1620178 -6.0670776 3.914688 -13.551193 3.914688c-7.4841003 0 -13.551178 -1.7526703 -13.551178 -3.914688" fill-rule="evenodd"/><path fill="#000000" fill-opacity="0.0" d="m139.7979 136.63124l0 0c0 -2.162033 6.0670776 -3.9147034 13.551178 -3.9147034c7.4841156 0 13.551193 1.7526703 13.551193 3.9147034l0 15.658783c0 2.162033 -6.0670776 3.9147034 -13.551193 3.9147034c-7.4841003 0 -13.551178 -1.7526703 -13.551178 -3.9147034z" fill-rule="evenodd"/><path stroke="#000000" stroke-width="1.0" stroke-linejoin="round" stroke-linecap="butt" d="m166.90027 136.63124l0 0c0 2.1620178 -6.0670776 3.914688 -13.551193 3.914688c-7.4841003 0 -13.551178 -1.7526703 -13.551178 -3.914688" fill-rule="evenodd"/><path stroke="#000000" stroke-width="1.0" stroke-linejoin="round" stroke-linecap="butt" d="m139.7979 136.63124l0 0c0 -2.162033 6.0670776 -3.9147034 13.551178 -3.9147034c7.4841156 0 13.551193 1.7526703 13.551193 3.9147034l0 15.658783c0 2.162033 -6.0670776 3.9147034 -13.551193 3.9147034c-7.4841003 0 -13.551178 -1.7526703 -13.551178 -3.9147034z" fill-rule="evenodd"/><path fill="#f4cccc" d="m219.58792 136.63124l0 0c0 -2.162033 6.0670776 -3.9147034 13.551193 -3.9147034c7.4841003 0 13.551178 1.7526703 13.551178 3.9147034l0 15.658783c0 2.162033 -6.0670776 3.9147034 -13.551178 3.9147034c-7.4841156 0 -13.551193 -1.7526703 -13.551193 -3.9147034z" fill-rule="evenodd"/><path fill="#000000" fill-opacity="0.0" d="m246.69029 136.63124l0 0c0 2.1620178 -6.0670776 3.914688 -13.551178 3.914688c-7.4841156 0 -13.551193 -1.7526703 -13.551193 -3.914688" fill-rule="evenodd"/><path fill="#000000" fill-opacity="0.0" d="m219.58792 136.63124l0 0c0 -2.162033 6.0670776 -3.9147034 13.551193 -3.9147034c7.4841003 0 13.551178 1.7526703 13.551178 3.9147034l0 15.658783c0 2.162033 -6.0670776 3.9147034 -13.551178 3.9147034c-7.4841156 0 -13.551193 -1.7526703 -13.551193 -3.9147034z" fill-rule="evenodd"/><path stroke="#000000" stroke-width="1.0" stroke-linejoin="round" stroke-linecap="butt" d="m246.69029 136.63124l0 0c0 2.1620178 -6.0670776 3.914688 -13.551178 3.914688c-7.4841156 0 -13.551193 -1.7526703 -13.551193 -3.914688" fill-rule="evenodd"/><path stroke="#000000" stroke-width="1.0" stroke-linejoin="round" stroke-linecap="butt" d="m219.58792 136.63124l0 0c0 -2.162033 6.0670776 -3.9147034 13.551193 -3.9147034c7.4841003 0 13.551178 1.7526703 13.551178 3.9147034l0 15.658783c0 2.162033 -6.0670776 3.9147034 -13.551178 3.9147034c-7.4841156 0 -13.551193 -1.7526703 -13.551193 -3.9147034z" fill-rule="evenodd"/><path fill="#f4cccc" d="m243.07611 113.14304l0 0c0 -2.1620255 6.0670776 -3.9146957 13.551178 -3.9146957c7.484131 0 13.551178 1.7526703 13.551178 3.9146957l0 15.658791c0 2.162033 -6.067047 3.9147034 -13.551178 3.9147034c-7.4841003 0 -13.551178 -1.7526703 -13.551178 -3.9147034z" fill-rule="evenodd"/><path fill="#000000" fill-opacity="0.0" d="m270.17847 113.14304l0 0c0 2.1620255 -6.067047 3.9146957 -13.551178 3.9146957c-7.4841003 0 -13.551178 -1.7526703 -13.551178 -3.9146957" fill-rule="evenodd"/><path fill="#000000" fill-opacity="0.0" d="m243.07611 113.14304l0 0c0 -2.1620255 6.0670776 -3.9146957 13.551178 -3.9146957c7.484131 0 13.551178 1.7526703 13.551178 3.9146957l0 15.658791c0 2.162033 -6.067047 3.9147034 -13.551178 3.9147034c-7.4841003 0 -13.551178 -1.7526703 -13.551178 -3.9147034z" fill-rule="evenodd"/><path stroke="#000000" stroke-width="1.0" stroke-linejoin="round" stroke-linecap="butt" d="m270.17847 113.14304l0 0c0 2.1620255 -6.067047 3.9146957 -13.551178 3.9146957c-7.4841003 0 -13.551178 -1.7526703 -13.551178 -3.9146957" fill-rule="evenodd"/><path stroke="#000000" stroke-width="1.0" stroke-linejoin="round" stroke-linecap="butt" d="m243.07611 113.14304l0 0c0 -2.1620255 6.0670776 -3.9146957 13.551178 -3.9146957c7.484131 0 13.551178 1.7526703 13.551178 3.9146957l0 15.658791c0 2.162033 -6.067047 3.9147034 -13.551178 3.9147034c-7.4841003 0 -13.551178 -1.7526703 -13.551178 -3.9147034z" fill-rule="evenodd"/><g filter="url(#shadowFilter-p.23)"><use xlink:href="#p.23" transform="matrix(1.0 0.0 0.0 1.0 0.0 2.0)"/></g><defs><filter id="shadowFilter-p.23" filterUnits="userSpaceOnUse"><feGaussianBlur in="SourceAlpha" stdDeviation="2.0" result="blur"/><feComponentTransfer in="blur" color-interpolation-filters="sRGB"><feFuncR type="linear" slope="0" intercept="0.0"/><feFuncG type="linear" slope="0" intercept="0.0"/><feFuncB type="linear" slope="0" intercept="0.0"/><feFuncA type="linear" slope="0.5" intercept="0"/></feComponentTransfer></filter></defs><g id="p.23"><path fill="#b6d7a8" d="m274.82022 164.33554l200.54633 0l0 43.349503l-200.54633 0z" fill-rule="evenodd"/><path fill="#91ab86" d="m475.36655 164.33554l55.10721 -55.107193l0 43.349503l-55.10721 55.107193z" fill-rule="evenodd"/><path fill="#c4dfb9" d="m274.82022 164.33554l55.107178 -55.107193l200.54636 0l-55.10721 55.107193z" fill-rule="evenodd"/><path fill="#000000" fill-opacity="0.0" d="m274.82022 164.33554l55.107178 -55.107193l200.54636 0l0 43.349503l-55.10721 55.107193l-200.54633 0zm0 0l200.54633 0l55.10721 -55.107193m-55.10721 55.107193l0 43.349503" fill-rule="evenodd"/><path stroke="#000000" stroke-width="1.0" stroke-linejoin="round" stroke-linecap="butt" d="m274.82022 164.33554l55.107178 -55.107193l200.54636 0l0 43.349503l-55.10721 55.107193l-200.54633 0zm0 0l200.54633 0l55.10721 -55.107193m-55.10721 55.107193l0 43.349503" fill-rule="evenodd"/><path fill="#000000" d="m285.00772 192.93028l0 -13.359375l1.640625 0l0 13.359375l-1.640625 0zm10.519806 0l0 -1.421875q-1.125 1.640625 -3.0625 1.640625q-0.859375 0 -1.609375 -0.328125q-0.734375 -0.328125 -1.09375 -0.828125q-0.359375 -0.5 -0.5 -1.21875q-0.109375 -0.46875 -0.109375 -1.53125l0 -5.984375l1.640625 0l0 5.359375q0 1.28125 0.109375 1.734375q0.15625 0.640625 0.65625 1.015625q0.5 0.375 1.234375 0.375q0.734375 0 1.375 -0.375q0.65625 -0.390625 0.921875 -1.03125q0.265625 -0.65625 0.265625 -1.890625l0 -5.1875l1.640625 0l0 9.671875l-1.46875 0zm4.0476074 0l0 -9.671875l1.46875 0l0 1.375q1.0625 -1.59375 3.078125 -1.59375q0.875 0 1.609375 0.3125q0.734375 0.3125 1.09375 0.828125q0.375 0.5 0.515625 1.203125q0.09375 0.453125 0.09375 1.59375l0 5.953125l-1.640625 0l0 -5.890625q0 -1.0 -0.203125 -1.484375q-0.1875 -0.5 -0.671875 -0.796875q-0.484375 -0.296875 -1.140625 -0.296875q-1.046875 0 -1.8125 0.671875q-0.75 0.65625 -0.75 2.515625l0 5.28125l-1.640625 0zm16.688202 -1.1875q-0.921875 0.765625 -1.765625 1.09375q-0.828125 0.3125 -1.796875 0.3125q-1.59375 0 -2.453125 -0.78125q-0.859375 -0.78125 -0.859375 -1.984375q0 -0.71875 0.328125 -1.296875q0.328125 -0.59375 0.84375 -0.9375q0.53125 -0.359375 1.1875 -0.546875q0.46875 -0.125 1.453125 -0.25q1.984375 -0.234375 2.921875 -0.5625q0.015625 -0.34375 0.015625 -0.421875q0 -1.0 -0.46875 -1.421875q-0.625 -0.546875 -1.875 -0.546875q-1.15625 0 -1.703125 0.40625q-0.546875 0.40625 -0.8125 1.421875l-1.609375 -0.21875q0.21875 -1.015625 0.71875 -1.640625q0.5 -0.640625 1.453125 -0.984375q0.953125 -0.34375 2.1875 -0.34375q1.25 0 2.015625 0.296875q0.78125 0.28125 1.140625 0.734375q0.375 0.4375 0.515625 1.109375q0.078125 0.421875 0.078125 1.515625l0 2.1875q0 2.28125 0.109375 2.890625q0.109375 0.59375 0.40625 1.15625l-1.703125 0q-0.265625 -0.515625 -0.328125 -1.1875zm-0.140625 -3.671875q-0.890625 0.375 -2.671875 0.625q-1.015625 0.140625 -1.4375 0.328125q-0.421875 0.1875 -0.65625 0.53125q-0.21875 0.34375 -0.21875 0.78125q0 0.65625 0.5 1.09375q0.5 0.4375 1.453125 0.4375q0.9375 0 1.671875 -0.40625q0.75 -0.421875 1.09375 -1.140625q0.265625 -0.5625 0.265625 -1.640625l0 -0.609375zm4.1882324 4.859375l0 -9.671875l1.46875 0l0 1.46875q0.5625 -1.03125 1.03125 -1.359375q0.484375 -0.328125 1.0625 -0.328125q0.828125 0 1.6875 0.53125l-0.5625 1.515625q-0.609375 -0.359375 -1.203125 -0.359375q-0.546875 0 -0.96875 0.328125q-0.421875 0.328125 -0.609375 0.890625q-0.28125 0.875 -0.28125 1.921875l0 5.0625l-1.625 0zm6.181427 0l0 -13.359375l1.640625 0l0 13.359375l-1.640625 0zm10.504181 -1.1875q-0.921875 0.765625 -1.765625 1.09375q-0.828125 0.3125 -1.796875 0.3125q-1.59375 0 -2.453125 -0.78125q-0.859375 -0.78125 -0.859375 -1.984375q0 -0.71875 0.328125 -1.296875q0.328125 -0.59375 0.84375 -0.9375q0.53125 -0.359375 1.1875 -0.546875q0.46875 -0.125 1.453125 -0.25q1.984375 -0.234375 2.921875 -0.5625q0.015625 -0.34375 0.015625 -0.421875q0 -1.0 -0.46875 -1.421875q-0.625 -0.546875 -1.875 -0.546875q-1.15625 0 -1.703125 0.40625q-0.546875 0.40625 -0.8125 1.421875l-1.609375 -0.21875q0.21875 -1.015625 0.71875 -1.640625q0.5 -0.640625 1.453125 -0.984375q0.953125 -0.34375 2.1875 -0.34375q1.25 0 2.015625 0.296875q0.78125 0.28125 1.140625 0.734375q0.375 0.4375 0.515625 1.109375q0.078125 0.421875 0.078125 1.515625l0 2.1875q0 2.28125 0.109375 2.890625q0.109375 0.59375 0.40625 1.15625l-1.703125 0q-0.265625 -0.515625 -0.328125 -1.1875zm-0.140625 -3.671875q-0.890625 0.375 -2.671875 0.625q-1.015625 0.140625 -1.4375 0.328125q-0.421875 0.1875 -0.65625 0.53125q-0.21875 0.34375 -0.21875 0.78125q0 0.65625 0.5 1.09375q0.5 0.4375 1.453125 0.4375q0.9375 0 1.671875 -0.40625q0.75 -0.421875 1.09375 -1.140625q0.265625 -0.5625 0.265625 -1.640625l0 -0.609375zm4.2038574 4.859375l0 -9.671875l1.46875 0l0 1.375q1.0625 -1.59375 3.078125 -1.59375q0.875 0 1.609375 0.3125q0.734375 0.3125 1.09375 0.828125q0.375 0.5 0.515625 1.203125q0.09375 0.453125 0.09375 1.59375l0 5.953125l-1.640625 0l0 -5.890625q0 -1.0 -0.203125 -1.484375q-0.1875 -0.5 -0.671875 -0.796875q-0.484375 -0.296875 -1.140625 -0.296875q-1.046875 0 -1.8125 0.671875q-0.75 0.65625 -0.75 2.515625l0 5.28125l-1.640625 0zm16.641327 0l0 -1.21875q-0.90625 1.4375 -2.703125 1.4375q-1.15625 0 -2.125 -0.640625q-0.96875 -0.640625 -1.5 -1.78125q-0.53125 -1.140625 -0.53125 -2.625q0 -1.453125 0.484375 -2.625q0.484375 -1.1875 1.4375 -1.8125q0.96875 -0.625 2.171875 -0.625q0.875 0 1.546875 0.375q0.6875 0.359375 1.109375 0.953125l0 -4.796875l1.640625 0l0 13.359375l-1.53125 0zm-5.171875 -4.828125q0 1.859375 0.78125 2.78125q0.78125 0.921875 1.84375 0.921875q1.078125 0 1.828125 -0.875q0.75 -0.890625 0.75 -2.6875q0 -1.984375 -0.765625 -2.90625q-0.765625 -0.9375 -1.890625 -0.9375q-1.078125 0 -1.8125 0.890625q-0.734375 0.890625 -0.734375 2.8125zm15.906982 1.71875l1.6875 0.203125q-0.40625 1.484375 -1.484375 2.3125q-1.078125 0.8125 -2.765625 0.8125q-2.125 0 -3.375 -1.296875q-1.234375 -1.3125 -1.234375 -3.671875q0 -2.453125 1.25 -3.796875q1.265625 -1.34375 3.265625 -1.34375q1.9375 0 3.15625 1.328125q1.234375 1.3125 1.234375 3.703125q0 0.15625 0 0.4375l-7.21875 0q0.09375 1.59375 0.90625 2.453125q0.8125 0.84375 2.015625 0.84375q0.90625 0 1.546875 -0.46875q0.640625 -0.484375 1.015625 -1.515625zm-5.390625 -2.65625l5.40625 0q-0.109375 -1.21875 -0.625 -1.828125q-0.78125 -0.953125 -2.03125 -0.953125q-1.125 0 -1.90625 0.765625q-0.765625 0.75 -0.84375 2.015625zm9.125702 5.765625l0 -9.671875l1.46875 0l0 1.46875q0.5625 -1.03125 1.03125 -1.359375q0.484375 -0.328125 1.0625 -0.328125q0.828125 0 1.6875 0.53125l-0.5625 1.515625q-0.609375 -0.359375 -1.203125 -0.359375q-0.546875 0 -0.96875 0.328125q-0.421875 0.328125 -0.609375 0.890625q-0.28125 0.875 -0.28125 1.921875l0 5.0625l-1.625 0z" fill-rule="nonzero"/></g><g filter="url(#shadowFilter-p.24)"><use xlink:href="#p.24" transform="matrix(1.0 0.0 0.0 1.0 0.0 2.0)"/></g><defs><filter id="shadowFilter-p.24" filterUnits="userSpaceOnUse"><feGaussianBlur in="SourceAlpha" stdDeviation="2.0" result="blur"/><feComponentTransfer in="blur" color-interpolation-filters="sRGB"><feFuncR type="linear" slope="0" intercept="0.0"/><feFuncG type="linear" slope="0" intercept="0.0"/><feFuncB type="linear" slope="0" intercept="0.0"/><feFuncA type="linear" slope="0.5" intercept="0"/></feComponentTransfer></filter></defs><g id="p.24"><path fill="#b6d7a8" d="m363.34778 113.14304l0 0c0 -2.1620255 6.067047 -3.9146957 13.551178 -3.9146957c7.4841003 0 13.551178 1.7526703 13.551178 3.9146957l0 15.658791c0 2.162033 -6.0670776 3.9147034 -13.551178 3.9147034c-7.484131 0 -13.551178 -1.7526703 -13.551178 -3.9147034z" fill-rule="evenodd"/><path fill="#000000" fill-opacity="0.0" d="m390.45013 113.14304l0 0c0 2.1620255 -6.0670776 3.9146957 -13.551178 3.9146957c-7.484131 0 -13.551178 -1.7526703 -13.551178 -3.9146957" fill-rule="evenodd"/><path fill="#000000" fill-opacity="0.0" d="m363.34778 113.14304l0 0c0 -2.1620255 6.067047 -3.9146957 13.551178 -3.9146957c7.4841003 0 13.551178 1.7526703 13.551178 3.9146957l0 15.658791c0 2.162033 -6.0670776 3.9147034 -13.551178 3.9147034c-7.484131 0 -13.551178 -1.7526703 -13.551178 -3.9147034z" fill-rule="evenodd"/><path stroke="#000000" stroke-width="1.0" stroke-linejoin="round" stroke-linecap="butt" d="m390.45013 113.14304l0 0c0 2.1620255 -6.0670776 3.9146957 -13.551178 3.9146957c-7.484131 0 -13.551178 -1.7526703 -13.551178 -3.9146957" fill-rule="evenodd"/><path stroke="#000000" stroke-width="1.0" stroke-linejoin="round" stroke-linecap="butt" d="m363.34778 113.14304l0 0c0 -2.1620255 6.067047 -3.9146957 13.551178 -3.9146957c7.4841003 0 13.551178 1.7526703 13.551178 3.9146957l0 15.658791c0 2.162033 -6.0670776 3.9147034 -13.551178 3.9147034c-7.484131 0 -13.551178 -1.7526703 -13.551178 -3.9147034z" fill-rule="evenodd"/></g><g filter="url(#shadowFilter-p.25)"><use xlink:href="#p.25" transform="matrix(1.0 0.0 0.0 1.0 0.0 2.0)"/></g><defs><filter id="shadowFilter-p.25" filterUnits="userSpaceOnUse"><feGaussianBlur in="SourceAlpha" stdDeviation="2.0" result="blur"/><feComponentTransfer in="blur" color-interpolation-filters="sRGB"><feFuncR type="linear" slope="0" intercept="0.0"/><feFuncG type="linear" slope="0" intercept="0.0"/><feFuncB type="linear" slope="0" intercept="0.0"/><feFuncA type="linear" slope="0.5" intercept="0"/></feComponentTransfer></filter></defs><g id="p.25"><path fill="#b6d7a8" d="m339.8596 136.63124l0 0c0 -2.162033 6.067047 -3.9147034 13.551178 -3.9147034c7.4841003 0 13.551178 1.7526703 13.551178 3.9147034l0 15.658783c0 2.162033 -6.0670776 3.9147034 -13.551178 3.9147034c-7.484131 0 -13.551178 -1.7526703 -13.551178 -3.9147034z" fill-rule="evenodd"/><path fill="#000000" fill-opacity="0.0" d="m366.96194 136.63124l0 0c0 2.1620178 -6.0670776 3.914688 -13.551178 3.914688c-7.484131 0 -13.551178 -1.7526703 -13.551178 -3.914688" fill-rule="evenodd"/><path fill="#000000" fill-opacity="0.0" d="m339.8596 136.63124l0 0c0 -2.162033 6.067047 -3.9147034 13.551178 -3.9147034c7.4841003 0 13.551178 1.7526703 13.551178 3.9147034l0 15.658783c0 2.162033 -6.0670776 3.9147034 -13.551178 3.9147034c-7.484131 0 -13.551178 -1.7526703 -13.551178 -3.9147034z" fill-rule="evenodd"/><path stroke="#000000" stroke-width="1.0" stroke-linejoin="round" stroke-linecap="butt" d="m366.96194 136.63124l0 0c0 2.1620178 -6.0670776 3.914688 -13.551178 3.914688c-7.484131 0 -13.551178 -1.7526703 -13.551178 -3.914688" fill-rule="evenodd"/><path stroke="#000000" stroke-width="1.0" stroke-linejoin="round" stroke-linecap="butt" d="m339.8596 136.63124l0 0c0 -2.162033 6.067047 -3.9147034 13.551178 -3.9147034c7.4841003 0 13.551178 1.7526703 13.551178 3.9147034l0 15.658783c0 2.162033 -6.0670776 3.9147034 -13.551178 3.9147034c-7.484131 0 -13.551178 -1.7526703 -13.551178 -3.9147034z" fill-rule="evenodd"/></g><g filter="url(#shadowFilter-p.26)"><use xlink:href="#p.26" transform="matrix(1.0 0.0 0.0 1.0 0.0 2.0)"/></g><defs><filter id="shadowFilter-p.26" filterUnits="userSpaceOnUse"><feGaussianBlur in="SourceAlpha" stdDeviation="2.0" result="blur"/><feComponentTransfer in="blur" color-interpolation-filters="sRGB"><feFuncR type="linear" slope="0" intercept="0.0"/><feFuncG type="linear" slope="0" intercept="0.0"/><feFuncB type="linear" slope="0" intercept="0.0"/><feFuncA type="linear" slope="0.5" intercept="0"/></feComponentTransfer></filter></defs><g id="p.26"><path fill="#b6d7a8" d="m419.6496 136.63124l0 0c0 -2.162033 6.0670776 -3.9147034 13.551178 -3.9147034c7.484131 0 13.5512085 1.7526703 13.5512085 3.9147034l0 15.658783c0 2.162033 -6.0670776 3.9147034 -13.5512085 3.9147034c-7.4841003 0 -13.551178 -1.7526703 -13.551178 -3.9147034z" fill-rule="evenodd"/><path fill="#000000" fill-opacity="0.0" d="m446.75198 136.63124l0 0c0 2.1620178 -6.0670776 3.914688 -13.5512085 3.914688c-7.4841003 0 -13.551178 -1.7526703 -13.551178 -3.914688" fill-rule="evenodd"/><path fill="#000000" fill-opacity="0.0" d="m419.6496 136.63124l0 0c0 -2.162033 6.0670776 -3.9147034 13.551178 -3.9147034c7.484131 0 13.5512085 1.7526703 13.5512085 3.9147034l0 15.658783c0 2.162033 -6.0670776 3.9147034 -13.5512085 3.9147034c-7.4841003 0 -13.551178 -1.7526703 -13.551178 -3.9147034z" fill-rule="evenodd"/><path stroke="#000000" stroke-width="1.0" stroke-linejoin="round" stroke-linecap="butt" d="m446.75198 136.63124l0 0c0 2.1620178 -6.0670776 3.914688 -13.5512085 3.914688c-7.4841003 0 -13.551178 -1.7526703 -13.551178 -3.914688" fill-rule="evenodd"/><path stroke="#000000" stroke-width="1.0" stroke-linejoin="round" stroke-linecap="butt" d="m419.6496 136.63124l0 0c0 -2.162033 6.0670776 -3.9147034 13.551178 -3.9147034c7.484131 0 13.5512085 1.7526703 13.5512085 3.9147034l0 15.658783c0 2.162033 -6.0670776 3.9147034 -13.5512085 3.9147034c-7.4841003 0 -13.551178 -1.7526703 -13.551178 -3.9147034z" fill-rule="evenodd"/></g><g filter="url(#shadowFilter-p.27)"><use xlink:href="#p.27" transform="matrix(1.0 0.0 0.0 1.0 0.0 2.0)"/></g><defs><filter id="shadowFilter-p.27" filterUnits="userSpaceOnUse"><feGaussianBlur in="SourceAlpha" stdDeviation="2.0" result="blur"/><feComponentTransfer in="blur" color-interpolation-filters="sRGB"><feFuncR type="linear" slope="0" intercept="0.0"/><feFuncG type="linear" slope="0" intercept="0.0"/><feFuncB type="linear" slope="0" intercept="0.0"/><feFuncA type="linear" slope="0.5" intercept="0"/></feComponentTransfer></filter></defs><g id="p.27"><path fill="#b6d7a8" d="m443.1378 113.14304l0 0c0 -2.1620255 6.0670776 -3.9146957 13.551178 -3.9146957c7.484131 0 13.551178 1.7526703 13.551178 3.9146957l0 15.658791c0 2.162033 -6.067047 3.9147034 -13.551178 3.9147034c-7.4841003 0 -13.551178 -1.7526703 -13.551178 -3.9147034z" fill-rule="evenodd"/><path fill="#000000" fill-opacity="0.0" d="m470.24014 113.14304l0 0c0 2.1620255 -6.067047 3.9146957 -13.551178 3.9146957c-7.4841003 0 -13.551178 -1.7526703 -13.551178 -3.9146957" fill-rule="evenodd"/><path fill="#000000" fill-opacity="0.0" d="m443.1378 113.14304l0 0c0 -2.1620255 6.0670776 -3.9146957 13.551178 -3.9146957c7.484131 0 13.551178 1.7526703 13.551178 3.9146957l0 15.658791c0 2.162033 -6.067047 3.9147034 -13.551178 3.9147034c-7.4841003 0 -13.551178 -1.7526703 -13.551178 -3.9147034z" fill-rule="evenodd"/><path stroke="#000000" stroke-width="1.0" stroke-linejoin="round" stroke-linecap="butt" d="m470.24014 113.14304l0 0c0 2.1620255 -6.067047 3.9146957 -13.551178 3.9146957c-7.4841003 0 -13.551178 -1.7526703 -13.551178 -3.9146957" fill-rule="evenodd"/><path stroke="#000000" stroke-width="1.0" stroke-linejoin="round" stroke-linecap="butt" d="m443.1378 113.14304l0 0c0 -2.1620255 6.0670776 -3.9146957 13.551178 -3.9146957c7.484131 0 13.551178 1.7526703 13.551178 3.9146957l0 15.658791c0 2.162033 -6.067047 3.9147034 -13.551178 3.9147034c-7.4841003 0 -13.551178 -1.7526703 -13.551178 -3.9147034z" fill-rule="evenodd"/></g></g></svg>