<svg version="1.1" viewBox="0.0 0.0 567.511811023622 238.11023622047244" fill="none" stroke="none" stroke-linecap="square" stroke-miterlimit="10" xmlns:xlink="http://www.w3.org/1999/xlink" xmlns="http://www.w3.org/2000/svg"><clipPath id="p.0"><path d="m0 0l567.51184 0l0 238.11023l-567.51184 0l0 -238.11023z" clip-rule="nonzero"/></clipPath><g clip-path="url(#p.0)"><path fill="#000000" fill-opacity="0.0" d="m0 0l567.51184 0l0 238.11023l-567.51184 0z" fill-rule="evenodd"/><path fill="#d9d2e9" d="m25.934383 72.39591l200.54634 0l0 43.349495l-200.54634 0z" fill-rule="evenodd"/><path fill="#ada7ba" d="m226.48073 72.39591l55.107193 -55.1072l0 43.349495l-55.107193 55.107197z" fill-rule="evenodd"/><path fill="#e0dbed" d="m25.934383 72.39591l55.107197 -55.1072l200.54634 0l-55.107193 55.1072z" fill-rule="evenodd"/><path fill="#000000" fill-opacity="0.0" d="m25.934383 72.39591l55.107197 -55.1072l200.54634 0l0 43.349495l-55.107193 55.107197l-200.54634 0zm0 0l200.54634 0l55.107193 -55.1072m-55.107193 55.1072l0 43.349495" fill-rule="evenodd"/><path stroke="#000000" stroke-width="1.0" stroke-linejoin="round" stroke-linecap="butt" d="m25.934383 72.39591l55.107197 -55.1072l200.54634 0l0 43.349495l-55.107193 55.107197l-200.54634 0zm0 0l200.54634 0l55.107193 -55.1072m-55.107193 55.1072l0 43.349495" fill-rule="evenodd"/><path fill="#000000" d="m44.65491 100.990654l0 -9.671875l1.46875 0l0 1.375q1.0625 -1.59375 3.078125 -1.59375q0.875 0 1.609375 0.3125q0.734375 0.3125 1.09375 0.828125q0.375 0.5 0.515625 1.203125q0.09375 0.453125 0.09375 1.59375l0 5.953125l-1.640625 0l0 -5.890625q0 -1.0 -0.203125 -1.484375q-0.1875 -0.5 -0.671875 -0.796875q-0.484375 -0.296875 -1.140625 -0.296875q-1.046875 0 -1.8125 0.671875q-0.75 0.65625 -0.75 2.515625l0 5.28125l-1.640625 0zm9.766342 -4.84375q0 -2.6875 1.484375 -3.96875q1.25 -1.078125 3.046875 -1.078125q2.0 0 3.265625 1.3125q1.265625 1.296875 1.265625 3.609375q0 1.859375 -0.5625 2.9375q-0.5625 1.0625 -1.640625 1.65625q-1.0625 0.59375 -2.328125 0.59375q-2.03125 0 -3.28125 -1.296875q-1.25 -1.3125 -1.25 -3.765625zm1.6875 0q0 1.859375 0.796875 2.796875q0.8125 0.921875 2.046875 0.921875q1.21875 0 2.03125 -0.921875q0.8125 -0.9375 0.8125 -2.84375q0 -1.796875 -0.8125 -2.71875q-0.8125 -0.921875 -2.03125 -0.921875q-1.234375 0 -2.046875 0.921875q-0.796875 0.90625 -0.796875 2.765625zm9.281963 4.84375l0 -9.671875l1.46875 0l0 1.46875q0.5625 -1.03125 1.03125 -1.359375q0.484375 -0.328125 1.0625 -0.328125q0.828125 0 1.6875 0.53125l-0.5625 1.515625q-0.609375 -0.359375 -1.203125 -0.359375q-0.546875 0 -0.96875 0.328125q-0.421875 0.328125 -0.609375 0.890625q-0.28125 0.875 -0.28125 1.921875l0 5.0625l-1.625 0zm6.228302 0l0 -9.671875l1.46875 0l0 1.359375q0.453125 -0.71875 1.203125 -1.140625q0.765625 -0.4375 1.71875 -0.4375q1.078125 0 1.765625 0.453125q0.6875 0.4375 0.96875 1.234375q1.15625 -1.6875 2.984375 -1.6875q1.453125 0 2.21875 0.796875q0.78125 0.796875 0.78125 2.453125l0 6.640625l-1.640625 0l0 -6.09375q0 -0.984375 -0.15625 -1.40625q-0.15625 -0.4375 -0.578125 -0.703125q-0.421875 -0.265625 -0.984375 -0.265625q-1.015625 0 -1.6875 0.6875q-0.671875 0.671875 -0.671875 2.15625l0 5.625l-1.640625 0l0 -6.28125q0 -1.09375 -0.40625 -1.640625q-0.40625 -0.546875 -1.3125 -0.546875q-0.6875 0 -1.28125 0.359375q-0.59375 0.359375 -0.859375 1.0625q-0.25 0.703125 -0.25 2.03125l0 5.015625l-1.640625 0zm21.853302 -1.1875q-0.921875 0.765625 -1.765625 1.09375q-0.828125 0.3125 -1.796875 0.3125q-1.59375 0 -2.453125 -0.78125q-0.859375 -0.78125 -0.859375 -1.984375q0 -0.71875 0.328125 -1.296875q0.328125 -0.59375 0.84375 -0.9375q0.53125 -0.359375 1.1875 -0.546875q0.46875 -0.125 1.453125 -0.25q1.984375 -0.234375 2.921875 -0.5625q0.015625 -0.34375 0.015625 -0.421875q0 -1.0 -0.46875 -1.421875q-0.625 -0.546875 -1.875 -0.546875q-1.15625 0 -1.703125 0.40625q-0.546875 0.40625 -0.8125 1.421875l-1.609375 -0.21875q0.21875 -1.015625 0.71875 -1.640625q0.5 -0.640625 1.453125 -0.984375q0.953125 -0.34375 2.1875 -0.34375q1.25 0 2.015625 0.296875q0.78125 0.28125 1.140625 0.734375q0.375 0.4375 0.515625 1.109375q0.078125 0.421875 0.078125 1.515625l0 2.1875q0 2.28125 0.109375 2.890625q0.109375 0.59375 0.40625 1.15625l-1.703125 0q-0.265625 -0.515625 -0.328125 -1.1875zm-0.140625 -3.671875q-0.890625 0.375 -2.671875 0.625q-1.015625 0.140625 -1.4375 0.328125q-0.421875 0.1875 -0.65625 0.53125q-0.21875 0.34375 -0.21875 0.78125q0 0.65625 0.5 1.09375q0.5 0.4375 1.453125 0.4375q0.9375 0 1.671875 -0.40625q0.75 -0.421875 1.09375 -1.140625q0.265625 -0.5625 0.265625 -1.640625l0 -0.609375zm4.156967 4.859375l0 -13.359375l1.640625 0l0 13.359375l-1.640625 0zm9.359375 0l0 -9.671875l1.46875 0l0 1.46875q0.5625 -1.03125 1.03125 -1.359375q0.484375 -0.328125 1.0625 -0.328125q0.828125 0 1.6875 0.53125l-0.5625 1.515625q-0.609375 -0.359375 -1.203125 -0.359375q-0.546875 0 -0.96875 0.328125q-0.421875 0.328125 -0.609375 0.890625q-0.28125 0.875 -0.28125 1.921875l0 5.0625l-1.625 0zm12.853302 -3.109375l1.6875 0.203125q-0.40625 1.484375 -1.484375 2.3125q-1.078125 0.8125 -2.765625 0.8125q-2.125 0 -3.375 -1.296875q-1.234375 -1.3125 -1.234375 -3.671875q0 -2.453125 1.25 -3.796875q1.265625 -1.34375 3.265625 -1.34375q1.9375 0 3.15625 1.328125q1.234375 1.3125 1.234375 3.703125q0 0.15625 0 0.4375l-7.21875 0q0.09375 1.59375 0.90625 2.453125q0.8125 0.84375 2.015625 0.84375q0.90625 0 1.546875 -0.46875q0.640625 -0.484375 1.015625 -1.515625zm-5.390625 -2.65625l5.40625 0q-0.109375 -1.21875 -0.625 -1.828125q-0.78125 -0.953125 -2.03125 -0.953125q-1.125 0 -1.90625 0.765625q-0.765625 0.75 -0.84375 2.015625zm9.141342 9.46875l0 -13.375l1.484375 0l0 1.25q0.53125 -0.734375 1.1875 -1.09375q0.671875 -0.375 1.625 -0.375q1.234375 0 2.171875 0.640625q0.953125 0.625 1.4375 1.796875q0.484375 1.15625 0.484375 2.546875q0 1.484375 -0.53125 2.671875q-0.53125 1.1875 -1.546875 1.828125q-1.015625 0.625 -2.140625 0.625q-0.8125 0 -1.46875 -0.34375q-0.65625 -0.34375 -1.0625 -0.875l0 4.703125l-1.640625 0zm1.484375 -8.484375q0 1.859375 0.75 2.765625q0.765625 0.890625 1.828125 0.890625q1.09375 0 1.875 -0.921875q0.78125 -0.9375 0.78125 -2.875q0 -1.84375 -0.765625 -2.765625q-0.75 -0.921875 -1.8125 -0.921875q-1.046875 0 -1.859375 0.984375q-0.796875 0.96875 -0.796875 2.84375zm8.844467 4.78125l0 -13.359375l1.640625 0l0 13.359375l-1.640625 0zm10.504196 -1.1875q-0.921875 0.765625 -1.765625 1.09375q-0.828125 0.3125 -1.796875 0.3125q-1.59375 0 -2.453125 -0.78125q-0.859375 -0.78125 -0.859375 -1.984375q0 -0.71875 0.328125 -1.296875q0.328125 -0.59375 0.84375 -0.9375q0.53125 -0.359375 1.1875 -0.546875q0.46875 -0.125 1.453125 -0.25q1.984375 -0.234375 2.921875 -0.5625q0.015625 -0.34375 0.015625 -0.421875q0 -1.0 -0.46875 -1.421875q-0.625 -0.546875 -1.875 -0.546875q-1.15625 0 -1.703125 0.40625q-0.546875 0.40625 -0.8125 1.421875l-1.609375 -0.21875q0.21875 -1.015625 0.71875 -1.640625q0.5 -0.640625 1.453125 -0.984375q0.953125 -0.34375 2.1875 -0.34375q1.25 0 2.015625 0.296875q0.78125 0.28125 1.140625 0.734375q0.375 0.4375 0.515625 1.109375q0.078125 0.421875 0.078125 1.515625l0 2.1875q0 2.28125 0.109375 2.890625q0.109375 0.59375 0.40625 1.15625l-1.703125 0q-0.265625 -0.515625 -0.328125 -1.1875zm-0.140625 -3.671875q-0.890625 0.375 -2.671875 0.625q-1.015625 0.140625 -1.4375 0.328125q-0.421875 0.1875 -0.65625 0.53125q-0.21875 0.34375 -0.21875 0.78125q0 0.65625 0.5 1.09375q0.5 0.4375 1.453125 0.4375q0.9375 0 1.671875 -0.40625q0.75 -0.421875 1.09375 -1.140625q0.265625 -0.5625 0.265625 -1.640625l0 -0.609375zm4.125717 8.578125l-0.1875 -1.53125q0.546875 0.140625 0.9375 0.140625q0.546875 0 0.875 -0.1875q0.328125 -0.171875 0.546875 -0.5q0.15625 -0.25 0.5 -1.21875q0.046875 -0.140625 0.140625 -0.40625l-3.671875 -9.6875l1.765625 0l2.015625 5.59375q0.390625 1.078125 0.703125 2.25q0.28125 -1.125 0.671875 -2.203125l2.0781403 -5.640625l1.640625 0l-3.6875153 9.828125q-0.59375 1.609375 -0.921875 2.203125q-0.4375 0.8125 -1.0 1.1875q-0.5625 0.375 -1.34375 0.375q-0.484375 0 -1.0625 -0.203125zm16.089554 -3.71875l-1.515625 0l0 -13.359375l1.640625 0l0 4.765625q1.046875 -1.296875 2.65625 -1.296875q0.890625 0 1.6875 0.359375q0.796875 0.359375 1.3125 1.015625q0.515625 0.640625 0.796875 1.5625q0.296875 0.921875 0.296875 1.96875q0 2.484375 -1.234375 3.84375q-1.21875 1.359375 -2.953125 1.359375q-1.703125 0 -2.6875 -1.4375l0 1.21875zm-0.015625 -4.90625q0 1.734375 0.484375 2.515625q0.765625 1.265625 2.09375 1.265625q1.078125 0 1.859375 -0.9375q0.78125 -0.9375 0.78125 -2.78125q0 -1.890625 -0.75 -2.796875q-0.75 -0.90625 -1.828125 -0.90625q-1.0625 0 -1.859375 0.9375q-0.78125 0.9375 -0.78125 2.703125zm15.219482 4.90625l0 -1.421875q-1.125 1.640625 -3.0625 1.640625q-0.859375 0 -1.609375 -0.328125q-0.734375 -0.328125 -1.09375 -0.828125q-0.359375 -0.5 -0.5 -1.21875q-0.109375 -0.46875 -0.109375 -1.53125l0 -5.984375l1.640625 0l0 5.359375q0 1.28125 0.109375 1.734375q0.15625 0.640625 0.65625 1.015625q0.5 0.375 1.234375 0.375q0.734375 0 1.375 -0.375q0.65625 -0.390625 0.921875 -1.03125q0.265625 -0.65625 0.265625 -1.890625l0 -5.1875l1.640625 0l0 9.671875l-1.46875 0zm4.438202 0l0 -8.40625l-1.453125 0l0 -1.265625l1.453125 0l0 -1.03125q0 -0.96875 0.171875 -1.453125q0.234375 -0.640625 0.828125 -1.03125q0.59375 -0.390625 1.671875 -0.390625q0.6875 0 1.53125 0.15625l-0.25 1.4375q-0.5 -0.09375 -0.953125 -0.09375q-0.75 0 -1.0625 0.328125q-0.3125 0.3125 -0.3125 1.1875l0 0.890625l1.890625 0l0 1.265625l-1.890625 0l0 8.40625l-1.625 0zm4.8460693 0l0 -8.40625l-1.453125 0l0 -1.265625l1.453125 0l0 -1.03125q0 -0.96875 0.171875 -1.453125q0.234375 -0.640625 0.828125 -1.03125q0.59375 -0.390625 1.671875 -0.390625q0.6875 0 1.53125 0.15625l-0.25 1.4375q-0.5 -0.09375 -0.953125 -0.09375q-0.75 0 -1.0625 0.328125q-0.3125 0.3125 -0.3125 1.1875l0 0.890625l1.890625 0l0 1.265625l-1.890625 0l0 8.40625l-1.625 0zm11.417694 -3.109375l1.6875 0.203125q-0.40625 1.484375 -1.484375 2.3125q-1.078125 0.8125 -2.765625 0.8125q-2.125 0 -3.375 -1.296875q-1.234375 -1.3125 -1.234375 -3.671875q0 -2.453125 1.25 -3.796875q1.265625 -1.34375 3.265625 -1.34375q1.9375 0 3.15625 1.328125q1.234375 1.3125 1.234375 3.703125q0 0.15625 0 0.4375l-7.21875 0q0.09375 1.59375 0.90625 2.453125q0.8125 0.84375 2.015625 0.84375q0.90625 0 1.546875 -0.46875q0.640625 -0.484375 1.015625 -1.515625zm-5.390625 -2.65625l5.40625 0q-0.109375 -1.21875 -0.625 -1.828125q-0.78125 -0.953125 -2.03125 -0.953125q-1.125 0 -1.90625 0.765625q-0.765625 0.75 -0.84375 2.015625zm9.125702 5.765625l0 -9.671875l1.46875 0l0 1.46875q0.5625 -1.03125 1.03125 -1.359375q0.484375 -0.328125 1.0625 -0.328125q0.828125 0 1.6875 0.53125l-0.5625 1.515625q-0.609375 -0.359375 -1.203125 -0.359375q-0.546875 0 -0.96875 0.328125q-0.421875 0.328125 -0.609375 0.890625q-0.28125 0.875 -0.28125 1.921875l0 5.0625l-1.625 0z" fill-rule="nonzero"/><path fill="#d9d2e9" d="m114.461945 21.203413l0 0c0 -2.1620293 6.06707 -3.9146996 13.551178 -3.9146996c7.4841156 0 13.551178 1.7526703 13.551178 3.9146996l0 15.6587925c0 2.1620255 -6.0670624 3.9146957 -13.551178 3.9146957c-7.484108 0 -13.551178 -1.7526703 -13.551178 -3.9146957z" fill-rule="evenodd"/><path fill="#000000" fill-opacity="0.0" d="m141.5643 21.203413l0 0c0 2.1620274 -6.0670624 3.9146976 -13.551178 3.9146976c-7.484108 0 -13.551178 -1.7526703 -13.551178 -3.9146976" fill-rule="evenodd"/><path fill="#000000" fill-opacity="0.0" d="m114.461945 21.203413l0 0c0 -2.1620293 6.06707 -3.9146996 13.551178 -3.9146996c7.4841156 0 13.551178 1.7526703 13.551178 3.9146996l0 15.6587925c0 2.1620255 -6.0670624 3.9146957 -13.551178 3.9146957c-7.484108 0 -13.551178 -1.7526703 -13.551178 -3.9146957z" fill-rule="evenodd"/><path stroke="#000000" stroke-width="1.0" stroke-linejoin="round" stroke-linecap="butt" d="m141.5643 21.203413l0 0c0 2.1620274 -6.0670624 3.9146976 -13.551178 3.9146976c-7.484108 0 -13.551178 -1.7526703 -13.551178 -3.9146976" fill-rule="evenodd"/><path stroke="#000000" stroke-width="1.0" stroke-linejoin="round" stroke-linecap="butt" d="m114.461945 21.203413l0 0c0 -2.1620293 6.06707 -3.9146996 13.551178 -3.9146996c7.4841156 0 13.551178 1.7526703 13.551178 3.9146996l0 15.6587925c0 2.1620255 -6.0670624 3.9146957 -13.551178 3.9146957c-7.484108 0 -13.551178 -1.7526703 -13.551178 -3.9146957z" fill-rule="evenodd"/><path fill="#d9d2e9" d="m90.973755 44.6916l0 0c0 -2.1620293 6.06707 -3.9146996 13.551178 -3.9146996c7.4841156 0 13.551186 1.7526703 13.551186 3.9146996l0 15.658794c0 2.1620255 -6.06707 3.9146957 -13.551186 3.9146957c-7.484108 0 -13.551178 -1.7526703 -13.551178 -3.9146957z" fill-rule="evenodd"/><path fill="#000000" fill-opacity="0.0" d="m118.07612 44.6916l0 0c0 2.1620293 -6.06707 3.9146996 -13.551186 3.9146996c-7.484108 0 -13.551178 -1.7526703 -13.551178 -3.9146996" fill-rule="evenodd"/><path fill="#000000" fill-opacity="0.0" d="m90.973755 44.6916l0 0c0 -2.1620293 6.06707 -3.9146996 13.551178 -3.9146996c7.4841156 0 13.551186 1.7526703 13.551186 3.9146996l0 15.658794c0 2.1620255 -6.06707 3.9146957 -13.551186 3.9146957c-7.484108 0 -13.551178 -1.7526703 -13.551178 -3.9146957z" fill-rule="evenodd"/><path stroke="#000000" stroke-width="1.0" stroke-linejoin="round" stroke-linecap="butt" d="m118.07612 44.6916l0 0c0 2.1620293 -6.06707 3.9146996 -13.551186 3.9146996c-7.484108 0 -13.551178 -1.7526703 -13.551178 -3.9146996" fill-rule="evenodd"/><path stroke="#000000" stroke-width="1.0" stroke-linejoin="round" stroke-linecap="butt" d="m90.973755 44.6916l0 0c0 -2.1620293 6.06707 -3.9146996 13.551178 -3.9146996c7.4841156 0 13.551186 1.7526703 13.551186 3.9146996l0 15.658794c0 2.1620255 -6.06707 3.9146957 -13.551186 3.9146957c-7.484108 0 -13.551178 -1.7526703 -13.551178 -3.9146957z" fill-rule="evenodd"/><path fill="#d9d2e9" d="m170.76378 44.6916l0 0c0 -2.1620293 6.0670776 -3.9146996 13.551178 -3.9146996c7.4841156 0 13.551178 1.7526703 13.551178 3.9146996l0 15.658794c0 2.1620255 -6.0670624 3.9146957 -13.551178 3.9146957c-7.4841003 0 -13.551178 -1.7526703 -13.551178 -3.9146957z" fill-rule="evenodd"/><path fill="#000000" fill-opacity="0.0" d="m197.86613 44.6916l0 0c0 2.1620293 -6.0670624 3.9146996 -13.551178 3.9146996c-7.4841003 0 -13.551178 -1.7526703 -13.551178 -3.9146996" fill-rule="evenodd"/><path fill="#000000" fill-opacity="0.0" d="m170.76378 44.6916l0 0c0 -2.1620293 6.0670776 -3.9146996 13.551178 -3.9146996c7.4841156 0 13.551178 1.7526703 13.551178 3.9146996l0 15.658794c0 2.1620255 -6.0670624 3.9146957 -13.551178 3.9146957c-7.4841003 0 -13.551178 -1.7526703 -13.551178 -3.9146957z" fill-rule="evenodd"/><path stroke="#000000" stroke-width="1.0" stroke-linejoin="round" stroke-linecap="butt" d="m197.86613 44.6916l0 0c0 2.1620293 -6.0670624 3.9146996 -13.551178 3.9146996c-7.4841003 0 -13.551178 -1.7526703 -13.551178 -3.9146996" fill-rule="evenodd"/><path stroke="#000000" stroke-width="1.0" stroke-linejoin="round" stroke-linecap="butt" d="m170.76378 44.6916l0 0c0 -2.1620293 6.0670776 -3.9146996 13.551178 -3.9146996c7.4841156 0 13.551178 1.7526703 13.551178 3.9146996l0 15.658794c0 2.1620255 -6.0670624 3.9146957 -13.551178 3.9146957c-7.4841003 0 -13.551178 -1.7526703 -13.551178 -3.9146957z" fill-rule="evenodd"/><path fill="#d9d2e9" d="m194.25197 21.203413l0 0c0 -2.1620293 6.0670776 -3.9146996 13.551178 -3.9146996c7.4841156 0 13.551178 1.7526703 13.551178 3.9146996l0 15.6587925c0 2.1620255 -6.0670624 3.9146957 -13.551178 3.9146957c-7.4841003 0 -13.551178 -1.7526703 -13.551178 -3.9146957z" fill-rule="evenodd"/><path fill="#000000" fill-opacity="0.0" d="m221.35432 21.203413l0 0c0 2.1620274 -6.0670624 3.9146976 -13.551178 3.9146976c-7.4841003 0 -13.551178 -1.7526703 -13.551178 -3.9146976" fill-rule="evenodd"/><path fill="#000000" fill-opacity="0.0" d="m194.25197 21.203413l0 0c0 -2.1620293 6.0670776 -3.9146996 13.551178 -3.9146996c7.4841156 0 13.551178 1.7526703 13.551178 3.9146996l0 15.6587925c0 2.1620255 -6.0670624 3.9146957 -13.551178 3.9146957c-7.4841003 0 -13.551178 -1.7526703 -13.551178 -3.9146957z" fill-rule="evenodd"/><path stroke="#000000" stroke-width="1.0" stroke-linejoin="round" stroke-linecap="butt" d="m221.35432 21.203413l0 0c0 2.1620274 -6.0670624 3.9146976 -13.551178 3.9146976c-7.4841003 0 -13.551178 -1.7526703 -13.551178 -3.9146976" fill-rule="evenodd"/><path stroke="#000000" stroke-width="1.0" stroke-linejoin="round" stroke-linecap="butt" d="m194.25197 21.203413l0 0c0 -2.1620293 6.0670776 -3.9146996 13.551178 -3.9146996c7.4841156 0 13.551178 1.7526703 13.551178 3.9146996l0 15.6587925c0 2.1620255 -6.0670624 3.9146957 -13.551178 3.9146957c-7.4841003 0 -13.551178 -1.7526703 -13.551178 -3.9146957z" fill-rule="evenodd"/><g filter="url(#shadowFilter-p.1)"><use xlink:href="#p.1" transform="matrix(1.0 0.0 0.0 1.0 0.0 2.0)"/></g><defs><filter id="shadowFilter-p.1" filterUnits="userSpaceOnUse"><feGaussianBlur in="SourceAlpha" stdDeviation="2.0" result="blur"/><feComponentTransfer in="blur" color-interpolation-filters="sRGB"><feFuncR type="linear" slope="0" intercept="0.0"/><feFuncG type="linear" slope="0" intercept="0.0"/><feFuncB type="linear" slope="0" intercept="0.0"/><feFuncA type="linear" slope="0.5" intercept="0"/></feComponentTransfer></filter></defs><g id="p.1"><path fill="#d9d2e9" d="m281.58792 72.39591l200.54636 0l0 43.349495l-200.54636 0z" fill-rule="evenodd"/><path fill="#ada7ba" d="m482.13428 72.39591l55.107178 -55.1072l0 43.349495l-55.107178 55.107197z" fill-rule="evenodd"/><path fill="#e0dbed" d="m281.58792 72.39591l55.10721 -55.1072l200.54633 0l-55.107178 55.1072z" fill-rule="evenodd"/><path fill="#000000" fill-opacity="0.0" d="m281.58792 72.39591l55.10721 -55.1072l200.54633 0l0 43.349495l-55.107178 55.107197l-200.54636 0zm0 0l200.54636 0l55.107178 -55.1072m-55.107178 55.1072l0 43.349495" fill-rule="evenodd"/><path stroke="#000000" stroke-width="1.0" stroke-linejoin="round" stroke-linecap="butt" d="m281.58792 72.39591l55.10721 -55.1072l200.54633 0l0 43.349495l-55.107178 55.107197l-200.54636 0zm0 0l200.54636 0l55.107178 -55.1072m-55.107178 55.1072l0 43.349495" fill-rule="evenodd"/><path fill="#000000" d="m293.572 104.69378l0 -13.375l1.484375 0l0 1.25q0.53125 -0.734375 1.1875 -1.09375q0.671875 -0.375 1.625 -0.375q1.234375 0 2.171875 0.640625q0.953125 0.625 1.4375 1.796875q0.484375 1.15625 0.484375 2.546875q0 1.484375 -0.53125 2.671875q-0.53125 1.1875 -1.546875 1.828125q-1.015625 0.625 -2.140625 0.625q-0.8125 0 -1.46875 -0.34375q-0.65625 -0.34375 -1.0625 -0.875l0 4.703125l-1.640625 0zm1.484375 -8.484375q0 1.859375 0.75 2.765625q0.765625 0.890625 1.828125 0.890625q1.09375 0 1.875 -0.921875q0.78125 -0.9375 0.78125 -2.875q0 -1.84375 -0.765625 -2.765625q-0.75 -0.921875 -1.8125 -0.921875q-1.046875 0 -1.859375 0.984375q-0.796875 0.96875 -0.796875 2.84375zm8.875702 4.78125l0 -9.671875l1.46875 0l0 1.46875q0.5625 -1.03125 1.03125 -1.359375q0.484375 -0.328125 1.0625 -0.328125q0.828125 0 1.6875 0.53125l-0.5625 1.515625q-0.609375 -0.359375 -1.203125 -0.359375q-0.546875 0 -0.96875 0.328125q-0.421875 0.328125 -0.609375 0.890625q-0.28125 0.875 -0.28125 1.921875l0 5.0625l-1.625 0zm6.228302 -11.46875l0 -1.890625l1.640625 0l0 1.890625l-1.640625 0zm0 11.46875l0 -9.671875l1.640625 0l0 9.671875l-1.640625 0zm3.5354614 -4.84375q0 -2.6875 1.484375 -3.96875q1.25 -1.078125 3.046875 -1.078125q2.0 0 3.265625 1.3125q1.265625 1.296875 1.265625 3.609375q0 1.859375 -0.5625 2.9375q-0.5625 1.0625 -1.640625 1.65625q-1.0625 0.59375 -2.328125 0.59375q-2.03125 0 -3.28125 -1.296875q-1.25 -1.3125 -1.25 -3.765625zm1.6875 0q0 1.859375 0.796875 2.796875q0.8125 0.921875 2.046875 0.921875q1.21875 0 2.03125 -0.921875q0.8125 -0.9375 0.8125 -2.84375q0 -1.796875 -0.8125 -2.71875q-0.8125 -0.921875 -2.03125 -0.921875q-1.234375 0 -2.046875 0.921875q-0.796875 0.90625 -0.796875 2.765625zm9.281952 4.84375l0 -9.671875l1.46875 0l0 1.46875q0.5625 -1.03125 1.03125 -1.359375q0.484375 -0.328125 1.0625 -0.328125q0.828125 0 1.6875 0.53125l-0.5625 1.515625q-0.609375 -0.359375 -1.203125 -0.359375q-0.546875 0 -0.96875 0.328125q-0.421875 0.328125 -0.609375 0.890625q-0.28125 0.875 -0.28125 1.921875l0 5.0625l-1.625 0zm6.228302 -11.46875l0 -1.890625l1.640625 0l0 1.890625l-1.640625 0zm0 11.46875l0 -9.671875l1.640625 0l0 9.671875l-1.640625 0zm7.7229614 -1.46875l0.234375 1.453125q-0.6875 0.140625 -1.234375 0.140625q-0.890625 0 -1.390625 -0.28125q-0.484375 -0.28125 -0.6875 -0.734375q-0.203125 -0.46875 -0.203125 -1.9375l0 -5.578125l-1.203125 0l0 -1.265625l1.203125 0l0 -2.390625l1.625 -0.984375l0 3.375l1.65625 0l0 1.265625l-1.65625 0l0 5.671875q0 0.6875 0.078125 0.890625q0.09375 0.203125 0.28125 0.328125q0.203125 0.109375 0.578125 0.109375q0.265625 0 0.71875 -0.0625zm1.6051636 -10.0l0 -1.890625l1.640625 0l0 1.890625l-1.640625 0zm0 11.46875l0 -9.671875l1.640625 0l0 9.671875l-1.640625 0zm3.2698364 0l0 -1.328125l6.15625 -7.078125q-1.046875 0.0625 -1.84375 0.0625l-3.9375 0l0 -1.328125l7.90625 0l0 1.078125l-5.25 6.140625l-1.0 1.125q1.09375 -0.078125 2.0625 -0.078125l4.46875 0l0 1.40625l-8.5625 0zm16.828125 -3.109375l1.6875 0.203125q-0.40625 1.484375 -1.484375 2.3125q-1.078125 0.8125 -2.765625 0.8125q-2.125 0 -3.375 -1.296875q-1.234375 -1.3125 -1.234375 -3.671875q0 -2.453125 1.25 -3.796875q1.265625 -1.34375 3.265625 -1.34375q1.9375 0 3.15625 1.328125q1.234375 1.3125 1.234375 3.703125q0 0.15625 0 0.4375l-7.21875 0q0.09375 1.59375 0.90625 2.453125q0.8125 0.84375 2.015625 0.84375q0.90625 0 1.546875 -0.46875q0.640625 -0.484375 1.015625 -1.515625zm-5.390625 -2.65625l5.40625 0q-0.109375 -1.21875 -0.625 -1.828125q-0.78125 -0.953125 -2.03125 -0.953125q-1.125 0 -1.90625 0.765625q-0.765625 0.75 -0.84375 2.015625zm14.309021 5.765625l0 -9.671875l1.46875 0l0 1.46875q0.5625 -1.03125 1.03125 -1.359375q0.484375 -0.328125 1.0625 -0.328125q0.828125 0 1.6875 0.53125l-0.5625 1.515625q-0.609375 -0.359375 -1.203125 -0.359375q-0.546875 0 -0.96875 0.328125q-0.421875 0.328125 -0.609375 0.890625q-0.28125 0.875 -0.28125 1.921875l0 5.0625l-1.625 0zm12.853302 -3.109375l1.6875 0.203125q-0.40625 1.484375 -1.484375 2.3125q-1.078125 0.8125 -2.765625 0.8125q-2.125 0 -3.375 -1.296875q-1.234375 -1.3125 -1.234375 -3.671875q0 -2.453125 1.25 -3.796875q1.265625 -1.34375 3.265625 -1.34375q1.9375 0 3.15625 1.328125q1.234375 1.3125 1.234375 3.703125q0 0.15625 0 0.4375l-7.21875 0q0.09375 1.59375 0.90625 2.453125q0.8125 0.84375 2.015625 0.84375q0.90625 0 1.546875 -0.46875q0.640625 -0.484375 1.015625 -1.515625zm-5.390625 -2.65625l5.40625 0q-0.109375 -1.21875 -0.625 -1.828125q-0.78125 -0.953125 -2.03125 -0.953125q-1.125 0 -1.90625 0.765625q-0.765625 0.75 -0.84375 2.015625zm9.141327 9.46875l0 -13.375l1.484375 0l0 1.25q0.53125 -0.734375 1.1875 -1.09375q0.671875 -0.375 1.625 -0.375q1.234375 0 2.171875 0.640625q0.953125 0.625 1.4375 1.796875q0.484375 1.15625 0.484375 2.546875q0 1.484375 -0.53125 2.671875q-0.53125 1.1875 -1.546875 1.828125q-1.015625 0.625 -2.140625 0.625q-0.8125 0 -1.46875 -0.34375q-0.65625 -0.34375 -1.0625 -0.875l0 4.703125l-1.640625 0zm1.484375 -8.484375q0 1.859375 0.75 2.765625q0.765625 0.890625 1.828125 0.890625q1.09375 0 1.875 -0.921875q0.78125 -0.9375 0.78125 -2.875q0 -1.84375 -0.765625 -2.765625q-0.75 -0.921875 -1.8125 -0.921875q-1.046875 0 -1.859375 0.984375q-0.796875 0.96875 -0.796875 2.84375zm8.844482 4.78125l0 -13.359375l1.640625 0l0 13.359375l-1.640625 0zm10.504181 -1.1875q-0.921875 0.765625 -1.765625 1.09375q-0.828125 0.3125 -1.796875 0.3125q-1.59375 0 -2.453125 -0.78125q-0.859375 -0.78125 -0.859375 -1.984375q0 -0.71875 0.328125 -1.296875q0.328125 -0.59375 0.84375 -0.9375q0.53125 -0.359375 1.1875 -0.546875q0.46875 -0.125 1.453125 -0.25q1.984375 -0.234375 2.921875 -0.5625q0.015625 -0.34375 0.015625 -0.421875q0 -1.0 -0.46875 -1.421875q-0.625 -0.546875 -1.875 -0.546875q-1.15625 0 -1.703125 0.40625q-0.546875 0.40625 -0.8125 1.421875l-1.609375 -0.21875q0.21875 -1.015625 0.71875 -1.640625q0.5 -0.640625 1.453125 -0.984375q0.953125 -0.34375 2.1875 -0.34375q1.25 0 2.015625 0.296875q0.78125 0.28125 1.140625 0.734375q0.375 0.4375 0.515625 1.109375q0.078125 0.421875 0.078125 1.515625l0 2.1875q0 2.28125 0.109375 2.890625q0.109375 0.59375 0.40625 1.15625l-1.703125 0q-0.265625 -0.515625 -0.328125 -1.1875zm-0.140625 -3.671875q-0.890625 0.375 -2.671875 0.625q-1.015625 0.140625 -1.4375 0.328125q-0.421875 0.1875 -0.65625 0.53125q-0.21875 0.34375 -0.21875 0.78125q0 0.65625 0.5 1.09375q0.5 0.4375 1.453125 0.4375q0.9375 0 1.671875 -0.40625q0.75 -0.421875 1.09375 -1.140625q0.265625 -0.5625 0.265625 -1.640625l0 -0.609375zm4.1257324 8.578125l-0.1875 -1.53125q0.546875 0.140625 0.9375 0.140625q0.546875 0 0.875 -0.1875q0.328125 -0.171875 0.546875 -0.5q0.15625 -0.25 0.5 -1.21875q0.046875 -0.140625 0.140625 -0.40625l-3.671875 -9.6875l1.765625 0l2.015625 5.59375q0.390625 1.078125 0.703125 2.25q0.28125 -1.125 0.671875 -2.203125l2.078125 -5.640625l1.640625 0l-3.6875 9.828125q-0.59375 1.609375 -0.921875 2.203125q-0.4375 0.8125 -1.0 1.1875q-0.5625 0.375 -1.34375 0.375q-0.484375 0 -1.0625 -0.203125zm16.089539 -3.71875l-1.515625 0l0 -13.359375l1.640625 0l0 4.765625q1.046875 -1.296875 2.65625 -1.296875q0.890625 0 1.6875 0.359375q0.796875 0.359375 1.3125 1.015625q0.515625 0.640625 0.796875 1.5625q0.296875 0.921875 0.296875 1.96875q0 2.484375 -1.234375 3.84375q-1.21875 1.359375 -2.953125 1.359375q-1.703125 0 -2.6875 -1.4375l0 1.21875zm-0.015625 -4.90625q0 1.734375 0.484375 2.515625q0.765625 1.265625 2.09375 1.265625q1.078125 0 1.859375 -0.9375q0.78125 -0.9375 0.78125 -2.78125q0 -1.890625 -0.75 -2.796875q-0.75 -0.90625 -1.828125 -0.90625q-1.0625 0 -1.859375 0.9375q-0.78125 0.9375 -0.78125 2.703125zm15.219482 4.90625l0 -1.421875q-1.125 1.640625 -3.0625 1.640625q-0.859375 0 -1.609375 -0.328125q-0.734375 -0.328125 -1.09375 -0.828125q-0.359375 -0.5 -0.5 -1.21875q-0.109375 -0.46875 -0.109375 -1.53125l0 -5.984375l1.640625 0l0 5.359375q0 1.28125 0.109375 1.734375q0.15625 0.640625 0.65625 1.015625q0.5 0.375 1.234375 0.375q0.734375 0 1.375 -0.375q0.65625 -0.390625 0.921875 -1.03125q0.265625 -0.65625 0.265625 -1.890625l0 -5.1875l1.640625 0l0 9.671875l-1.46875 0zm4.438202 0l0 -8.40625l-1.453125 0l0 -1.265625l1.453125 0l0 -1.03125q0 -0.96875 0.171875 -1.453125q0.234375 -0.640625 0.828125 -1.03125q0.59375 -0.390625 1.671875 -0.390625q0.6875 0 1.53125 0.15625l-0.25 1.4375q-0.5 -0.09375 -0.953125 -0.09375q-0.75 0 -1.0625 0.328125q-0.3125 0.3125 -0.3125 1.1875l0 0.890625l1.890625 0l0 1.265625l-1.890625 0l0 8.40625l-1.625 0zm4.8460693 0l0 -8.40625l-1.453125 0l0 -1.265625l1.453125 0l0 -1.03125q0 -0.96875 0.171875 -1.453125q0.234375 -0.640625 0.828125 -1.03125q0.59375 -0.390625 1.671875 -0.390625q0.6875 0 1.53125 0.15625l-0.25 1.4375q-0.5 -0.09375 -0.953125 -0.09375q-0.75 0 -1.0625 0.328125q-0.3125 0.3125 -0.3125 1.1875l0 0.890625l1.890625 0l0 1.265625l-1.890625 0l0 8.40625l-1.625 0zm11.417694 -3.109375l1.6875 0.203125q-0.40625 1.484375 -1.484375 2.3125q-1.078125 0.8125 -2.765625 0.8125q-2.125 0 -3.375 -1.296875q-1.234375 -1.3125 -1.234375 -3.671875q0 -2.453125 1.25 -3.796875q1.265625 -1.34375 3.265625 -1.34375q1.9375 0 3.15625 1.328125q1.234375 1.3125 1.234375 3.703125q0 0.15625 0 0.4375l-7.21875 0q0.09375 1.59375 0.90625 2.453125q0.8125 0.84375 2.015625 0.84375q0.90625 0 1.546875 -0.46875q0.640625 -0.484375 1.015625 -1.515625zm-5.390625 -2.65625l5.40625 0q-0.109375 -1.21875 -0.625 -1.828125q-0.78125 -0.953125 -2.03125 -0.953125q-1.125 0 -1.90625 0.765625q-0.765625 0.75 -0.84375 2.015625zm9.125702 5.765625l0 -9.671875l1.46875 0l0 1.46875q0.5625 -1.03125 1.03125 -1.359375q0.484375 -0.328125 1.0625 -0.328125q0.828125 0 1.6875 0.53125l-0.5625 1.515625q-0.609375 -0.359375 -1.203125 -0.359375q-0.546875 0 -0.96875 0.328125q-0.421875 0.328125 -0.609375 0.890625q-0.28125 0.875 -0.28125 1.921875l0 5.0625l-1.625 0z" fill-rule="nonzero"/></g><g filter="url(#shadowFilter-p.2)"><use xlink:href="#p.2" transform="matrix(1.0 0.0 0.0 1.0 0.0 2.0)"/></g><defs><filter id="shadowFilter-p.2" filterUnits="userSpaceOnUse"><feGaussianBlur in="SourceAlpha" stdDeviation="2.0" result="blur"/><feComponentTransfer in="blur" color-interpolation-filters="sRGB"><feFuncR type="linear" slope="0" intercept="0.0"/><feFuncG type="linear" slope="0" intercept="0.0"/><feFuncB type="linear" slope="0" intercept="0.0"/><feFuncA type="linear" slope="0.5" intercept="0"/></feComponentTransfer></filter></defs><g id="p.2"><path fill="#d9d2e9" d="m370.11548 21.203413l0 0c0 -2.1620293 6.0670776 -3.9146996 13.551178 -3.9146996c7.484131 0 13.551178 1.7526703 13.551178 3.9146996l0 15.6587925c0 2.1620255 -6.067047 3.9146957 -13.551178 3.9146957c-7.4841003 0 -13.551178 -1.7526703 -13.551178 -3.9146957z" fill-rule="evenodd"/><path fill="#000000" fill-opacity="0.0" d="m397.21783 21.203413l0 0c0 2.1620274 -6.067047 3.9146976 -13.551178 3.9146976c-7.4841003 0 -13.551178 -1.7526703 -13.551178 -3.9146976" fill-rule="evenodd"/><path fill="#000000" fill-opacity="0.0" d="m370.11548 21.203413l0 0c0 -2.1620293 6.0670776 -3.9146996 13.551178 -3.9146996c7.484131 0 13.551178 1.7526703 13.551178 3.9146996l0 15.6587925c0 2.1620255 -6.067047 3.9146957 -13.551178 3.9146957c-7.4841003 0 -13.551178 -1.7526703 -13.551178 -3.9146957z" fill-rule="evenodd"/><path stroke="#000000" stroke-width="1.0" stroke-linejoin="round" stroke-linecap="butt" d="m397.21783 21.203413l0 0c0 2.1620274 -6.067047 3.9146976 -13.551178 3.9146976c-7.4841003 0 -13.551178 -1.7526703 -13.551178 -3.9146976" fill-rule="evenodd"/><path stroke="#000000" stroke-width="1.0" stroke-linejoin="round" stroke-linecap="butt" d="m370.11548 21.203413l0 0c0 -2.1620293 6.0670776 -3.9146996 13.551178 -3.9146996c7.484131 0 13.551178 1.7526703 13.551178 3.9146996l0 15.6587925c0 2.1620255 -6.067047 3.9146957 -13.551178 3.9146957c-7.4841003 0 -13.551178 -1.7526703 -13.551178 -3.9146957z" fill-rule="evenodd"/></g><g filter="url(#shadowFilter-p.3)"><use xlink:href="#p.3" transform="matrix(1.0 0.0 0.0 1.0 0.0 2.0)"/></g><defs><filter id="shadowFilter-p.3" filterUnits="userSpaceOnUse"><feGaussianBlur in="SourceAlpha" stdDeviation="2.0" result="blur"/><feComponentTransfer in="blur" color-interpolation-filters="sRGB"><feFuncR type="linear" slope="0" intercept="0.0"/><feFuncG type="linear" slope="0" intercept="0.0"/><feFuncB type="linear" slope="0" intercept="0.0"/><feFuncA type="linear" slope="0.5" intercept="0"/></feComponentTransfer></filter></defs><g id="p.3"><path fill="#d9d2e9" d="m346.6273 44.6916l0 0c0 -2.1620293 6.0670776 -3.9146996 13.551178 -3.9146996c7.484131 0 13.551178 1.7526703 13.551178 3.9146996l0 15.658794c0 2.1620255 -6.067047 3.9146957 -13.551178 3.9146957c-7.4841003 0 -13.551178 -1.7526703 -13.551178 -3.9146957z" fill-rule="evenodd"/><path fill="#000000" fill-opacity="0.0" d="m373.72964 44.6916l0 0c0 2.1620293 -6.067047 3.9146996 -13.551178 3.9146996c-7.4841003 0 -13.551178 -1.7526703 -13.551178 -3.9146996" fill-rule="evenodd"/><path fill="#000000" fill-opacity="0.0" d="m346.6273 44.6916l0 0c0 -2.1620293 6.0670776 -3.9146996 13.551178 -3.9146996c7.484131 0 13.551178 1.7526703 13.551178 3.9146996l0 15.658794c0 2.1620255 -6.067047 3.9146957 -13.551178 3.9146957c-7.4841003 0 -13.551178 -1.7526703 -13.551178 -3.9146957z" fill-rule="evenodd"/><path stroke="#000000" stroke-width="1.0" stroke-linejoin="round" stroke-linecap="butt" d="m373.72964 44.6916l0 0c0 2.1620293 -6.067047 3.9146996 -13.551178 3.9146996c-7.4841003 0 -13.551178 -1.7526703 -13.551178 -3.9146996" fill-rule="evenodd"/><path stroke="#000000" stroke-width="1.0" stroke-linejoin="round" stroke-linecap="butt" d="m346.6273 44.6916l0 0c0 -2.1620293 6.0670776 -3.9146996 13.551178 -3.9146996c7.484131 0 13.551178 1.7526703 13.551178 3.9146996l0 15.658794c0 2.1620255 -6.067047 3.9146957 -13.551178 3.9146957c-7.4841003 0 -13.551178 -1.7526703 -13.551178 -3.9146957z" fill-rule="evenodd"/></g><g filter="url(#shadowFilter-p.4)"><use xlink:href="#p.4" transform="matrix(1.0 0.0 0.0 1.0 0.0 2.0)"/></g><defs><filter id="shadowFilter-p.4" filterUnits="userSpaceOnUse"><feGaussianBlur in="SourceAlpha" stdDeviation="2.0" result="blur"/><feComponentTransfer in="blur" color-interpolation-filters="sRGB"><feFuncR type="linear" slope="0" intercept="0.0"/><feFuncG type="linear" slope="0" intercept="0.0"/><feFuncB type="linear" slope="0" intercept="0.0"/><feFuncA type="linear" slope="0.5" intercept="0"/></feComponentTransfer></filter></defs><g id="p.4"><path fill="#d9d2e9" d="m426.41733 44.6916l0 0c0 -2.1620293 6.0670776 -3.9146996 13.551178 -3.9146996c7.4841003 0 13.551178 1.7526703 13.551178 3.9146996l0 15.658794c0 2.1620255 -6.0670776 3.9146957 -13.551178 3.9146957c-7.4841003 0 -13.551178 -1.7526703 -13.551178 -3.9146957z" fill-rule="evenodd"/><path fill="#000000" fill-opacity="0.0" d="m453.51968 44.6916l0 0c0 2.1620293 -6.0670776 3.9146996 -13.551178 3.9146996c-7.4841003 0 -13.551178 -1.7526703 -13.551178 -3.9146996" fill-rule="evenodd"/><path fill="#000000" fill-opacity="0.0" d="m426.41733 44.6916l0 0c0 -2.1620293 6.0670776 -3.9146996 13.551178 -3.9146996c7.4841003 0 13.551178 1.7526703 13.551178 3.9146996l0 15.658794c0 2.1620255 -6.0670776 3.9146957 -13.551178 3.9146957c-7.4841003 0 -13.551178 -1.7526703 -13.551178 -3.9146957z" fill-rule="evenodd"/><path stroke="#000000" stroke-width="1.0" stroke-linejoin="round" stroke-linecap="butt" d="m453.51968 44.6916l0 0c0 2.1620293 -6.0670776 3.9146996 -13.551178 3.9146996c-7.4841003 0 -13.551178 -1.7526703 -13.551178 -3.9146996" fill-rule="evenodd"/><path stroke="#000000" stroke-width="1.0" stroke-linejoin="round" stroke-linecap="butt" d="m426.41733 44.6916l0 0c0 -2.1620293 6.0670776 -3.9146996 13.551178 -3.9146996c7.4841003 0 13.551178 1.7526703 13.551178 3.9146996l0 15.658794c0 2.1620255 -6.0670776 3.9146957 -13.551178 3.9146957c-7.4841003 0 -13.551178 -1.7526703 -13.551178 -3.9146957z" fill-rule="evenodd"/></g><g filter="url(#shadowFilter-p.5)"><use xlink:href="#p.5" transform="matrix(1.0 0.0 0.0 1.0 0.0 2.0)"/></g><defs><filter id="shadowFilter-p.5" filterUnits="userSpaceOnUse"><feGaussianBlur in="SourceAlpha" stdDeviation="2.0" result="blur"/><feComponentTransfer in="blur" color-interpolation-filters="sRGB"><feFuncR type="linear" slope="0" intercept="0.0"/><feFuncG type="linear" slope="0" intercept="0.0"/><feFuncB type="linear" slope="0" intercept="0.0"/><feFuncA type="linear" slope="0.5" intercept="0"/></feComponentTransfer></filter></defs><g id="p.5"><path fill="#d9d2e9" d="m449.90552 21.203413l0 0c0 -2.1620293 6.0670776 -3.9146996 13.551178 -3.9146996c7.4841003 0 13.551178 1.7526703 13.551178 3.9146996l0 15.6587925c0 2.1620255 -6.0670776 3.9146957 -13.551178 3.9146957c-7.4841003 0 -13.551178 -1.7526703 -13.551178 -3.9146957z" fill-rule="evenodd"/><path fill="#000000" fill-opacity="0.0" d="m477.00787 21.203413l0 0c0 2.1620274 -6.0670776 3.9146976 -13.551178 3.9146976c-7.4841003 0 -13.551178 -1.7526703 -13.551178 -3.9146976" fill-rule="evenodd"/><path fill="#000000" fill-opacity="0.0" d="m449.90552 21.203413l0 0c0 -2.1620293 6.0670776 -3.9146996 13.551178 -3.9146996c7.4841003 0 13.551178 1.7526703 13.551178 3.9146996l0 15.6587925c0 2.1620255 -6.0670776 3.9146957 -13.551178 3.9146957c-7.4841003 0 -13.551178 -1.7526703 -13.551178 -3.9146957z" fill-rule="evenodd"/><path stroke="#000000" stroke-width="1.0" stroke-linejoin="round" stroke-linecap="butt" d="m477.00787 21.203413l0 0c0 2.1620274 -6.0670776 3.9146976 -13.551178 3.9146976c-7.4841003 0 -13.551178 -1.7526703 -13.551178 -3.9146976" fill-rule="evenodd"/><path stroke="#000000" stroke-width="1.0" stroke-linejoin="round" stroke-linecap="butt" d="m449.90552 21.203413l0 0c0 -2.1620293 6.0670776 -3.9146996 13.551178 -3.9146996c7.4841003 0 13.551178 1.7526703 13.551178 3.9146996l0 15.6587925c0 2.1620255 -6.0670776 3.9146957 -13.551178 3.9146957c-7.4841003 0 -13.551178 -1.7526703 -13.551178 -3.9146957z" fill-rule="evenodd"/></g></g></svg>