<svg version="1.1" viewBox="0.0 0.0 586.498687664042 249.34120734908137" fill="none" stroke="none" stroke-linecap="square" stroke-miterlimit="10" xmlns:xlink="http://www.w3.org/1999/xlink" xmlns="http://www.w3.org/2000/svg"><clipPath id="p.0"><path d="m0 0l586.49866 0l0 249.3412l-586.49866 0l0 -249.3412z" clip-rule="nonzero"/></clipPath><g clip-path="url(#p.0)"><path fill="#000000" fill-opacity="0.0" d="m0 0l586.49866 0l0 249.3412l-586.49866 0z" fill-rule="evenodd"/><g filter="url(#shadowFilter-p.1)"><use xlink:href="#p.1" transform="matrix(1.0 0.0 0.0 1.0 0.0 2.0)"/></g><defs><filter id="shadowFilter-p.1" filterUnits="userSpaceOnUse"><feGaussianBlur in="SourceAlpha" stdDeviation="2.0" result="blur"/><feComponentTransfer in="blur" color-interpolation-filters="sRGB"><feFuncR type="linear" slope="0" intercept="0.0"/><feFuncG type="linear" slope="0" intercept="0.0"/><feFuncB type="linear" slope="0" intercept="0.0"/><feFuncA type="linear" slope="0.5" intercept="0"/></feComponentTransfer></filter></defs><g id="p.1"><path fill="#f4cccc" d="m27.482939 164.45628l200.54634 0l0 43.349487l-200.54634 0z" fill-rule="evenodd"/><path fill="#c3a3a3" d="m228.02928 164.45628l55.107193 -55.1072l0 43.349495l-55.107193 55.107193z" fill-rule="evenodd"/><path fill="#f6d6d6" d="m27.482939 164.45628l55.107193 -55.1072l200.54634 0l-55.107193 55.1072z" fill-rule="evenodd"/><path fill="#000000" fill-opacity="0.0" d="m27.482939 164.45628l55.107193 -55.1072l200.54634 0l0 43.349495l-55.107193 55.107193l-200.54634 0zm0 0l200.54634 0l55.107193 -55.1072m-55.107193 55.1072l0 43.349487" fill-rule="evenodd"/><path stroke="#000000" stroke-width="1.0" stroke-linejoin="round" stroke-linecap="butt" d="m27.482939 164.45628l55.107193 -55.1072l200.54634 0l0 43.349495l-55.107193 55.107193l-200.54634 0zm0 0l200.54634 0l55.107193 -55.1072m-55.107193 55.1072l0 43.349487" fill-rule="evenodd"/><path fill="#000000" d="m113.81825 190.1604l1.625 -0.25q0.125 0.96875 0.75 1.5q0.625 0.515625 1.75 0.515625q1.125 0 1.671875 -0.453125q0.546875 -0.46875 0.546875 -1.09375q0 -0.546875 -0.484375 -0.875q-0.328125 -0.21875 -1.671875 -0.546875q-1.8125 -0.46875 -2.515625 -0.796875q-0.6875 -0.328125 -1.046875 -0.90625q-0.359375 -0.59375 -0.359375 -1.3125q0 -0.640625 0.296875 -1.1875q0.296875 -0.5625 0.8125 -0.921875q0.375 -0.28125 1.03125 -0.46875q0.671875 -0.203125 1.421875 -0.203125q1.140625 0 2.0 0.328125q0.859375 0.328125 1.265625 0.890625q0.421875 0.5625 0.578125 1.5l-1.609375 0.21875q-0.109375 -0.75 -0.640625 -1.171875q-0.515625 -0.421875 -1.46875 -0.421875q-1.140625 0 -1.625 0.375q-0.46875 0.375 -0.46875 0.875q0 0.3125 0.1875 0.578125q0.203125 0.265625 0.640625 0.4375q0.234375 0.09375 1.4375 0.421875q1.75 0.453125 2.4375 0.75q0.6875 0.296875 1.078125 0.859375q0.390625 0.5625 0.390625 1.40625q0 0.828125 -0.484375 1.546875q-0.46875 0.71875 -1.375 1.125q-0.90625 0.390625 -2.046875 0.390625q-1.875 0 -2.875 -0.78125q-0.984375 -0.78125 -1.25 -2.328125zm16.296875 1.703125q-0.921875 0.765625 -1.765625 1.09375q-0.828125 0.3125 -1.796875 0.3125q-1.59375 0 -2.453125 -0.78125q-0.859375 -0.78125 -0.859375 -1.984375q0 -0.71875 0.328125 -1.296875q0.328125 -0.59375 0.84375 -0.9375q0.53125 -0.359375 1.1875 -0.546875q0.46875 -0.125 1.453125 -0.25q1.984375 -0.234375 2.921875 -0.5625q0.015625 -0.34375 0.015625 -0.421875q0 -1.0 -0.46875 -1.421875q-0.625 -0.546875 -1.875 -0.546875q-1.15625 0 -1.703125 0.40625q-0.546875 0.40625 -0.8125 1.421875l-1.609375 -0.21875q0.21875 -1.015625 0.71875 -1.640625q0.5 -0.640625 1.453125 -0.984375q0.953125 -0.34375 2.1875 -0.34375q1.25 0 2.015625 0.296875q0.78125 0.28125 1.140625 0.734375q0.375 0.4375 0.515625 1.109375q0.078125 0.421875 0.078125 1.515625l0 2.1875q0 2.28125 0.109375 2.890625q0.109375 0.59375 0.40625 1.15625l-1.703125 0q-0.265625 -0.515625 -0.328125 -1.1875zm-0.140625 -3.671875q-0.890625 0.375 -2.671875 0.625q-1.015625 0.140625 -1.4375 0.328125q-0.421875 0.1875 -0.65625 0.53125q-0.21875 0.34375 -0.21875 0.78125q0 0.65625 0.5 1.09375q0.5 0.4375 1.453125 0.4375q0.9375 0 1.671875 -0.40625q0.75 -0.421875 1.09375 -1.140625q0.265625 -0.5625 0.265625 -1.640625l0 -0.609375zm10.516342 1.3125l1.609375 0.21875q-0.265625 1.65625 -1.359375 2.609375q-1.078125 0.9375 -2.671875 0.9375q-1.984375 0 -3.1875 -1.296875q-1.203125 -1.296875 -1.203125 -3.71875q0 -1.578125 0.515625 -2.75q0.515625 -1.171875 1.578125 -1.75q1.0625 -0.59375 2.3125 -0.59375q1.578125 0 2.578125 0.796875q1.0 0.796875 1.28125 2.265625l-1.59375 0.234375q-0.234375 -0.96875 -0.8125 -1.453125q-0.578125 -0.5 -1.390625 -0.5q-1.234375 0 -2.015625 0.890625q-0.78125 0.890625 -0.78125 2.8125q0 1.953125 0.75 2.84375q0.75 0.875 1.953125 0.875q0.96875 0 1.609375 -0.59375q0.65625 -0.59375 0.828125 -1.828125z" fill-rule="nonzero"/></g><g filter="url(#shadowFilter-p.2)"><use xlink:href="#p.2" transform="matrix(1.0 0.0 0.0 1.0 0.0 2.0)"/></g><defs><filter id="shadowFilter-p.2" filterUnits="userSpaceOnUse"><feGaussianBlur in="SourceAlpha" stdDeviation="2.0" result="blur"/><feComponentTransfer in="blur" color-interpolation-filters="sRGB"><feFuncR type="linear" slope="0" intercept="0.0"/><feFuncG type="linear" slope="0" intercept="0.0"/><feFuncB type="linear" slope="0" intercept="0.0"/><feFuncA type="linear" slope="0.5" intercept="0"/></feComponentTransfer></filter></defs><g id="p.2"><path fill="#f4cccc" d="m116.0105 113.26378l0 0c0 -2.1620255 6.06707 -3.9146957 13.551178 -3.9146957c7.4841156 0 13.551178 1.7526703 13.551178 3.9146957l0 15.658798c0 2.1620178 -6.0670624 3.914688 -13.551178 3.914688c-7.484108 0 -13.551178 -1.7526703 -13.551178 -3.914688z" fill-rule="evenodd"/><path fill="#000000" fill-opacity="0.0" d="m143.11285 113.26378l0 0c0 2.1620255 -6.0670624 3.9146957 -13.551178 3.9146957c-7.484108 0 -13.551178 -1.7526703 -13.551178 -3.9146957" fill-rule="evenodd"/><path fill="#000000" fill-opacity="0.0" d="m116.0105 113.26378l0 0c0 -2.1620255 6.06707 -3.9146957 13.551178 -3.9146957c7.4841156 0 13.551178 1.7526703 13.551178 3.9146957l0 15.658798c0 2.1620178 -6.0670624 3.914688 -13.551178 3.914688c-7.484108 0 -13.551178 -1.7526703 -13.551178 -3.914688z" fill-rule="evenodd"/><path stroke="#000000" stroke-width="1.0" stroke-linejoin="round" stroke-linecap="butt" d="m143.11285 113.26378l0 0c0 2.1620255 -6.0670624 3.9146957 -13.551178 3.9146957c-7.484108 0 -13.551178 -1.7526703 -13.551178 -3.9146957" fill-rule="evenodd"/><path stroke="#000000" stroke-width="1.0" stroke-linejoin="round" stroke-linecap="butt" d="m116.0105 113.26378l0 0c0 -2.1620255 6.06707 -3.9146957 13.551178 -3.9146957c7.4841156 0 13.551178 1.7526703 13.551178 3.9146957l0 15.658798c0 2.1620178 -6.0670624 3.914688 -13.551178 3.914688c-7.484108 0 -13.551178 -1.7526703 -13.551178 -3.914688z" fill-rule="evenodd"/></g><g filter="url(#shadowFilter-p.3)"><use xlink:href="#p.3" transform="matrix(1.0 0.0 0.0 1.0 0.0 2.0)"/></g><defs><filter id="shadowFilter-p.3" filterUnits="userSpaceOnUse"><feGaussianBlur in="SourceAlpha" stdDeviation="2.0" result="blur"/><feComponentTransfer in="blur" color-interpolation-filters="sRGB"><feFuncR type="linear" slope="0" intercept="0.0"/><feFuncG type="linear" slope="0" intercept="0.0"/><feFuncB type="linear" slope="0" intercept="0.0"/><feFuncA type="linear" slope="0.5" intercept="0"/></feComponentTransfer></filter></defs><g id="p.3"><path fill="#f4cccc" d="m92.52231 136.75197l0 0c0 -2.162033 6.06707 -3.9147034 13.551186 -3.9147034c7.484108 0 13.551178 1.7526703 13.551178 3.9147034l0 15.658798c0 2.1620178 -6.06707 3.914688 -13.551178 3.914688c-7.4841156 0 -13.551186 -1.7526703 -13.551186 -3.914688z" fill-rule="evenodd"/><path fill="#000000" fill-opacity="0.0" d="m119.62467 136.75197l0 0c0 2.162033 -6.06707 3.9147034 -13.551178 3.9147034c-7.4841156 0 -13.551186 -1.7526703 -13.551186 -3.9147034" fill-rule="evenodd"/><path fill="#000000" fill-opacity="0.0" d="m92.52231 136.75197l0 0c0 -2.162033 6.06707 -3.9147034 13.551186 -3.9147034c7.484108 0 13.551178 1.7526703 13.551178 3.9147034l0 15.658798c0 2.1620178 -6.06707 3.914688 -13.551178 3.914688c-7.4841156 0 -13.551186 -1.7526703 -13.551186 -3.914688z" fill-rule="evenodd"/><path stroke="#000000" stroke-width="1.0" stroke-linejoin="round" stroke-linecap="butt" d="m119.62467 136.75197l0 0c0 2.162033 -6.06707 3.9147034 -13.551178 3.9147034c-7.4841156 0 -13.551186 -1.7526703 -13.551186 -3.9147034" fill-rule="evenodd"/><path stroke="#000000" stroke-width="1.0" stroke-linejoin="round" stroke-linecap="butt" d="m92.52231 136.75197l0 0c0 -2.162033 6.06707 -3.9147034 13.551186 -3.9147034c7.484108 0 13.551178 1.7526703 13.551178 3.9147034l0 15.658798c0 2.1620178 -6.06707 3.914688 -13.551178 3.914688c-7.4841156 0 -13.551186 -1.7526703 -13.551186 -3.914688z" fill-rule="evenodd"/></g><g filter="url(#shadowFilter-p.4)"><use xlink:href="#p.4" transform="matrix(1.0 0.0 0.0 1.0 0.0 2.0)"/></g><defs><filter id="shadowFilter-p.4" filterUnits="userSpaceOnUse"><feGaussianBlur in="SourceAlpha" stdDeviation="2.0" result="blur"/><feComponentTransfer in="blur" color-interpolation-filters="sRGB"><feFuncR type="linear" slope="0" intercept="0.0"/><feFuncG type="linear" slope="0" intercept="0.0"/><feFuncB type="linear" slope="0" intercept="0.0"/><feFuncA type="linear" slope="0.5" intercept="0"/></feComponentTransfer></filter></defs><g id="p.4"><path fill="#f4cccc" d="m172.31233 136.75197l0 0c0 -2.162033 6.0670776 -3.9147034 13.551178 -3.9147034c7.4841156 0 13.551193 1.7526703 13.551193 3.9147034l0 15.658798c0 2.1620178 -6.0670776 3.914688 -13.551193 3.914688c-7.4841003 0 -13.551178 -1.7526703 -13.551178 -3.914688z" fill-rule="evenodd"/><path fill="#000000" fill-opacity="0.0" d="m199.4147 136.75197l0 0c0 2.162033 -6.0670776 3.9147034 -13.551193 3.9147034c-7.4841003 0 -13.551178 -1.7526703 -13.551178 -3.9147034" fill-rule="evenodd"/><path fill="#000000" fill-opacity="0.0" d="m172.31233 136.75197l0 0c0 -2.162033 6.0670776 -3.9147034 13.551178 -3.9147034c7.4841156 0 13.551193 1.7526703 13.551193 3.9147034l0 15.658798c0 2.1620178 -6.0670776 3.914688 -13.551193 3.914688c-7.4841003 0 -13.551178 -1.7526703 -13.551178 -3.914688z" fill-rule="evenodd"/><path stroke="#000000" stroke-width="1.0" stroke-linejoin="round" stroke-linecap="butt" d="m199.4147 136.75197l0 0c0 2.162033 -6.0670776 3.9147034 -13.551193 3.9147034c-7.4841003 0 -13.551178 -1.7526703 -13.551178 -3.9147034" fill-rule="evenodd"/><path stroke="#000000" stroke-width="1.0" stroke-linejoin="round" stroke-linecap="butt" d="m172.31233 136.75197l0 0c0 -2.162033 6.0670776 -3.9147034 13.551178 -3.9147034c7.4841156 0 13.551193 1.7526703 13.551193 3.9147034l0 15.658798c0 2.1620178 -6.0670776 3.914688 -13.551193 3.914688c-7.4841003 0 -13.551178 -1.7526703 -13.551178 -3.914688z" fill-rule="evenodd"/></g><g filter="url(#shadowFilter-p.5)"><use xlink:href="#p.5" transform="matrix(1.0 0.0 0.0 1.0 0.0 2.0)"/></g><defs><filter id="shadowFilter-p.5" filterUnits="userSpaceOnUse"><feGaussianBlur in="SourceAlpha" stdDeviation="2.0" result="blur"/><feComponentTransfer in="blur" color-interpolation-filters="sRGB"><feFuncR type="linear" slope="0" intercept="0.0"/><feFuncG type="linear" slope="0" intercept="0.0"/><feFuncB type="linear" slope="0" intercept="0.0"/><feFuncA type="linear" slope="0.5" intercept="0"/></feComponentTransfer></filter></defs><g id="p.5"><path fill="#f4cccc" d="m195.80052 113.26378l0 0c0 -2.1620255 6.0670776 -3.9146957 13.551178 -3.9146957c7.4841156 0 13.551193 1.7526703 13.551193 3.9146957l0 15.658798c0 2.1620178 -6.0670776 3.914688 -13.551193 3.914688c-7.4841003 0 -13.551178 -1.7526703 -13.551178 -3.914688z" fill-rule="evenodd"/><path fill="#000000" fill-opacity="0.0" d="m222.9029 113.26378l0 0c0 2.1620255 -6.0670776 3.9146957 -13.551193 3.9146957c-7.4841003 0 -13.551178 -1.7526703 -13.551178 -3.9146957" fill-rule="evenodd"/><path fill="#000000" fill-opacity="0.0" d="m195.80052 113.26378l0 0c0 -2.1620255 6.0670776 -3.9146957 13.551178 -3.9146957c7.4841156 0 13.551193 1.7526703 13.551193 3.9146957l0 15.658798c0 2.1620178 -6.0670776 3.914688 -13.551193 3.914688c-7.4841003 0 -13.551178 -1.7526703 -13.551178 -3.914688z" fill-rule="evenodd"/><path stroke="#000000" stroke-width="1.0" stroke-linejoin="round" stroke-linecap="butt" d="m222.9029 113.26378l0 0c0 2.1620255 -6.0670776 3.9146957 -13.551193 3.9146957c-7.4841003 0 -13.551178 -1.7526703 -13.551178 -3.9146957" fill-rule="evenodd"/><path stroke="#000000" stroke-width="1.0" stroke-linejoin="round" stroke-linecap="butt" d="m195.80052 113.26378l0 0c0 -2.1620255 6.0670776 -3.9146957 13.551178 -3.9146957c7.4841156 0 13.551193 1.7526703 13.551193 3.9146957l0 15.658798c0 2.1620178 -6.0670776 3.914688 -13.551193 3.914688c-7.4841003 0 -13.551178 -1.7526703 -13.551178 -3.914688z" fill-rule="evenodd"/></g><g filter="url(#shadowFilter-p.6)"><use xlink:href="#p.6" transform="matrix(1.0 0.0 0.0 1.0 0.0 2.0)"/></g><defs><filter id="shadowFilter-p.6" filterUnits="userSpaceOnUse"><feGaussianBlur in="SourceAlpha" stdDeviation="2.0" result="blur"/><feComponentTransfer in="blur" color-interpolation-filters="sRGB"><feFuncR type="linear" slope="0" intercept="0.0"/><feFuncG type="linear" slope="0" intercept="0.0"/><feFuncB type="linear" slope="0" intercept="0.0"/><feFuncA type="linear" slope="0.5" intercept="0"/></feComponentTransfer></filter></defs><g id="p.6"><path fill="#f4cccc" d="m283.13647 164.45628l200.54636 0l0 43.349487l-200.54636 0z" fill-rule="evenodd"/><path fill="#c3a3a3" d="m483.68283 164.45628l55.10721 -55.1072l0 43.349495l-55.10721 55.107193z" fill-rule="evenodd"/><path fill="#f6d6d6" d="m283.13647 164.45628l55.10721 -55.1072l200.54636 0l-55.10721 55.1072z" fill-rule="evenodd"/><path fill="#000000" fill-opacity="0.0" d="m283.13647 164.45628l55.10721 -55.1072l200.54636 0l0 43.349495l-55.10721 55.107193l-200.54636 0zm0 0l200.54636 0l55.10721 -55.1072m-55.10721 55.1072l0 43.349487" fill-rule="evenodd"/><path stroke="#000000" stroke-width="1.0" stroke-linejoin="round" stroke-linecap="butt" d="m283.13647 164.45628l55.10721 -55.1072l200.54636 0l0 43.349495l-55.10721 55.107193l-200.54636 0zm0 0l200.54636 0l55.10721 -55.1072m-55.10721 55.1072l0 43.349487" fill-rule="evenodd"/><path fill="#000000" d="m370.15823 193.05103l0 -1.21875q-0.90625 1.4375 -2.703125 1.4375q-1.15625 0 -2.125 -0.640625q-0.96875 -0.640625 -1.5 -1.78125q-0.53125 -1.140625 -0.53125 -2.625q0 -1.453125 0.484375 -2.625q0.484375 -1.1875 1.4375 -1.8125q0.96875 -0.625 2.171875 -0.625q0.875 0 1.546875 0.375q0.6875 0.359375 1.109375 0.953125l0 -4.796875l1.640625 0l0 13.359375l-1.53125 0zm-5.171875 -4.828125q0 1.859375 0.78125 2.78125q0.78125 0.921875 1.84375 0.921875q1.078125 0 1.828125 -0.875q0.75 -0.890625 0.75 -2.6875q0 -1.984375 -0.765625 -2.90625q-0.765625 -0.9375 -1.890625 -0.9375q-1.078125 0 -1.8125 0.890625q-0.734375 0.890625 -0.734375 2.8125zm15.547577 4.828125l0 -1.21875q-0.90625 1.4375 -2.703125 1.4375q-1.15625 0 -2.125 -0.640625q-0.96875 -0.640625 -1.5 -1.78125q-0.53125 -1.140625 -0.53125 -2.625q0 -1.453125 0.484375 -2.625q0.484375 -1.1875 1.4375 -1.8125q0.96875 -0.625 2.171875 -0.625q0.875 0 1.546875 0.375q0.6875 0.359375 1.109375 0.953125l0 -4.796875l1.640625 0l0 13.359375l-1.53125 0zm-5.171875 -4.828125q0 1.859375 0.78125 2.78125q0.78125 0.921875 1.84375 0.921875q1.078125 0 1.828125 -0.875q0.75 -0.890625 0.75 -2.6875q0 -1.984375 -0.765625 -2.90625q-0.765625 -0.9375 -1.890625 -0.9375q-1.078125 0 -1.8125 0.890625q-0.734375 0.890625 -0.734375 2.8125zm9.281982 8.53125l0 -13.375l1.484375 0l0 1.25q0.53125 -0.734375 1.1875 -1.09375q0.671875 -0.375 1.625 -0.375q1.234375 0 2.171875 0.640625q0.953125 0.625 1.4375 1.796875q0.484375 1.15625 0.484375 2.546875q0 1.484375 -0.53125 2.671875q-0.53125 1.1875 -1.546875 1.828125q-1.015625 0.625 -2.140625 0.625q-0.8125 0 -1.46875 -0.34375q-0.65625 -0.34375 -1.0625 -0.875l0 4.703125l-1.640625 0zm1.484375 -8.484375q0 1.859375 0.75 2.765625q0.765625 0.890625 1.828125 0.890625q1.09375 0 1.875 -0.921875q0.78125 -0.9375 0.78125 -2.875q0 -1.84375 -0.765625 -2.765625q-0.75 -0.921875 -1.8125 -0.921875q-1.046875 0 -1.859375 0.984375q-0.796875 0.96875 -0.796875 2.84375zm8.578827 5.578125l1.59375 0.234375q0.109375 0.75 0.5625 1.078125q0.609375 0.453125 1.671875 0.453125q1.140625 0 1.75 -0.453125q0.625 -0.453125 0.84375 -1.265625q0.125 -0.5 0.109375 -2.109375q-1.0625 1.265625 -2.671875 1.265625q-2.0 0 -3.09375 -1.4375q-1.09375 -1.4375 -1.09375 -3.453125q0 -1.390625 0.5 -2.5625q0.515625 -1.171875 1.453125 -1.796875q0.953125 -0.640625 2.25 -0.640625q1.703125 0 2.8125 1.375l0 -1.15625l1.515625 0l0 8.359375q0 2.265625 -0.46875 3.203125q-0.453125 0.9375 -1.453125 1.484375q-0.984375 0.546875 -2.453125 0.546875q-1.71875 0 -2.796875 -0.78125q-1.0625 -0.765625 -1.03125 -2.34375zm1.359375 -5.8125q0 1.90625 0.75 2.78125q0.765625 0.875 1.90625 0.875q1.125 0 1.890625 -0.859375q0.765625 -0.875 0.765625 -2.734375q0 -1.78125 -0.796875 -2.671875q-0.78125 -0.90625 -1.890625 -0.90625q-1.09375 0 -1.859375 0.890625q-0.765625 0.875 -0.765625 2.625z" fill-rule="nonzero"/></g><g filter="url(#shadowFilter-p.7)"><use xlink:href="#p.7" transform="matrix(1.0 0.0 0.0 1.0 0.0 2.0)"/></g><defs><filter id="shadowFilter-p.7" filterUnits="userSpaceOnUse"><feGaussianBlur in="SourceAlpha" stdDeviation="2.0" result="blur"/><feComponentTransfer in="blur" color-interpolation-filters="sRGB"><feFuncR type="linear" slope="0" intercept="0.0"/><feFuncG type="linear" slope="0" intercept="0.0"/><feFuncB type="linear" slope="0" intercept="0.0"/><feFuncA type="linear" slope="0.5" intercept="0"/></feComponentTransfer></filter></defs><g id="p.7"><path fill="#f4cccc" d="m371.66403 113.26378l0 0c0 -2.1620255 6.0670776 -3.9146957 13.551178 -3.9146957c7.484131 0 13.5512085 1.7526703 13.5512085 3.9146957l0 15.658798c0 2.1620178 -6.0670776 3.914688 -13.5512085 3.914688c-7.4841003 0 -13.551178 -1.7526703 -13.551178 -3.914688z" fill-rule="evenodd"/><path fill="#000000" fill-opacity="0.0" d="m398.76642 113.26378l0 0c0 2.1620255 -6.0670776 3.9146957 -13.5512085 3.9146957c-7.4841003 0 -13.551178 -1.7526703 -13.551178 -3.9146957" fill-rule="evenodd"/><path fill="#000000" fill-opacity="0.0" d="m371.66403 113.26378l0 0c0 -2.1620255 6.0670776 -3.9146957 13.551178 -3.9146957c7.484131 0 13.5512085 1.7526703 13.5512085 3.9146957l0 15.658798c0 2.1620178 -6.0670776 3.914688 -13.5512085 3.914688c-7.4841003 0 -13.551178 -1.7526703 -13.551178 -3.914688z" fill-rule="evenodd"/><path stroke="#000000" stroke-width="1.0" stroke-linejoin="round" stroke-linecap="butt" d="m398.76642 113.26378l0 0c0 2.1620255 -6.0670776 3.9146957 -13.5512085 3.9146957c-7.4841003 0 -13.551178 -1.7526703 -13.551178 -3.9146957" fill-rule="evenodd"/><path stroke="#000000" stroke-width="1.0" stroke-linejoin="round" stroke-linecap="butt" d="m371.66403 113.26378l0 0c0 -2.1620255 6.0670776 -3.9146957 13.551178 -3.9146957c7.484131 0 13.5512085 1.7526703 13.5512085 3.9146957l0 15.658798c0 2.1620178 -6.0670776 3.914688 -13.5512085 3.914688c-7.4841003 0 -13.551178 -1.7526703 -13.551178 -3.914688z" fill-rule="evenodd"/></g><g filter="url(#shadowFilter-p.8)"><use xlink:href="#p.8" transform="matrix(1.0 0.0 0.0 1.0 0.0 2.0)"/></g><defs><filter id="shadowFilter-p.8" filterUnits="userSpaceOnUse"><feGaussianBlur in="SourceAlpha" stdDeviation="2.0" result="blur"/><feComponentTransfer in="blur" color-interpolation-filters="sRGB"><feFuncR type="linear" slope="0" intercept="0.0"/><feFuncG type="linear" slope="0" intercept="0.0"/><feFuncB type="linear" slope="0" intercept="0.0"/><feFuncA type="linear" slope="0.5" intercept="0"/></feComponentTransfer></filter></defs><g id="p.8"><path fill="#f4cccc" d="m348.17584 136.75197l0 0c0 -2.162033 6.0670776 -3.9147034 13.551178 -3.9147034c7.484131 0 13.5512085 1.7526703 13.5512085 3.9147034l0 15.658798c0 2.1620178 -6.0670776 3.914688 -13.5512085 3.914688c-7.4841003 0 -13.551178 -1.7526703 -13.551178 -3.914688z" fill-rule="evenodd"/><path fill="#000000" fill-opacity="0.0" d="m375.27823 136.75197l0 0c0 2.162033 -6.0670776 3.9147034 -13.5512085 3.9147034c-7.4841003 0 -13.551178 -1.7526703 -13.551178 -3.9147034" fill-rule="evenodd"/><path fill="#000000" fill-opacity="0.0" d="m348.17584 136.75197l0 0c0 -2.162033 6.0670776 -3.9147034 13.551178 -3.9147034c7.484131 0 13.5512085 1.7526703 13.5512085 3.9147034l0 15.658798c0 2.1620178 -6.0670776 3.914688 -13.5512085 3.914688c-7.4841003 0 -13.551178 -1.7526703 -13.551178 -3.914688z" fill-rule="evenodd"/><path stroke="#000000" stroke-width="1.0" stroke-linejoin="round" stroke-linecap="butt" d="m375.27823 136.75197l0 0c0 2.162033 -6.0670776 3.9147034 -13.5512085 3.9147034c-7.4841003 0 -13.551178 -1.7526703 -13.551178 -3.9147034" fill-rule="evenodd"/><path stroke="#000000" stroke-width="1.0" stroke-linejoin="round" stroke-linecap="butt" d="m348.17584 136.75197l0 0c0 -2.162033 6.0670776 -3.9147034 13.551178 -3.9147034c7.484131 0 13.5512085 1.7526703 13.5512085 3.9147034l0 15.658798c0 2.1620178 -6.0670776 3.914688 -13.5512085 3.914688c-7.4841003 0 -13.551178 -1.7526703 -13.551178 -3.914688z" fill-rule="evenodd"/></g><g filter="url(#shadowFilter-p.9)"><use xlink:href="#p.9" transform="matrix(1.0 0.0 0.0 1.0 0.0 2.0)"/></g><defs><filter id="shadowFilter-p.9" filterUnits="userSpaceOnUse"><feGaussianBlur in="SourceAlpha" stdDeviation="2.0" result="blur"/><feComponentTransfer in="blur" color-interpolation-filters="sRGB"><feFuncR type="linear" slope="0" intercept="0.0"/><feFuncG type="linear" slope="0" intercept="0.0"/><feFuncB type="linear" slope="0" intercept="0.0"/><feFuncA type="linear" slope="0.5" intercept="0"/></feComponentTransfer></filter></defs><g id="p.9"><path fill="#f4cccc" d="m427.96588 136.75197l0 0c0 -2.162033 6.0670776 -3.9147034 13.551178 -3.9147034c7.4841003 0 13.551178 1.7526703 13.551178 3.9147034l0 15.658798c0 2.1620178 -6.0670776 3.914688 -13.551178 3.914688c-7.4841003 0 -13.551178 -1.7526703 -13.551178 -3.914688z" fill-rule="evenodd"/><path fill="#000000" fill-opacity="0.0" d="m455.06824 136.75197l0 0c0 2.162033 -6.0670776 3.9147034 -13.551178 3.9147034c-7.4841003 0 -13.551178 -1.7526703 -13.551178 -3.9147034" fill-rule="evenodd"/><path fill="#000000" fill-opacity="0.0" d="m427.96588 136.75197l0 0c0 -2.162033 6.0670776 -3.9147034 13.551178 -3.9147034c7.4841003 0 13.551178 1.7526703 13.551178 3.9147034l0 15.658798c0 2.1620178 -6.0670776 3.914688 -13.551178 3.914688c-7.4841003 0 -13.551178 -1.7526703 -13.551178 -3.914688z" fill-rule="evenodd"/><path stroke="#000000" stroke-width="1.0" stroke-linejoin="round" stroke-linecap="butt" d="m455.06824 136.75197l0 0c0 2.162033 -6.0670776 3.9147034 -13.551178 3.9147034c-7.4841003 0 -13.551178 -1.7526703 -13.551178 -3.9147034" fill-rule="evenodd"/><path stroke="#000000" stroke-width="1.0" stroke-linejoin="round" stroke-linecap="butt" d="m427.96588 136.75197l0 0c0 -2.162033 6.0670776 -3.9147034 13.551178 -3.9147034c7.4841003 0 13.551178 1.7526703 13.551178 3.9147034l0 15.658798c0 2.1620178 -6.0670776 3.914688 -13.551178 3.914688c-7.4841003 0 -13.551178 -1.7526703 -13.551178 -3.914688z" fill-rule="evenodd"/></g><g filter="url(#shadowFilter-p.10)"><use xlink:href="#p.10" transform="matrix(1.0 0.0 0.0 1.0 0.0 2.0)"/></g><defs><filter id="shadowFilter-p.10" filterUnits="userSpaceOnUse"><feGaussianBlur in="SourceAlpha" stdDeviation="2.0" result="blur"/><feComponentTransfer in="blur" color-interpolation-filters="sRGB"><feFuncR type="linear" slope="0" intercept="0.0"/><feFuncG type="linear" slope="0" intercept="0.0"/><feFuncB type="linear" slope="0" intercept="0.0"/><feFuncA type="linear" slope="0.5" intercept="0"/></feComponentTransfer></filter></defs><g id="p.10"><path fill="#f4cccc" d="m451.45407 113.26378l0 0c0 -2.1620255 6.0670776 -3.9146957 13.551178 -3.9146957c7.4841003 0 13.551178 1.7526703 13.551178 3.9146957l0 15.658798c0 2.1620178 -6.0670776 3.914688 -13.551178 3.914688c-7.4841003 0 -13.551178 -1.7526703 -13.551178 -3.914688z" fill-rule="evenodd"/><path fill="#000000" fill-opacity="0.0" d="m478.55643 113.26378l0 0c0 2.1620255 -6.0670776 3.9146957 -13.551178 3.9146957c-7.4841003 0 -13.551178 -1.7526703 -13.551178 -3.9146957" fill-rule="evenodd"/><path fill="#000000" fill-opacity="0.0" d="m451.45407 113.26378l0 0c0 -2.1620255 6.0670776 -3.9146957 13.551178 -3.9146957c7.4841003 0 13.551178 1.7526703 13.551178 3.9146957l0 15.658798c0 2.1620178 -6.0670776 3.914688 -13.551178 3.914688c-7.4841003 0 -13.551178 -1.7526703 -13.551178 -3.914688z" fill-rule="evenodd"/><path stroke="#000000" stroke-width="1.0" stroke-linejoin="round" stroke-linecap="butt" d="m478.55643 113.26378l0 0c0 2.1620255 -6.0670776 3.9146957 -13.551178 3.9146957c-7.4841003 0 -13.551178 -1.7526703 -13.551178 -3.9146957" fill-rule="evenodd"/><path stroke="#000000" stroke-width="1.0" stroke-linejoin="round" stroke-linecap="butt" d="m451.45407 113.26378l0 0c0 -2.1620255 6.0670776 -3.9146957 13.551178 -3.9146957c7.4841003 0 13.551178 1.7526703 13.551178 3.9146957l0 15.658798c0 2.1620178 -6.0670776 3.914688 -13.551178 3.914688c-7.4841003 0 -13.551178 -1.7526703 -13.551178 -3.914688z" fill-rule="evenodd"/></g><g filter="url(#shadowFilter-p.11)"><use xlink:href="#p.11" transform="matrix(1.0 0.0 0.0 1.0 0.0 2.0)"/></g><defs><filter id="shadowFilter-p.11" filterUnits="userSpaceOnUse"><feGaussianBlur in="SourceAlpha" stdDeviation="2.0" result="blur"/><feComponentTransfer in="blur" color-interpolation-filters="sRGB"><feFuncR type="linear" slope="0" intercept="0.0"/><feFuncG type="linear" slope="0" intercept="0.0"/><feFuncB type="linear" slope="0" intercept="0.0"/><feFuncA type="linear" slope="0.5" intercept="0"/></feComponentTransfer></filter></defs><g id="p.11"><path fill="#f4cccc" d="m283.13647 72.75812l200.54636 0l0 43.349495l-200.54636 0z" fill-rule="evenodd"/><path fill="#c3a3a3" d="m483.68283 72.75812l55.10721 -55.1072l0 43.349495l-55.10721 55.107197z" fill-rule="evenodd"/><path fill="#f6d6d6" d="m283.13647 72.75812l55.10721 -55.1072l200.54636 0l-55.10721 55.1072z" fill-rule="evenodd"/><path fill="#000000" fill-opacity="0.0" d="m283.13647 72.75812l55.10721 -55.1072l200.54636 0l0 43.349495l-55.10721 55.107197l-200.54636 0zm0 0l200.54636 0l55.10721 -55.1072m-55.10721 55.1072l0 43.349495" fill-rule="evenodd"/><path stroke="#000000" stroke-width="1.0" stroke-linejoin="round" stroke-linecap="butt" d="m283.13647 72.75812l55.10721 -55.1072l200.54636 0l0 43.349495l-55.10721 55.107197l-200.54636 0zm0 0l200.54636 0l55.10721 -55.1072m-55.10721 55.1072l0 43.349495" fill-rule="evenodd"/><path fill="#000000" d="m369.08044 105.055984l0 -13.375l1.484375 0l0 1.25q0.53125 -0.734375 1.1875 -1.09375q0.671875 -0.375 1.625 -0.375q1.234375 0 2.171875 0.640625q0.953125 0.625 1.4375 1.796875q0.484375 1.15625 0.484375 2.546875q0 1.484375 -0.53125 2.671875q-0.53125 1.1875 -1.546875 1.828125q-1.015625 0.625 -2.140625 0.625q-0.8125 0 -1.46875 -0.34375q-0.65625 -0.34375 -1.0625 -0.875l0 4.703125l-1.640625 0zm1.484375 -8.484375q0 1.859375 0.75 2.765625q0.765625 0.890625 1.828125 0.890625q1.09375 0 1.875 -0.921875q0.78125 -0.9375 0.78125 -2.875q0 -1.84375 -0.765625 -2.765625q-0.75 -0.921875 -1.8125 -0.921875q-1.046875 0 -1.859375 0.984375q-0.796875 0.96875 -0.796875 2.84375zm8.891357 8.484375l0 -13.375l1.484375 0l0 1.25q0.53125 -0.734375 1.1875 -1.09375q0.671875 -0.375 1.625 -0.375q1.234375 0 2.171875 0.640625q0.953125 0.625 1.4375 1.796875q0.484375 1.15625 0.484375 2.546875q0 1.484375 -0.53125 2.671875q-0.53125 1.1875 -1.546875 1.828125q-1.015625 0.625 -2.140625 0.625q-0.8125 0 -1.46875 -0.34375q-0.65625 -0.34375 -1.0625 -0.875l0 4.703125l-1.640625 0zm1.484375 -8.484375q0 1.859375 0.75 2.765625q0.765625 0.890625 1.828125 0.890625q1.09375 0 1.875 -0.921875q0.78125 -0.9375 0.78125 -2.875q0 -1.84375 -0.765625 -2.765625q-0.75 -0.921875 -1.8125 -0.921875q-1.046875 0 -1.859375 0.984375q-0.796875 0.96875 -0.796875 2.84375zm8.281952 -0.0625q0 -2.6875 1.484375 -3.96875q1.25 -1.078125 3.046875 -1.078125q2.0 0 3.265625 1.3125q1.265625 1.296875 1.265625 3.609375q0 1.859375 -0.5625 2.9375q-0.5625 1.0625 -1.640625 1.65625q-1.0625 0.59375 -2.328125 0.59375q-2.03125 0 -3.28125 -1.296875q-1.25 -1.3125 -1.25 -3.765625zm1.6875 0q0 1.859375 0.796875 2.796875q0.8125 0.921875 2.046875 0.921875q1.21875 0 2.03125 -0.921875q0.8125 -0.9375 0.8125 -2.84375q0 -1.796875 -0.8125 -2.71875q-0.8125 -0.921875 -2.03125 -0.921875q-1.234375 0 -2.046875 0.921875q-0.796875 0.90625 -0.796875 2.765625z" fill-rule="nonzero"/></g><g filter="url(#shadowFilter-p.12)"><use xlink:href="#p.12" transform="matrix(1.0 0.0 0.0 1.0 0.0 2.0)"/></g><defs><filter id="shadowFilter-p.12" filterUnits="userSpaceOnUse"><feGaussianBlur in="SourceAlpha" stdDeviation="2.0" result="blur"/><feComponentTransfer in="blur" color-interpolation-filters="sRGB"><feFuncR type="linear" slope="0" intercept="0.0"/><feFuncG type="linear" slope="0" intercept="0.0"/><feFuncB type="linear" slope="0" intercept="0.0"/><feFuncA type="linear" slope="0.5" intercept="0"/></feComponentTransfer></filter></defs><g id="p.12"><path fill="#f4cccc" d="m371.66403 21.565617l0 0c0 -2.1620274 6.0670776 -3.9146976 13.551178 -3.9146976c7.484131 0 13.5512085 1.7526703 13.5512085 3.9146976l0 15.658794c0 2.1620255 -6.0670776 3.9146957 -13.5512085 3.9146957c-7.4841003 0 -13.551178 -1.7526703 -13.551178 -3.9146957z" fill-rule="evenodd"/><path fill="#000000" fill-opacity="0.0" d="m398.76642 21.565617l0 0c0 2.1620274 -6.0670776 3.9146976 -13.5512085 3.9146976c-7.4841003 0 -13.551178 -1.7526703 -13.551178 -3.9146976" fill-rule="evenodd"/><path fill="#000000" fill-opacity="0.0" d="m371.66403 21.565617l0 0c0 -2.1620274 6.0670776 -3.9146976 13.551178 -3.9146976c7.484131 0 13.5512085 1.7526703 13.5512085 3.9146976l0 15.658794c0 2.1620255 -6.0670776 3.9146957 -13.5512085 3.9146957c-7.4841003 0 -13.551178 -1.7526703 -13.551178 -3.9146957z" fill-rule="evenodd"/><path stroke="#000000" stroke-width="1.0" stroke-linejoin="round" stroke-linecap="butt" d="m398.76642 21.565617l0 0c0 2.1620274 -6.0670776 3.9146976 -13.5512085 3.9146976c-7.4841003 0 -13.551178 -1.7526703 -13.551178 -3.9146976" fill-rule="evenodd"/><path stroke="#000000" stroke-width="1.0" stroke-linejoin="round" stroke-linecap="butt" d="m371.66403 21.565617l0 0c0 -2.1620274 6.0670776 -3.9146976 13.551178 -3.9146976c7.484131 0 13.5512085 1.7526703 13.5512085 3.9146976l0 15.658794c0 2.1620255 -6.0670776 3.9146957 -13.5512085 3.9146957c-7.4841003 0 -13.551178 -1.7526703 -13.551178 -3.9146957z" fill-rule="evenodd"/></g><g filter="url(#shadowFilter-p.13)"><use xlink:href="#p.13" transform="matrix(1.0 0.0 0.0 1.0 0.0 2.0)"/></g><defs><filter id="shadowFilter-p.13" filterUnits="userSpaceOnUse"><feGaussianBlur in="SourceAlpha" stdDeviation="2.0" result="blur"/><feComponentTransfer in="blur" color-interpolation-filters="sRGB"><feFuncR type="linear" slope="0" intercept="0.0"/><feFuncG type="linear" slope="0" intercept="0.0"/><feFuncB type="linear" slope="0" intercept="0.0"/><feFuncA type="linear" slope="0.5" intercept="0"/></feComponentTransfer></filter></defs><g id="p.13"><path fill="#f4cccc" d="m348.17584 45.053806l0 0c0 -2.1620293 6.0670776 -3.9146996 13.551178 -3.9146996c7.484131 0 13.5512085 1.7526703 13.5512085 3.9146996l0 15.658791c0 2.1620293 -6.0670776 3.9146996 -13.5512085 3.9146996c-7.4841003 0 -13.551178 -1.7526703 -13.551178 -3.9146996z" fill-rule="evenodd"/><path fill="#000000" fill-opacity="0.0" d="m375.27823 45.053806l0 0c0 2.1620293 -6.0670776 3.9146957 -13.5512085 3.9146957c-7.4841003 0 -13.551178 -1.7526665 -13.551178 -3.9146957" fill-rule="evenodd"/><path fill="#000000" fill-opacity="0.0" d="m348.17584 45.053806l0 0c0 -2.1620293 6.0670776 -3.9146996 13.551178 -3.9146996c7.484131 0 13.5512085 1.7526703 13.5512085 3.9146996l0 15.658791c0 2.1620293 -6.0670776 3.9146996 -13.5512085 3.9146996c-7.4841003 0 -13.551178 -1.7526703 -13.551178 -3.9146996z" fill-rule="evenodd"/><path stroke="#000000" stroke-width="1.0" stroke-linejoin="round" stroke-linecap="butt" d="m375.27823 45.053806l0 0c0 2.1620293 -6.0670776 3.9146957 -13.5512085 3.9146957c-7.4841003 0 -13.551178 -1.7526665 -13.551178 -3.9146957" fill-rule="evenodd"/><path stroke="#000000" stroke-width="1.0" stroke-linejoin="round" stroke-linecap="butt" d="m348.17584 45.053806l0 0c0 -2.1620293 6.0670776 -3.9146996 13.551178 -3.9146996c7.484131 0 13.5512085 1.7526703 13.5512085 3.9146996l0 15.658791c0 2.1620293 -6.0670776 3.9146996 -13.5512085 3.9146996c-7.4841003 0 -13.551178 -1.7526703 -13.551178 -3.9146996z" fill-rule="evenodd"/></g><g filter="url(#shadowFilter-p.14)"><use xlink:href="#p.14" transform="matrix(1.0 0.0 0.0 1.0 0.0 2.0)"/></g><defs><filter id="shadowFilter-p.14" filterUnits="userSpaceOnUse"><feGaussianBlur in="SourceAlpha" stdDeviation="2.0" result="blur"/><feComponentTransfer in="blur" color-interpolation-filters="sRGB"><feFuncR type="linear" slope="0" intercept="0.0"/><feFuncG type="linear" slope="0" intercept="0.0"/><feFuncB type="linear" slope="0" intercept="0.0"/><feFuncA type="linear" slope="0.5" intercept="0"/></feComponentTransfer></filter></defs><g id="p.14"><path fill="#f4cccc" d="m427.96588 45.053806l0 0c0 -2.1620293 6.0670776 -3.9146996 13.551178 -3.9146996c7.4841003 0 13.551178 1.7526703 13.551178 3.9146996l0 15.658791c0 2.1620293 -6.0670776 3.9146996 -13.551178 3.9146996c-7.4841003 0 -13.551178 -1.7526703 -13.551178 -3.9146996z" fill-rule="evenodd"/><path fill="#000000" fill-opacity="0.0" d="m455.06824 45.053806l0 0c0 2.1620293 -6.0670776 3.9146957 -13.551178 3.9146957c-7.4841003 0 -13.551178 -1.7526665 -13.551178 -3.9146957" fill-rule="evenodd"/><path fill="#000000" fill-opacity="0.0" d="m427.96588 45.053806l0 0c0 -2.1620293 6.0670776 -3.9146996 13.551178 -3.9146996c7.4841003 0 13.551178 1.7526703 13.551178 3.9146996l0 15.658791c0 2.1620293 -6.0670776 3.9146996 -13.551178 3.9146996c-7.4841003 0 -13.551178 -1.7526703 -13.551178 -3.9146996z" fill-rule="evenodd"/><path stroke="#000000" stroke-width="1.0" stroke-linejoin="round" stroke-linecap="butt" d="m455.06824 45.053806l0 0c0 2.1620293 -6.0670776 3.9146957 -13.551178 3.9146957c-7.4841003 0 -13.551178 -1.7526665 -13.551178 -3.9146957" fill-rule="evenodd"/><path stroke="#000000" stroke-width="1.0" stroke-linejoin="round" stroke-linecap="butt" d="m427.96588 45.053806l0 0c0 -2.1620293 6.0670776 -3.9146996 13.551178 -3.9146996c7.4841003 0 13.551178 1.7526703 13.551178 3.9146996l0 15.658791c0 2.1620293 -6.0670776 3.9146996 -13.551178 3.9146996c-7.4841003 0 -13.551178 -1.7526703 -13.551178 -3.9146996z" fill-rule="evenodd"/></g><g filter="url(#shadowFilter-p.15)"><use xlink:href="#p.15" transform="matrix(1.0 0.0 0.0 1.0 0.0 2.0)"/></g><defs><filter id="shadowFilter-p.15" filterUnits="userSpaceOnUse"><feGaussianBlur in="SourceAlpha" stdDeviation="2.0" result="blur"/><feComponentTransfer in="blur" color-interpolation-filters="sRGB"><feFuncR type="linear" slope="0" intercept="0.0"/><feFuncG type="linear" slope="0" intercept="0.0"/><feFuncB type="linear" slope="0" intercept="0.0"/><feFuncA type="linear" slope="0.5" intercept="0"/></feComponentTransfer></filter></defs><g id="p.15"><path fill="#f4cccc" d="m451.45407 21.565617l0 0c0 -2.1620274 6.0670776 -3.9146976 13.551178 -3.9146976c7.4841003 0 13.551178 1.7526703 13.551178 3.9146976l0 15.658794c0 2.1620255 -6.0670776 3.9146957 -13.551178 3.9146957c-7.4841003 0 -13.551178 -1.7526703 -13.551178 -3.9146957z" fill-rule="evenodd"/><path fill="#000000" fill-opacity="0.0" d="m478.55643 21.565617l0 0c0 2.1620274 -6.0670776 3.9146976 -13.551178 3.9146976c-7.4841003 0 -13.551178 -1.7526703 -13.551178 -3.9146976" fill-rule="evenodd"/><path fill="#000000" fill-opacity="0.0" d="m451.45407 21.565617l0 0c0 -2.1620274 6.0670776 -3.9146976 13.551178 -3.9146976c7.4841003 0 13.551178 1.7526703 13.551178 3.9146976l0 15.658794c0 2.1620255 -6.0670776 3.9146957 -13.551178 3.9146957c-7.4841003 0 -13.551178 -1.7526703 -13.551178 -3.9146957z" fill-rule="evenodd"/><path stroke="#000000" stroke-width="1.0" stroke-linejoin="round" stroke-linecap="butt" d="m478.55643 21.565617l0 0c0 2.1620274 -6.0670776 3.9146976 -13.551178 3.9146976c-7.4841003 0 -13.551178 -1.7526703 -13.551178 -3.9146976" fill-rule="evenodd"/><path stroke="#000000" stroke-width="1.0" stroke-linejoin="round" stroke-linecap="butt" d="m451.45407 21.565617l0 0c0 -2.1620274 6.0670776 -3.9146976 13.551178 -3.9146976c7.4841003 0 13.551178 1.7526703 13.551178 3.9146976l0 15.658794c0 2.1620255 -6.0670776 3.9146957 -13.551178 3.9146957c-7.4841003 0 -13.551178 -1.7526703 -13.551178 -3.9146957z" fill-rule="evenodd"/></g><g filter="url(#shadowFilter-p.16)"><use xlink:href="#p.16" transform="matrix(1.0 0.0 0.0 1.0 0.0 2.0)"/></g><defs><filter id="shadowFilter-p.16" filterUnits="userSpaceOnUse"><feGaussianBlur in="SourceAlpha" stdDeviation="2.0" result="blur"/><feComponentTransfer in="blur" color-interpolation-filters="sRGB"><feFuncR type="linear" slope="0" intercept="0.0"/><feFuncG type="linear" slope="0" intercept="0.0"/><feFuncB type="linear" slope="0" intercept="0.0"/><feFuncA type="linear" slope="0.5" intercept="0"/></feComponentTransfer></filter></defs><g id="p.16"><path fill="#f4cccc" d="m27.482939 72.75812l200.54634 0l0 43.349495l-200.54634 0z" fill-rule="evenodd"/><path fill="#c3a3a3" d="m228.02928 72.75812l55.107193 -55.1072l0 43.349495l-55.107193 55.107197z" fill-rule="evenodd"/><path fill="#f6d6d6" d="m27.482939 72.75812l55.107193 -55.1072l200.54634 0l-55.107193 55.1072z" fill-rule="evenodd"/><path fill="#000000" fill-opacity="0.0" d="m27.482939 72.75812l55.107193 -55.1072l200.54634 0l0 43.349495l-55.107193 55.107197l-200.54634 0zm0 0l200.54634 0l55.107193 -55.1072m-55.107193 55.1072l0 43.349495" fill-rule="evenodd"/><path stroke="#000000" stroke-width="1.0" stroke-linejoin="round" stroke-linecap="butt" d="m27.482939 72.75812l55.107193 -55.1072l200.54634 0l0 43.349495l-55.107193 55.107197l-200.54634 0zm0 0l200.54634 0l55.107193 -55.1072m-55.107193 55.1072l0 43.349495" fill-rule="evenodd"/><path fill="#000000" d="m119.692535 101.35286l0 -1.21875q-0.90625 1.4375 -2.703125 1.4375q-1.15625 0 -2.125 -0.640625q-0.96875 -0.640625 -1.5 -1.78125q-0.53125 -1.140625 -0.53125 -2.625q0 -1.453125 0.484375 -2.625q0.484375 -1.1875 1.4375 -1.8125q0.96875 -0.625 2.171875 -0.625q0.875 0 1.546875 0.375q0.6875 0.359375 1.109375 0.953125l0 -4.796875l1.640625 0l0 13.359375l-1.53125 0zm-5.171875 -4.828125q0 1.859375 0.78125 2.78125q0.78125 0.921875 1.84375 0.921875q1.078125 0 1.828125 -0.875q0.75 -0.890625 0.75 -2.6875q0 -1.984375 -0.765625 -2.90625q-0.765625 -0.9375 -1.890625 -0.9375q-1.078125 0 -1.8125 0.890625q-0.734375 0.890625 -0.734375 2.8125zm15.438217 8.53125l0 -4.734375q-0.375 0.546875 -1.0625 0.90625q-0.6875 0.34375 -1.46875 0.34375q-1.71875 0 -2.96875 -1.375q-1.234375 -1.375 -1.234375 -3.765625q0 -1.46875 0.5 -2.625q0.515625 -1.15625 1.46875 -1.75q0.96875 -0.59375 2.109375 -0.59375q1.796875 0 2.828125 1.515625l0 -1.296875l1.46875 0l0 13.375l-1.640625 0zm-5.046875 -8.5625q0 1.859375 0.78125 2.796875q0.78125 0.9375 1.875 0.9375q1.046875 0 1.796875 -0.890625q0.765625 -0.890625 0.765625 -2.703125q0 -1.9375 -0.796875 -2.90625q-0.796875 -0.96875 -1.875 -0.96875q-1.0625 0 -1.8125 0.90625q-0.734375 0.90625 -0.734375 2.828125zm9.266342 4.859375l0 -9.671875l1.46875 0l0 1.375q1.0625 -1.59375 3.078125 -1.59375q0.875 0 1.609375 0.3125q0.734375 0.3125 1.09375 0.828125q0.375 0.5 0.515625 1.203125q0.09375 0.453125 0.09375 1.59375l0 5.953125l-1.640625 0l0 -5.890625q0 -1.0 -0.203125 -1.484375q-0.1875 -0.5 -0.671875 -0.796875q-0.484375 -0.296875 -1.140625 -0.296875q-1.046875 0 -1.8125 0.671875q-0.75 0.65625 -0.75 2.515625l0 5.28125l-1.640625 0z" fill-rule="nonzero"/></g><g filter="url(#shadowFilter-p.17)"><use xlink:href="#p.17" transform="matrix(1.0 0.0 0.0 1.0 0.0 2.0)"/></g><defs><filter id="shadowFilter-p.17" filterUnits="userSpaceOnUse"><feGaussianBlur in="SourceAlpha" stdDeviation="2.0" result="blur"/><feComponentTransfer in="blur" color-interpolation-filters="sRGB"><feFuncR type="linear" slope="0" intercept="0.0"/><feFuncG type="linear" slope="0" intercept="0.0"/><feFuncB type="linear" slope="0" intercept="0.0"/><feFuncA type="linear" slope="0.5" intercept="0"/></feComponentTransfer></filter></defs><g id="p.17"><path fill="#f4cccc" d="m116.0105 21.565617l0 0c0 -2.1620274 6.06707 -3.9146976 13.551178 -3.9146976c7.4841156 0 13.551178 1.7526703 13.551178 3.9146976l0 15.658794c0 2.1620255 -6.0670624 3.9146957 -13.551178 3.9146957c-7.484108 0 -13.551178 -1.7526703 -13.551178 -3.9146957z" fill-rule="evenodd"/><path fill="#000000" fill-opacity="0.0" d="m143.11285 21.565617l0 0c0 2.1620274 -6.0670624 3.9146976 -13.551178 3.9146976c-7.484108 0 -13.551178 -1.7526703 -13.551178 -3.9146976" fill-rule="evenodd"/><path fill="#000000" fill-opacity="0.0" d="m116.0105 21.565617l0 0c0 -2.1620274 6.06707 -3.9146976 13.551178 -3.9146976c7.4841156 0 13.551178 1.7526703 13.551178 3.9146976l0 15.658794c0 2.1620255 -6.0670624 3.9146957 -13.551178 3.9146957c-7.484108 0 -13.551178 -1.7526703 -13.551178 -3.9146957z" fill-rule="evenodd"/><path stroke="#000000" stroke-width="1.0" stroke-linejoin="round" stroke-linecap="butt" d="m143.11285 21.565617l0 0c0 2.1620274 -6.0670624 3.9146976 -13.551178 3.9146976c-7.484108 0 -13.551178 -1.7526703 -13.551178 -3.9146976" fill-rule="evenodd"/><path stroke="#000000" stroke-width="1.0" stroke-linejoin="round" stroke-linecap="butt" d="m116.0105 21.565617l0 0c0 -2.1620274 6.06707 -3.9146976 13.551178 -3.9146976c7.4841156 0 13.551178 1.7526703 13.551178 3.9146976l0 15.658794c0 2.1620255 -6.0670624 3.9146957 -13.551178 3.9146957c-7.484108 0 -13.551178 -1.7526703 -13.551178 -3.9146957z" fill-rule="evenodd"/></g><g filter="url(#shadowFilter-p.18)"><use xlink:href="#p.18" transform="matrix(1.0 0.0 0.0 1.0 0.0 2.0)"/></g><defs><filter id="shadowFilter-p.18" filterUnits="userSpaceOnUse"><feGaussianBlur in="SourceAlpha" stdDeviation="2.0" result="blur"/><feComponentTransfer in="blur" color-interpolation-filters="sRGB"><feFuncR type="linear" slope="0" intercept="0.0"/><feFuncG type="linear" slope="0" intercept="0.0"/><feFuncB type="linear" slope="0" intercept="0.0"/><feFuncA type="linear" slope="0.5" intercept="0"/></feComponentTransfer></filter></defs><g id="p.18"><path fill="#f4cccc" d="m92.52231 45.053806l0 0c0 -2.1620293 6.06707 -3.9146996 13.551186 -3.9146996c7.484108 0 13.551178 1.7526703 13.551178 3.9146996l0 15.658791c0 2.1620293 -6.06707 3.9146996 -13.551178 3.9146996c-7.4841156 0 -13.551186 -1.7526703 -13.551186 -3.9146996z" fill-rule="evenodd"/><path fill="#000000" fill-opacity="0.0" d="m119.62467 45.053806l0 0c0 2.1620293 -6.06707 3.9146957 -13.551178 3.9146957c-7.4841156 0 -13.551186 -1.7526665 -13.551186 -3.9146957" fill-rule="evenodd"/><path fill="#000000" fill-opacity="0.0" d="m92.52231 45.053806l0 0c0 -2.1620293 6.06707 -3.9146996 13.551186 -3.9146996c7.484108 0 13.551178 1.7526703 13.551178 3.9146996l0 15.658791c0 2.1620293 -6.06707 3.9146996 -13.551178 3.9146996c-7.4841156 0 -13.551186 -1.7526703 -13.551186 -3.9146996z" fill-rule="evenodd"/><path stroke="#000000" stroke-width="1.0" stroke-linejoin="round" stroke-linecap="butt" d="m119.62467 45.053806l0 0c0 2.1620293 -6.06707 3.9146957 -13.551178 3.9146957c-7.4841156 0 -13.551186 -1.7526665 -13.551186 -3.9146957" fill-rule="evenodd"/><path stroke="#000000" stroke-width="1.0" stroke-linejoin="round" stroke-linecap="butt" d="m92.52231 45.053806l0 0c0 -2.1620293 6.06707 -3.9146996 13.551186 -3.9146996c7.484108 0 13.551178 1.7526703 13.551178 3.9146996l0 15.658791c0 2.1620293 -6.06707 3.9146996 -13.551178 3.9146996c-7.4841156 0 -13.551186 -1.7526703 -13.551186 -3.9146996z" fill-rule="evenodd"/></g><g filter="url(#shadowFilter-p.19)"><use xlink:href="#p.19" transform="matrix(1.0 0.0 0.0 1.0 0.0 2.0)"/></g><defs><filter id="shadowFilter-p.19" filterUnits="userSpaceOnUse"><feGaussianBlur in="SourceAlpha" stdDeviation="2.0" result="blur"/><feComponentTransfer in="blur" color-interpolation-filters="sRGB"><feFuncR type="linear" slope="0" intercept="0.0"/><feFuncG type="linear" slope="0" intercept="0.0"/><feFuncB type="linear" slope="0" intercept="0.0"/><feFuncA type="linear" slope="0.5" intercept="0"/></feComponentTransfer></filter></defs><g id="p.19"><path fill="#f4cccc" d="m172.31233 45.053806l0 0c0 -2.1620293 6.0670776 -3.9146996 13.551178 -3.9146996c7.4841156 0 13.551193 1.7526703 13.551193 3.9146996l0 15.658791c0 2.1620293 -6.0670776 3.9146996 -13.551193 3.9146996c-7.4841003 0 -13.551178 -1.7526703 -13.551178 -3.9146996z" fill-rule="evenodd"/><path fill="#000000" fill-opacity="0.0" d="m199.4147 45.053806l0 0c0 2.1620293 -6.0670776 3.9146957 -13.551193 3.9146957c-7.4841003 0 -13.551178 -1.7526665 -13.551178 -3.9146957" fill-rule="evenodd"/><path fill="#000000" fill-opacity="0.0" d="m172.31233 45.053806l0 0c0 -2.1620293 6.0670776 -3.9146996 13.551178 -3.9146996c7.4841156 0 13.551193 1.7526703 13.551193 3.9146996l0 15.658791c0 2.1620293 -6.0670776 3.9146996 -13.551193 3.9146996c-7.4841003 0 -13.551178 -1.7526703 -13.551178 -3.9146996z" fill-rule="evenodd"/><path stroke="#000000" stroke-width="1.0" stroke-linejoin="round" stroke-linecap="butt" d="m199.4147 45.053806l0 0c0 2.1620293 -6.0670776 3.9146957 -13.551193 3.9146957c-7.4841003 0 -13.551178 -1.7526665 -13.551178 -3.9146957" fill-rule="evenodd"/><path stroke="#000000" stroke-width="1.0" stroke-linejoin="round" stroke-linecap="butt" d="m172.31233 45.053806l0 0c0 -2.1620293 6.0670776 -3.9146996 13.551178 -3.9146996c7.4841156 0 13.551193 1.7526703 13.551193 3.9146996l0 15.658791c0 2.1620293 -6.0670776 3.9146996 -13.551193 3.9146996c-7.4841003 0 -13.551178 -1.7526703 -13.551178 -3.9146996z" fill-rule="evenodd"/></g><g filter="url(#shadowFilter-p.20)"><use xlink:href="#p.20" transform="matrix(1.0 0.0 0.0 1.0 0.0 2.0)"/></g><defs><filter id="shadowFilter-p.20" filterUnits="userSpaceOnUse"><feGaussianBlur in="SourceAlpha" stdDeviation="2.0" result="blur"/><feComponentTransfer in="blur" color-interpolation-filters="sRGB"><feFuncR type="linear" slope="0" intercept="0.0"/><feFuncG type="linear" slope="0" intercept="0.0"/><feFuncB type="linear" slope="0" intercept="0.0"/><feFuncA type="linear" slope="0.5" intercept="0"/></feComponentTransfer></filter></defs><g id="p.20"><path fill="#f4cccc" d="m195.80052 21.565617l0 0c0 -2.1620274 6.0670776 -3.9146976 13.551178 -3.9146976c7.4841156 0 13.551193 1.7526703 13.551193 3.9146976l0 15.658794c0 2.1620255 -6.0670776 3.9146957 -13.551193 3.9146957c-7.4841003 0 -13.551178 -1.7526703 -13.551178 -3.9146957z" fill-rule="evenodd"/><path fill="#000000" fill-opacity="0.0" d="m222.9029 21.565617l0 0c0 2.1620274 -6.0670776 3.9146976 -13.551193 3.9146976c-7.4841003 0 -13.551178 -1.7526703 -13.551178 -3.9146976" fill-rule="evenodd"/><path fill="#000000" fill-opacity="0.0" d="m195.80052 21.565617l0 0c0 -2.1620274 6.0670776 -3.9146976 13.551178 -3.9146976c7.4841156 0 13.551193 1.7526703 13.551193 3.9146976l0 15.658794c0 2.1620255 -6.0670776 3.9146957 -13.551193 3.9146957c-7.4841003 0 -13.551178 -1.7526703 -13.551178 -3.9146957z" fill-rule="evenodd"/><path stroke="#000000" stroke-width="1.0" stroke-linejoin="round" stroke-linecap="butt" d="m222.9029 21.565617l0 0c0 2.1620274 -6.0670776 3.9146976 -13.551193 3.9146976c-7.4841003 0 -13.551178 -1.7526703 -13.551178 -3.9146976" fill-rule="evenodd"/><path stroke="#000000" stroke-width="1.0" stroke-linejoin="round" stroke-linecap="butt" d="m195.80052 21.565617l0 0c0 -2.1620274 6.0670776 -3.9146976 13.551178 -3.9146976c7.4841156 0 13.551193 1.7526703 13.551193 3.9146976l0 15.658794c0 2.1620255 -6.0670776 3.9146957 -13.551193 3.9146957c-7.4841003 0 -13.551178 -1.7526703 -13.551178 -3.9146957z" fill-rule="evenodd"/></g></g></svg>